<svg width="1680" height="1200" fill="none" xmlns="http://www.w3.org/2000/svg"><g clip-path="url(#clip0)"><path fill-rule="evenodd" clip-rule="evenodd" d="M358.934 385l14 14-.953.954-12.966-12.967-10.988 12.927-1.027-.874L358.934 385z" fill="#fff" fill-opacity=".15" filter="url(#filter0_f)"/><path fill-rule="evenodd" clip-rule="evenodd" d="M65.834 723.149l7.403-8.143-.997-.907-6.08 6.687-6.302-12.603-1.206.603 7.182 14.363z" fill="#fff" fill-opacity=".15"/><path fill-rule="evenodd" clip-rule="evenodd" d="M911.057 533.467l-3.36-13.439-11.098 8.487-9.855-9.151.918-.988 9.021 8.377 11.824-9.042 3.382 13.527 12.681-8.876.773 1.105-14.286 10z" fill="#fff" fill-opacity=".15" filter="url(#filter1_f)"/><path fill-rule="evenodd" clip-rule="evenodd" d="M372.155 189.143l4.27-12.554-10.393 3.759-1.498-10.934.992-.556 1.371 10.01 11.073-4.005-4.298 12.637 11.495-3.593-.062 1.188-12.95 4.048z" fill="#fff" fill-opacity=".15" filter="url(#filter2_f)"/><path fill-rule="evenodd" clip-rule="evenodd" d="M228.431 607.945l5.952 12.648-9.758 9.007-7.446-13.404 11.252-8.251zm-9.496 8.635l6.036 10.866 7.771-7.173L227.908 610l-8.973 6.58z" fill="#fff" fill-opacity=".15" filter="url(#filter3_f)"/><path fill-rule="evenodd" clip-rule="evenodd" d="M481.564 58.39l-3.607-13.506-13.265-.592 2.951 15.047 13.921-.949zm-12.826-.477l-2.393-12.198 10.565.472 2.929 10.97-11.101.756zM131.414 308.796l2.39 8.963 1.303-.348-2.434-9.126 10.084-4.088L128.002 296l3.062 11.483L116 313.59l.507 1.249 14.907-6.043zm.909-1.824l-2.2-8.251 9.515 5.286-7.315 2.965z" fill="#fff" fill-opacity=".15"/><path fill-rule="evenodd" clip-rule="evenodd" d="M188.875 55.133l8.536 3.632-.528 1.24-8.692-3.697-5.47 9.405-6.032-15.764 10.935 4.652 8.172-14.05 1.166.677-8.087 13.905zm-1.934.643l-7.858-3.343 3.89 10.166 3.968-6.823z" fill="#fff" fill-opacity=".15" filter="url(#filter4_f)"/><path fill-rule="evenodd" clip-rule="evenodd" d="M5.134 75.146a8.764 8.764 0 1 0 0-17.528 8.764 8.764 0 0 0 0 17.528zm0 1.348c5.585 0 10.112-4.527 10.112-10.112S10.72 56.269 5.134 56.269-4.98 60.797-4.98 66.382-.45 76.494 5.134 76.494z" fill="#fff" fill-opacity=".15"/><path fill-rule="evenodd" clip-rule="evenodd" d="M948.43 47.854l-8.089-5.883 1.458-10.206 8.133-3.697 8.043 6.58-1.467 8.8-8.078 4.406zm6.856-5.276l1.23-7.38-6.789-5.556-6.698 3.045-1.239 8.67 6.743 4.905 6.753-3.684z" fill="#fff" fill-opacity=".15" filter="url(#filter5_f)"/><path fill-rule="evenodd" clip-rule="evenodd" d="M630.301 352.021l-.301-1.314 22.21-5.077-11.012-8.566.827-1.064 13.257 10.311-24.981 5.71z" fill="#fff" fill-opacity=".15" filter="url(#filter6_f)"/><path fill-rule="evenodd" clip-rule="evenodd" d="M769.298 152.794l-15.249-8.387 15.249-16.012v24.399zm-1.348-2.28v-18.748l-11.718 12.303 11.718 6.445z" fill="#fff" fill-opacity=".15" filter="url(#filter7_f)"/><circle cx="1264.5" cy="4.494" r="11.657" stroke="#fff" stroke-opacity=".1" stroke-width="5"/><path fill-rule="evenodd" clip-rule="evenodd" d="M1446.18 486.83l-3.9 8.911 1.3.566 3.83-8.759 5.89 3.433.71-1.221-6.03-3.516 5.49-12.552-1.29-.567-5.43 12.402-9.7-5.662-.72 1.221 9.85 5.744z" fill="#fff" fill-opacity=".15"/><path fill-rule="evenodd" clip-rule="evenodd" d="M1185.63 377.942c5.07 0 9.19-4.113 9.19-9.188 0-5.074-4.12-9.187-9.19-9.187a9.186 9.186 0 0 0-9.19 9.187 9.186 9.186 0 0 0 9.19 9.188zm0 1.413c5.85 0 10.6-4.746 10.6-10.601s-4.75-10.601-10.6-10.601c-5.86 0-10.6 4.746-10.6 10.601s4.74 10.601 10.6 10.601z" fill="#fff" fill-opacity=".15" filter="url(#filter8_f)"/><path fill-rule="evenodd" clip-rule="evenodd" d="M1249.15 235.784l4.47-13.16-10.89 3.94-1.57-11.463 1.04-.583 1.44 10.494 11.6-4.198-4.5 13.247 12.05-3.766-.07 1.246-13.57 4.243z" fill="#fff" fill-opacity=".15" filter="url(#filter9_f)"/><path fill-rule="evenodd" clip-rule="evenodd" d="M631.615 686.898l2.666 5.665-4.37 4.035-3.336-6.004 5.04-3.696zm-4.253 3.868l2.704 4.867 3.48-3.213-2.165-4.602-4.019 2.948z" fill="#fff" fill-opacity=".15" filter="url(#filter10_f)"/><path fill-rule="evenodd" clip-rule="evenodd" d="M1608.47 221.921l-.32-1.378 23.29-5.322-11.55-8.98.87-1.115 13.9 10.809-26.19 5.986z" fill="#fff" fill-opacity=".15" filter="url(#filter11_f)"/><path fill-rule="evenodd" clip-rule="evenodd" d="M896.473 762.013h-19.799v-1.349h18.337l-1.371-16.909 1.344-.109 1.489 18.367z" fill="#fff" fill-opacity=".15" filter="url(#filter12_f)"/><path fill-rule="evenodd" clip-rule="evenodd" d="M835.738 971.704l-.523-10.994-1.347.065.43 9.028-13.368-4.456-.426 1.279 15.234 5.078z" fill="#fff" fill-opacity=".15" filter="url(#filter13_f)"/><path fill-rule="evenodd" clip-rule="evenodd" d="M319.067 669.588l5.858 11.896 4.691-10.007 8.791 6.673-.308 1.094-8.048-6.108-4.998 10.661-5.896-11.974-5.588 10.668-.797-.884 6.295-12.019z" fill="#fff" fill-opacity=".15"/><path fill-rule="evenodd" clip-rule="evenodd" d="M1132.2 801.491l4.64 8.028-1.16.676-4.74-8.174-10.02 4.239 4.64-16.229 5.95 10.284 14.97-6.333.53 1.241-14.81 6.268zm-1.94-.646l-4.28-7.391-2.99 10.466 7.27-3.075z" fill="#fff" fill-opacity=".15" filter="url(#filter14_f)"/><path fill-rule="evenodd" clip-rule="evenodd" d="M1558.21 1027.96l4.73 13.15 13.27-.53-4.21-15.75-13.79 3.13zm12.82-.61l3.41 11.95-10.56.42-3.85-10.68 11-1.69zm-503.67 9.89l-8.03-4.65-.68 1.17 8.18 4.73-4.24 10.02 16.23-4.64-10.29-5.95 6.34-14.97-1.24-.53-6.27 14.82zm.65 1.93l7.39 4.28-10.47 2.99 3.08-7.27z" fill="#fff" fill-opacity=".15"/><path fill-rule="evenodd" clip-rule="evenodd" d="M1359.15 1116.63l-15.77 15.77 19.71 3.94-3.94-19.71zm-.83 2.74l3.05 15.25-15.25-3.05 12.2-12.2z" fill="#fff" fill-opacity=".15" filter="url(#filter15_f)"/><path fill-rule="evenodd" clip-rule="evenodd" d="M1088.98 525.753l-8.61 3.468-.5-1.251 8.76-3.531-2.78-10.519 15.41 6.881-11.02 4.444 4.16 15.714-1.31.345-4.11-15.551zm.91-1.822l7.92-3.193-9.94-4.437 2.02 7.63z" fill="#fff" fill-opacity=".05" filter="url(#filter16_f)"/><path fill-rule="evenodd" clip-rule="evenodd" d="M1413.04 828.253l-16.72 4.852-.54-22.105 17.26 17.253zm-2.57-.659l-13.26-13.257.42 16.985 12.84-3.728z" fill="#fff" fill-opacity=".15" filter="url(#filter17_f)"/><path fill-rule="evenodd" clip-rule="evenodd" d="M738.218 1114.46l9.88-1.56 6.185 8.25-3.137 8.37-10.34 1.03-5.184-7.26 2.596-8.83zm-1.118 8.58l4.35 6.09 8.728-.87 2.583-6.89-5.255-7.01-8.235 1.3-2.171 7.38z" fill="#fff" fill-opacity=".15"/><path fill-rule="evenodd" clip-rule="evenodd" d="M99.644 1015.2l-13.801-3.95 1.866 13.36-13.319 5.1-.411-1.33 12.192-3.76-1.988-15.29 13.892 3.97-1.395-15.978 1.391-.121 1.573 17.999z" fill="#fff" fill-opacity=".15" filter="url(#filter18_f)"/><path fill-rule="evenodd" clip-rule="evenodd" d="M299.832 917.922l-8.267-11.895-13.139 4.09 8.171 13.627 13.235-5.822zm-12.67 4.047l-6.624-11.047 10.464-3.257 6.714 9.661-10.554 4.643z" fill="#fff" fill-opacity=".15" filter="url(#filter19_f)"/><path fill-rule="evenodd" clip-rule="evenodd" d="M610.838 881.994l4.796-8.33 1.211.697-4.883 8.482 8.996 6.796-16.967 4.248 6.144-10.672-13.44-10.153.842-1.115 13.301 10.047zm.421 2.069l-4.415 7.669 10.941-2.739-6.526-4.93z" fill="#fff" fill-opacity=".12" filter="url(#filter20_f)"/><path fill-rule="evenodd" clip-rule="evenodd" d="M388.433 1083.61l-9.47 4.21-8.403-6.6.896-9.21 10.072-3.81 7.137 5.88-.232 9.53zm-1.182-8.89l-5.986-4.93-8.503 3.22-.738 7.59 7.14 5.6 7.894-3.51.193-7.97z" fill="#fff" fill-opacity=".15" filter="url(#filter21_f)"/><path fill-rule="evenodd" clip-rule="evenodd" d="M19.797 478.642l-15.428 9.339L-2.099 466l21.896 12.642zm-2.745.028L.227 468.957l4.97 16.889 11.855-7.176z" fill="#fff" fill-opacity=".15"/><circle cx="954.464" cy="305.464" r="4" transform="rotate(-60 954.464 305.464)" fill="#fff" fill-opacity=".08" filter="url(#filter22_f)"/><circle cx="1556.55" cy="113.084" r="4" transform="rotate(-60 1556.55 113.084)" fill="#fff" fill-opacity=".08" filter="url(#filter23_f)"/><circle cx="1486.55" cy="633.084" r="4" transform="rotate(-60 1486.55 633.084)" fill="#fff" fill-opacity=".08" filter="url(#filter24_f)"/><circle cx="1586.55" cy="893.084" r="4" transform="rotate(-60 1586.55 893.084)" fill="#fff" fill-opacity=".08" filter="url(#filter25_f)"/><circle cx="446.545" cy="1013.08" r="4" transform="rotate(-60 446.545 1013.08)" fill="#fff" fill-opacity=".08" filter="url(#filter26_f)"/></g><defs><filter id="filter0_f" x="343" y="381" width="33.934" height="22.954" filterUnits="userSpaceOnUse" color-interpolation-filters="sRGB"><feFlood flood-opacity="0" result="BackgroundImageFix"/><feBlend in="SourceGraphic" in2="BackgroundImageFix" result="shape"/><feGaussianBlur stdDeviation="2" result="effect1_foregroundBlur"/></filter><filter id="filter1_f" x="882.744" y="513.711" width="46.599" height="23.756" filterUnits="userSpaceOnUse" color-interpolation-filters="sRGB"><feFlood flood-opacity="0" result="BackgroundImageFix"/><feBlend in="SourceGraphic" in2="BackgroundImageFix" result="shape"/><feGaussianBlur stdDeviation="2" result="effect1_foregroundBlur"/></filter><filter id="filter2_f" x="354" y="164" width="37.772" height="33.648" filterUnits="userSpaceOnUse" color-interpolation-filters="sRGB"><feFlood flood-opacity="0" result="BackgroundImageFix"/><feBlend in="SourceGraphic" in2="BackgroundImageFix" result="shape"/><feGaussianBlur stdDeviation="2" result="effect1_foregroundBlur"/></filter><filter id="filter3_f" x="210.179" y="600.945" width="31.204" height="35.656" filterUnits="userSpaceOnUse" color-interpolation-filters="sRGB"><feFlood flood-opacity="0" result="BackgroundImageFix"/><feBlend in="SourceGraphic" in2="BackgroundImageFix" result="shape"/><feGaussianBlur stdDeviation="3.5" result="effect1_foregroundBlur"/></filter><filter id="filter4_f" x="167.606" y="31.067" width="39.318" height="43.56" filterUnits="userSpaceOnUse" color-interpolation-filters="sRGB"><feFlood flood-opacity="0" result="BackgroundImageFix"/><feBlend in="SourceGraphic" in2="BackgroundImageFix" result="shape"/><feGaussianBlur stdDeviation="3.5" result="effect1_foregroundBlur"/></filter><filter id="filter5_f" x="933.341" y="21.068" width="31.634" height="33.786" filterUnits="userSpaceOnUse" color-interpolation-filters="sRGB"><feFlood flood-opacity="0" result="BackgroundImageFix"/><feBlend in="SourceGraphic" in2="BackgroundImageFix" result="shape"/><feGaussianBlur stdDeviation="3.5" result="effect1_foregroundBlur"/></filter><filter id="filter6_f" x="623" y="329" width="39.282" height="30.021" filterUnits="userSpaceOnUse" color-interpolation-filters="sRGB"><feFlood flood-opacity="0" result="BackgroundImageFix"/><feBlend in="SourceGraphic" in2="BackgroundImageFix" result="shape"/><feGaussianBlur stdDeviation="3.5" result="effect1_foregroundBlur"/></filter><filter id="filter7_f" x="750.049" y="124.395" width="23.249" height="32.399" filterUnits="userSpaceOnUse" color-interpolation-filters="sRGB"><feFlood flood-opacity="0" result="BackgroundImageFix"/><feBlend in="SourceGraphic" in2="BackgroundImageFix" result="shape"/><feGaussianBlur stdDeviation="2" result="effect1_foregroundBlur"/></filter><filter id="filter8_f" x="1171.03" y="354.153" width="29.202" height="29.202" filterUnits="userSpaceOnUse" color-interpolation-filters="sRGB"><feFlood flood-opacity="0" result="BackgroundImageFix"/><feBlend in="SourceGraphic" in2="BackgroundImageFix" result="shape"/><feGaussianBlur stdDeviation="2" result="effect1_foregroundBlur"/></filter><filter id="filter9_f" x="1227.31" y="206.619" width="45.211" height="40.888" filterUnits="userSpaceOnUse" color-interpolation-filters="sRGB"><feFlood flood-opacity="0" result="BackgroundImageFix"/><feBlend in="SourceGraphic" in2="BackgroundImageFix" result="shape"/><feGaussianBlur stdDeviation="3.5" result="effect1_foregroundBlur"/></filter><filter id="filter10_f" x="619.575" y="679.898" width="21.706" height="23.7" filterUnits="userSpaceOnUse" color-interpolation-filters="sRGB"><feFlood flood-opacity="0" result="BackgroundImageFix"/><feBlend in="SourceGraphic" in2="BackgroundImageFix" result="shape"/><feGaussianBlur stdDeviation="3.5" result="effect1_foregroundBlur"/></filter><filter id="filter11_f" x="1604.15" y="201.126" width="34.504" height="24.795" filterUnits="userSpaceOnUse" color-interpolation-filters="sRGB"><feFlood flood-opacity="0" result="BackgroundImageFix"/><feBlend in="SourceGraphic" in2="BackgroundImageFix" result="shape"/><feGaussianBlur stdDeviation="2" result="effect1_foregroundBlur"/></filter><filter id="filter12_f" x="869" y="736" width="42.912" height="42.912" filterUnits="userSpaceOnUse" color-interpolation-filters="sRGB"><feFlood flood-opacity="0" result="BackgroundImageFix"/><feBlend in="SourceGraphic" in2="BackgroundImageFix" result="shape"/><feGaussianBlur stdDeviation="3.5" result="effect1_foregroundBlur"/></filter><filter id="filter13_f" x="816.077" y="951.886" width="28.896" height="28.896" filterUnits="userSpaceOnUse" color-interpolation-filters="sRGB"><feFlood flood-opacity="0" result="BackgroundImageFix"/><feBlend in="SourceGraphic" in2="BackgroundImageFix" result="shape"/><feGaussianBlur stdDeviation="2" result="effect1_foregroundBlur"/></filter><filter id="filter14_f" x="1111.13" y="777.544" width="42.306" height="42.306" filterUnits="userSpaceOnUse" color-interpolation-filters="sRGB"><feFlood flood-opacity="0" result="BackgroundImageFix"/><feBlend in="SourceGraphic" in2="BackgroundImageFix" result="shape"/><feGaussianBlur stdDeviation="2" result="effect1_foregroundBlur"/></filter><filter id="filter15_f" x="1339.38" y="1112.63" width="35.588" height="35.588" filterUnits="userSpaceOnUse" color-interpolation-filters="sRGB"><feFlood flood-opacity="0" result="BackgroundImageFix"/><feBlend in="SourceGraphic" in2="BackgroundImageFix" result="shape"/><feGaussianBlur stdDeviation="2" result="effect1_foregroundBlur"/></filter><filter id="filter16_f" x="1070" y="504" width="43.464" height="44.461" filterUnits="userSpaceOnUse" color-interpolation-filters="sRGB"><feFlood flood-opacity="0" result="BackgroundImageFix"/><feBlend in="SourceGraphic" in2="BackgroundImageFix" result="shape"/><feGaussianBlur stdDeviation="2.5" result="effect1_foregroundBlur"/></filter><filter id="filter17_f" x="1381" y="807" width="36.035" height="36.035" filterUnits="userSpaceOnUse" color-interpolation-filters="sRGB"><feFlood flood-opacity="0" result="BackgroundImageFix"/><feBlend in="SourceGraphic" in2="BackgroundImageFix" result="shape"/><feGaussianBlur stdDeviation="2" result="effect1_foregroundBlur"/></filter><filter id="filter18_f" x="69.978" y="993.201" width="33.665" height="40.513" filterUnits="userSpaceOnUse" color-interpolation-filters="sRGB"><feFlood flood-opacity="0" result="BackgroundImageFix"/><feBlend in="SourceGraphic" in2="BackgroundImageFix" result="shape"/><feGaussianBlur stdDeviation="2" result="effect1_foregroundBlur"/></filter><filter id="filter19_f" x="267.568" y="894.36" width="42.348" height="40.66" filterUnits="userSpaceOnUse" color-interpolation-filters="sRGB"><feFlood flood-opacity="0" result="BackgroundImageFix"/><feBlend in="SourceGraphic" in2="BackgroundImageFix" result="shape"/><feGaussianBlur stdDeviation="3.5" result="effect1_foregroundBlur"/></filter><filter id="filter20_f" x="583.978" y="860.888" width="48.618" height="44.956" filterUnits="userSpaceOnUse" color-interpolation-filters="sRGB"><feFlood flood-opacity="0" result="BackgroundImageFix"/><feBlend in="SourceGraphic" in2="BackgroundImageFix" result="shape"/><feGaussianBlur stdDeviation="4" result="effect1_foregroundBlur"/></filter><filter id="filter21_f" x="366.56" y="1064.2" width="26.105" height="27.619" filterUnits="userSpaceOnUse" color-interpolation-filters="sRGB"><feFlood flood-opacity="0" result="BackgroundImageFix"/><feBlend in="SourceGraphic" in2="BackgroundImageFix" result="shape"/><feGaussianBlur stdDeviation="2" result="effect1_foregroundBlur"/></filter><filter id="filter22_f" x="945" y="296" width="18.928" height="18.928" filterUnits="userSpaceOnUse" color-interpolation-filters="sRGB"><feFlood flood-opacity="0" result="BackgroundImageFix"/><feBlend in="SourceGraphic" in2="BackgroundImageFix" result="shape"/><feGaussianBlur stdDeviation="2" result="effect1_foregroundBlur"/></filter><filter id="filter23_f" x="1547.08" y="103.62" width="18.928" height="18.928" filterUnits="userSpaceOnUse" color-interpolation-filters="sRGB"><feFlood flood-opacity="0" result="BackgroundImageFix"/><feBlend in="SourceGraphic" in2="BackgroundImageFix" result="shape"/><feGaussianBlur stdDeviation="2" result="effect1_foregroundBlur"/></filter><filter id="filter24_f" x="1477.08" y="623.62" width="18.928" height="18.928" filterUnits="userSpaceOnUse" color-interpolation-filters="sRGB"><feFlood flood-opacity="0" result="BackgroundImageFix"/><feBlend in="SourceGraphic" in2="BackgroundImageFix" result="shape"/><feGaussianBlur stdDeviation="2" result="effect1_foregroundBlur"/></filter><filter id="filter25_f" x="1577.08" y="883.62" width="18.928" height="18.928" filterUnits="userSpaceOnUse" color-interpolation-filters="sRGB"><feFlood flood-opacity="0" result="BackgroundImageFix"/><feBlend in="SourceGraphic" in2="BackgroundImageFix" result="shape"/><feGaussianBlur stdDeviation="2" result="effect1_foregroundBlur"/></filter><filter id="filter26_f" x="437.081" y="1003.62" width="18.928" height="18.928" filterUnits="userSpaceOnUse" color-interpolation-filters="sRGB"><feFlood flood-opacity="0" result="BackgroundImageFix"/><feBlend in="SourceGraphic" in2="BackgroundImageFix" result="shape"/><feGaussianBlur stdDeviation="2" result="effect1_foregroundBlur"/></filter><clipPath id="clip0"><path fill="#fff" d="M0 0H1680V1200H0z"/></clipPath></defs></svg>