<svg fill="none" height="1200" width="1680" xmlns="http://www.w3.org/2000/svg" xmlns:xlink="http://www.w3.org/1999/xlink"><filter id="a" color-interpolation-filters="sRGB" filterUnits="userSpaceOnUse" height="22.954" width="33.934" x="343" y="381"><feFlood flood-opacity="0" result="BackgroundImageFix"/><feBlend in="SourceGraphic" in2="BackgroundImageFix" result="shape"/><feGaussianBlur result="effect1_foregroundBlur" stdDeviation="2"/></filter><filter id="b" color-interpolation-filters="sRGB" filterUnits="userSpaceOnUse" height="23.756" width="46.599" x="882.744" y="513.711"><feFlood flood-opacity="0" result="BackgroundImageFix"/><feBlend in="SourceGraphic" in2="BackgroundImageFix" result="shape"/><feGaussianBlur result="effect1_foregroundBlur" stdDeviation="2"/></filter><filter id="c" color-interpolation-filters="sRGB" filterUnits="userSpaceOnUse" height="33.648" width="37.772" x="354" y="164"><feFlood flood-opacity="0" result="BackgroundImageFix"/><feBlend in="SourceGraphic" in2="BackgroundImageFix" result="shape"/><feGaussianBlur result="effect1_foregroundBlur" stdDeviation="2"/></filter><filter id="d" color-interpolation-filters="sRGB" filterUnits="userSpaceOnUse" height="35.656" width="31.204" x="210.179" y="600.945"><feFlood flood-opacity="0" result="BackgroundImageFix"/><feBlend in="SourceGraphic" in2="BackgroundImageFix" result="shape"/><feGaussianBlur result="effect1_foregroundBlur" stdDeviation="3.5"/></filter><filter id="e" color-interpolation-filters="sRGB" filterUnits="userSpaceOnUse" height="43.56" width="39.318" x="167.606" y="31.067"><feFlood flood-opacity="0" result="BackgroundImageFix"/><feBlend in="SourceGraphic" in2="BackgroundImageFix" result="shape"/><feGaussianBlur result="effect1_foregroundBlur" stdDeviation="3.5"/></filter><filter id="f" color-interpolation-filters="sRGB" filterUnits="userSpaceOnUse" height="33.786" width="31.634" x="933.341" y="21.068"><feFlood flood-opacity="0" result="BackgroundImageFix"/><feBlend in="SourceGraphic" in2="BackgroundImageFix" result="shape"/><feGaussianBlur result="effect1_foregroundBlur" stdDeviation="3.5"/></filter><filter id="g" color-interpolation-filters="sRGB" filterUnits="userSpaceOnUse" height="30.021" width="39.282" x="623" y="329"><feFlood flood-opacity="0" result="BackgroundImageFix"/><feBlend in="SourceGraphic" in2="BackgroundImageFix" result="shape"/><feGaussianBlur result="effect1_foregroundBlur" stdDeviation="3.5"/></filter><filter id="h" color-interpolation-filters="sRGB" filterUnits="userSpaceOnUse" height="32.399" width="23.249" x="750.049" y="124.395"><feFlood flood-opacity="0" result="BackgroundImageFix"/><feBlend in="SourceGraphic" in2="BackgroundImageFix" result="shape"/><feGaussianBlur result="effect1_foregroundBlur" stdDeviation="2"/></filter><filter id="i" color-interpolation-filters="sRGB" filterUnits="userSpaceOnUse" height="29.202" width="29.202" x="1171.03" y="354.153"><feFlood flood-opacity="0" result="BackgroundImageFix"/><feBlend in="SourceGraphic" in2="BackgroundImageFix" result="shape"/><feGaussianBlur result="effect1_foregroundBlur" stdDeviation="2"/></filter><filter id="j" color-interpolation-filters="sRGB" filterUnits="userSpaceOnUse" height="40.888" width="45.211" x="1227.31" y="206.619"><feFlood flood-opacity="0" result="BackgroundImageFix"/><feBlend in="SourceGraphic" in2="BackgroundImageFix" result="shape"/><feGaussianBlur result="effect1_foregroundBlur" stdDeviation="3.5"/></filter><filter id="k" color-interpolation-filters="sRGB" filterUnits="userSpaceOnUse" height="23.7" width="21.706" x="619.575" y="679.898"><feFlood flood-opacity="0" result="BackgroundImageFix"/><feBlend in="SourceGraphic" in2="BackgroundImageFix" result="shape"/><feGaussianBlur result="effect1_foregroundBlur" stdDeviation="3.5"/></filter><filter id="l" color-interpolation-filters="sRGB" filterUnits="userSpaceOnUse" height="24.795" width="34.504" x="1604.15" y="201.126"><feFlood flood-opacity="0" result="BackgroundImageFix"/><feBlend in="SourceGraphic" in2="BackgroundImageFix" result="shape"/><feGaussianBlur result="effect1_foregroundBlur" stdDeviation="2"/></filter><filter id="m" color-interpolation-filters="sRGB" filterUnits="userSpaceOnUse" height="42.912" width="42.912" x="869" y="736"><feFlood flood-opacity="0" result="BackgroundImageFix"/><feBlend in="SourceGraphic" in2="BackgroundImageFix" result="shape"/><feGaussianBlur result="effect1_foregroundBlur" stdDeviation="3.5"/></filter><filter id="n" color-interpolation-filters="sRGB" filterUnits="userSpaceOnUse" height="28.896" width="28.896" x="816.077" y="951.886"><feFlood flood-opacity="0" result="BackgroundImageFix"/><feBlend in="SourceGraphic" in2="BackgroundImageFix" result="shape"/><feGaussianBlur result="effect1_foregroundBlur" stdDeviation="2"/></filter><filter id="o" color-interpolation-filters="sRGB" filterUnits="userSpaceOnUse" height="42.306" width="42.306" x="1111.13" y="777.544"><feFlood flood-opacity="0" result="BackgroundImageFix"/><feBlend in="SourceGraphic" in2="BackgroundImageFix" result="shape"/><feGaussianBlur result="effect1_foregroundBlur" stdDeviation="2"/></filter><filter id="p" color-interpolation-filters="sRGB" filterUnits="userSpaceOnUse" height="35.588" width="35.588" x="1339.38" y="1112.63"><feFlood flood-opacity="0" result="BackgroundImageFix"/><feBlend in="SourceGraphic" in2="BackgroundImageFix" result="shape"/><feGaussianBlur result="effect1_foregroundBlur" stdDeviation="2"/></filter><filter id="q" color-interpolation-filters="sRGB" filterUnits="userSpaceOnUse" height="44.461" width="43.464" x="1070" y="504"><feFlood flood-opacity="0" result="BackgroundImageFix"/><feBlend in="SourceGraphic" in2="BackgroundImageFix" result="shape"/><feGaussianBlur result="effect1_foregroundBlur" stdDeviation="2.5"/></filter><filter id="r" color-interpolation-filters="sRGB" filterUnits="userSpaceOnUse" height="36.035" width="36.035" x="1381" y="807"><feFlood flood-opacity="0" result="BackgroundImageFix"/><feBlend in="SourceGraphic" in2="BackgroundImageFix" result="shape"/><feGaussianBlur result="effect1_foregroundBlur" stdDeviation="2"/></filter><filter id="s" color-interpolation-filters="sRGB" filterUnits="userSpaceOnUse" height="40.513" width="33.665" x="69.978" y="993.201"><feFlood flood-opacity="0" result="BackgroundImageFix"/><feBlend in="SourceGraphic" in2="BackgroundImageFix" result="shape"/><feGaussianBlur result="effect1_foregroundBlur" stdDeviation="2"/></filter><filter id="t" color-interpolation-filters="sRGB" filterUnits="userSpaceOnUse" height="40.66" width="42.348" x="267.568" y="894.36"><feFlood flood-opacity="0" result="BackgroundImageFix"/><feBlend in="SourceGraphic" in2="BackgroundImageFix" result="shape"/><feGaussianBlur result="effect1_foregroundBlur" stdDeviation="3.5"/></filter><filter id="u" color-interpolation-filters="sRGB" filterUnits="userSpaceOnUse" height="44.956" width="48.618" x="583.978" y="860.888"><feFlood flood-opacity="0" result="BackgroundImageFix"/><feBlend in="SourceGraphic" in2="BackgroundImageFix" result="shape"/><feGaussianBlur result="effect1_foregroundBlur" stdDeviation="4"/></filter><filter id="v" color-interpolation-filters="sRGB" filterUnits="userSpaceOnUse" height="27.619" width="26.105" x="366.56" y="1064.2"><feFlood flood-opacity="0" result="BackgroundImageFix"/><feBlend in="SourceGraphic" in2="BackgroundImageFix" result="shape"/><feGaussianBlur result="effect1_foregroundBlur" stdDeviation="2"/></filter><filter id="w" color-interpolation-filters="sRGB" filterUnits="userSpaceOnUse" height="18.928" width="18.928" x="945" y="296"><feFlood flood-opacity="0" result="BackgroundImageFix"/><feBlend in="SourceGraphic" in2="BackgroundImageFix" result="shape"/><feGaussianBlur result="effect1_foregroundBlur" stdDeviation="2"/></filter><filter id="x" color-interpolation-filters="sRGB" filterUnits="userSpaceOnUse" height="18.928" width="18.928" x="1547.08" y="103.62"><feFlood flood-opacity="0" result="BackgroundImageFix"/><feBlend in="SourceGraphic" in2="BackgroundImageFix" result="shape"/><feGaussianBlur result="effect1_foregroundBlur" stdDeviation="2"/></filter><filter id="y" color-interpolation-filters="sRGB" filterUnits="userSpaceOnUse" height="18.928" width="18.928" x="1477.08" y="623.62"><feFlood flood-opacity="0" result="BackgroundImageFix"/><feBlend in="SourceGraphic" in2="BackgroundImageFix" result="shape"/><feGaussianBlur result="effect1_foregroundBlur" stdDeviation="2"/></filter><filter id="z" color-interpolation-filters="sRGB" filterUnits="userSpaceOnUse" height="18.928" width="18.928" x="1577.08" y="883.62"><feFlood flood-opacity="0" result="BackgroundImageFix"/><feBlend in="SourceGraphic" in2="BackgroundImageFix" result="shape"/><feGaussianBlur result="effect1_foregroundBlur" stdDeviation="2"/></filter><filter id="A" color-interpolation-filters="sRGB" filterUnits="userSpaceOnUse" height="18.928" width="18.928" x="437.081" y="1003.62"><feFlood flood-opacity="0" result="BackgroundImageFix"/><feBlend in="SourceGraphic" in2="BackgroundImageFix" result="shape"/><feGaussianBlur result="effect1_foregroundBlur" stdDeviation="2"/></filter><clipPath id="B"><path d="m0 0h1680v1200h-1680z"/></clipPath><g clip-path="url(#B)"><path clip-rule="evenodd" d="m358.934 385 14 14-.953.954-12.966-12.967-10.988 12.927-1.027-.874z" fill="#fff" fill-opacity=".15" fill-rule="evenodd" filter="url(#a)"/><path clip-rule="evenodd" d="m65.834 723.149 7.403-8.143-.997-.907-6.08 6.687-6.302-12.603-1.206.603z" fill="#fff" fill-opacity=".15" fill-rule="evenodd"/><path clip-rule="evenodd" d="m911.057 533.467-3.36-13.439-11.098 8.487-9.855-9.151.918-.988 9.021 8.377 11.824-9.042 3.382 13.527 12.681-8.876.773 1.105z" fill="#fff" fill-opacity=".15" fill-rule="evenodd" filter="url(#b)"/><path clip-rule="evenodd" d="m372.155 189.143 4.27-12.554-10.393 3.759-1.498-10.934.992-.556 1.371 10.01 11.073-4.005-4.298 12.637 11.495-3.593-.062 1.188z" fill="#fff" fill-opacity=".15" fill-rule="evenodd" filter="url(#c)"/><path clip-rule="evenodd" d="m228.431 607.945 5.952 12.648-9.758 9.007-7.446-13.404zm-9.496 8.635 6.036 10.866 7.771-7.173-4.834-10.273z" fill="#fff" fill-opacity=".15" fill-rule="evenodd" filter="url(#d)"/><path clip-rule="evenodd" d="m481.564 58.39-3.607-13.506-13.265-.592 2.951 15.047zm-12.826-.477-2.393-12.198 10.565.472 2.929 10.97zm-337.324 250.883 2.39 8.963 1.303-.348-2.434-9.126 10.084-4.088-14.755-8.197 3.062 11.483-15.064 6.107.507 1.249zm.909-1.824-2.2-8.251 9.515 5.286z" fill="#fff" fill-opacity=".15" fill-rule="evenodd"/><path clip-rule="evenodd" d="m188.875 55.133 8.536 3.632-.528 1.24-8.692-3.697-5.47 9.405-6.032-15.764 10.935 4.652 8.172-14.05 1.166.677zm-1.934.643-7.858-3.343 3.89 10.166z" fill="#fff" fill-opacity=".15" fill-rule="evenodd" filter="url(#e)"/><path clip-rule="evenodd" d="m5.134 75.146a8.764 8.764 0 1 0 0-17.528 8.764 8.764 0 0 0 0 17.528zm0 1.348c5.585 0 10.112-4.527 10.112-10.112s-4.526-10.113-10.112-10.113-10.114 4.528-10.114 10.113 4.53 10.112 10.114 10.112z" fill="#fff" fill-opacity=".15" fill-rule="evenodd"/><path clip-rule="evenodd" d="m948.43 47.854-8.089-5.883 1.458-10.206 8.133-3.697 8.043 6.58-1.467 8.8zm6.856-5.276 1.23-7.38-6.789-5.556-6.698 3.045-1.239 8.67 6.743 4.905z" fill="#fff" fill-opacity=".15" fill-rule="evenodd" filter="url(#f)"/><path clip-rule="evenodd" d="m630.301 352.021-.301-1.314 22.21-5.077-11.012-8.566.827-1.064 13.257 10.311z" fill="#fff" fill-opacity=".15" fill-rule="evenodd" filter="url(#g)"/><path clip-rule="evenodd" d="m769.298 152.794-15.249-8.387 15.249-16.012zm-1.348-2.28v-18.748l-11.718 12.303z" fill="#fff" fill-opacity=".15" fill-rule="evenodd" filter="url(#h)"/><circle cx="1264.5" cy="4.494" r="11.657" stroke="#fff" stroke-opacity=".1" stroke-width="5"/><g fill="#fff"><path clip-rule="evenodd" d="m1446.18 486.83-3.9 8.911 1.3.566 3.83-8.759 5.89 3.433.71-1.221-6.03-3.516 5.49-12.552-1.29-.567-5.43 12.402-9.7-5.662-.72 1.221z" fill-opacity=".15" fill-rule="evenodd"/><path clip-rule="evenodd" d="m1185.63 377.942c5.07 0 9.19-4.113 9.19-9.188 0-5.074-4.12-9.187-9.19-9.187a9.186 9.186 0 0 0 -9.19 9.187 9.186 9.186 0 0 0 9.19 9.188zm0 1.413c5.85 0 10.6-4.746 10.6-10.601s-4.75-10.601-10.6-10.601c-5.86 0-10.6 4.746-10.6 10.601s4.74 10.601 10.6 10.601z" fill-opacity=".15" fill-rule="evenodd" filter="url(#i)"/><path clip-rule="evenodd" d="m1249.15 235.784 4.47-13.16-10.89 3.94-1.57-11.463 1.04-.583 1.44 10.494 11.6-4.198-4.5 13.247 12.05-3.766-.07 1.246z" fill-opacity=".15" fill-rule="evenodd" filter="url(#j)"/><path clip-rule="evenodd" d="m631.615 686.898 2.666 5.665-4.37 4.035-3.336-6.004zm-4.253 3.868 2.704 4.867 3.48-3.213-2.165-4.602z" fill-opacity=".15" fill-rule="evenodd" filter="url(#k)"/><path clip-rule="evenodd" d="m1608.47 221.921-.32-1.378 23.29-5.322-11.55-8.98.87-1.115 13.9 10.809z" fill-opacity=".15" fill-rule="evenodd" filter="url(#l)"/><path clip-rule="evenodd" d="m896.473 762.013h-19.799v-1.349h18.337l-1.371-16.909 1.344-.109z" fill-opacity=".15" fill-rule="evenodd" filter="url(#m)"/><path clip-rule="evenodd" d="m835.738 971.704-.523-10.994-1.347.065.43 9.028-13.368-4.456-.426 1.279z" fill-opacity=".15" fill-rule="evenodd" filter="url(#n)"/><path clip-rule="evenodd" d="m319.067 669.588 5.858 11.896 4.691-10.007 8.791 6.673-.308 1.094-8.048-6.108-4.998 10.661-5.896-11.974-5.588 10.668-.797-.884z" fill-opacity=".15" fill-rule="evenodd"/><path clip-rule="evenodd" d="m1132.2 801.491 4.64 8.028-1.16.676-4.74-8.174-10.02 4.239 4.64-16.229 5.95 10.284 14.97-6.333.53 1.241zm-1.94-.646-4.28-7.391-2.99 10.466z" fill-opacity=".15" fill-rule="evenodd" filter="url(#o)"/><path clip-rule="evenodd" d="m1558.21 1027.96 4.73 13.15 13.27-.53-4.21-15.75zm12.82-.61 3.41 11.95-10.56.42-3.85-10.68zm-503.67 9.89-8.03-4.65-.68 1.17 8.18 4.73-4.24 10.02 16.23-4.64-10.29-5.95 6.34-14.97-1.24-.53zm.65 1.93 7.39 4.28-10.47 2.99z" fill-opacity=".15" fill-rule="evenodd"/><path clip-rule="evenodd" d="m1359.15 1116.63-15.77 15.77 19.71 3.94zm-.83 2.74 3.05 15.25-15.25-3.05z" fill-opacity=".15" fill-rule="evenodd" filter="url(#p)"/><path clip-rule="evenodd" d="m1088.98 525.753-8.61 3.468-.5-1.251 8.76-3.531-2.78-10.519 15.41 6.881-11.02 4.444 4.16 15.714-1.31.345zm.91-1.822 7.92-3.193-9.94-4.437z" fill-opacity=".05" fill-rule="evenodd" filter="url(#q)"/><path clip-rule="evenodd" d="m1413.04 828.253-16.72 4.852-.54-22.105zm-2.57-.659-13.26-13.257.42 16.985z" fill-opacity=".15" fill-rule="evenodd" filter="url(#r)"/><path clip-rule="evenodd" d="m738.218 1114.46 9.88-1.56 6.185 8.25-3.137 8.37-10.34 1.03-5.184-7.26zm-1.118 8.58 4.35 6.09 8.728-.87 2.583-6.89-5.255-7.01-8.235 1.3z" fill-opacity=".15" fill-rule="evenodd"/><path clip-rule="evenodd" d="m99.644 1015.2-13.801-3.95 1.866 13.36-13.319 5.1-.411-1.33 12.192-3.76-1.988-15.29 13.892 3.97-1.395-15.978 1.391-.121z" fill-opacity=".15" fill-rule="evenodd" filter="url(#s)"/><path clip-rule="evenodd" d="m299.832 917.922-8.267-11.895-13.139 4.09 8.171 13.627zm-12.67 4.047-6.624-11.047 10.464-3.257 6.714 9.661z" fill-opacity=".15" fill-rule="evenodd" filter="url(#t)"/><path clip-rule="evenodd" d="m610.838 881.994 4.796-8.33 1.211.697-4.883 8.482 8.996 6.796-16.967 4.248 6.144-10.672-13.44-10.153.842-1.115zm.421 2.069-4.415 7.669 10.941-2.739z" fill-opacity=".12" fill-rule="evenodd" filter="url(#u)"/><path clip-rule="evenodd" d="m388.433 1083.61-9.47 4.21-8.403-6.6.896-9.21 10.072-3.81 7.137 5.88zm-1.182-8.89-5.986-4.93-8.503 3.22-.738 7.59 7.14 5.6 7.894-3.51z" fill-opacity=".15" fill-rule="evenodd" filter="url(#v)"/><path clip-rule="evenodd" d="m19.797 478.642-15.428 9.339-6.468-21.981zm-2.745.028-16.825-9.713 4.97 16.889z" fill-opacity=".15" fill-rule="evenodd"/><circle cx="954.464" cy="305.464" fill-opacity=".08" filter="url(#w)" r="4" transform="matrix(.5 -.8660254 .8660254 .5 212.692416 979.322071)"/><circle cx="1556.55" cy="113.084" fill-opacity=".08" filter="url(#x)" r="4" transform="matrix(.5 -.8660254 .8660254 .5 680.341383 1404.553842)"/><circle cx="1486.55" cy="633.084" fill-opacity=".08" filter="url(#y)" r="4" transform="matrix(.5 -.8660254 .8660254 .5 195.008173 1603.932064)"/><circle cx="1586.55" cy="893.084" fill-opacity=".08" filter="url(#z)" r="4" transform="matrix(.5 -.8660254 .8660254 .5 19.841568 1820.534604)"/><circle cx="446.545" cy="1013.08" fill-opacity=".08" filter="url(#A)" r="4" transform="matrix(.5 -.8660254 .8660254 .5 -654.080516 893.259314)"/></g></g></svg>