<svg fill="none" height="900" width="1680" xmlns="http://www.w3.org/2000/svg"><filter id="a" color-interpolation-filters="sRGB" filterUnits="userSpaceOnUse" height="761.6" width="1434.11" x="111.145" y="55"><feFlood flood-opacity="0" result="BackgroundImageFix"/><feBlend in="SourceGraphic" in2="BackgroundImageFix" result="shape"/><feGaussianBlur result="effect1_foregroundBlur" stdDeviation="2"/></filter><filter id="b" color-interpolation-filters="sRGB" filterUnits="userSpaceOnUse" height="536.236" width="496.211" x="877" y="183.04"><feFlood flood-opacity="0" result="BackgroundImageFix"/><feBlend in="SourceGraphic" in2="BackgroundImageFix" result="shape"/><feGaussianBlur result="effect1_foregroundBlur" stdDeviation="2"/></filter><filter id="c" color-interpolation-filters="sRGB" filterUnits="userSpaceOnUse" height="697.399" width="1394.82" x="94.448" y="6"><feFlood flood-opacity="0" result="BackgroundImageFix"/><feBlend in="SourceGraphic" in2="BackgroundImageFix" result="shape"/><feGaussianBlur result="effect1_foregroundBlur" stdDeviation="1"/></filter><filter id="d" color-interpolation-filters="sRGB" filterUnits="userSpaceOnUse" height="748.349" width="699.188" x="969" y="71"><feFlood flood-opacity="0" result="BackgroundImageFix"/><feBlend in="SourceGraphic" in2="BackgroundImageFix" result="shape"/><feGaussianBlur result="effect1_foregroundBlur" stdDeviation="1"/></filter><g clip-rule="evenodd" fill="#fff" fill-rule="evenodd"><path d="M193.448 272.001c5.523 0 10-4.477 10-10s-4.477-10-10-10-10 4.477-10 10 4.477 10 10 10zm0 2c6.627 0 12-5.373 12-12 0-6.628-5.373-12-12-12-6.628 0-12 5.372-12 12 0 6.627 5.372 12 12 12zM614.21 538.078l12.407 15.791-8.926 18.967-12.41-14.667zm.479 3.847l-7.071 15.91 9.589 11.333 7.075-15.034zM465.137 75.475l11.86 19.706-1.714 1.03-12.891-21.42 18.85-11.343 1.031 1.713zm-233.97 419.527h18.137l5.312 34h-14.949zm2.562 2l7.5 30h11.05l-4.687-30zM1525 39h18.14l5.31 34h-14.95zm2.56 2l7.5 30h11.05l-4.69-30zM30.205 272.248l10.982 12.08-1.48 1.346-9.018-9.921-9.347 18.695-1.79-.894zm669.328 475.353l14-32 1.833.802-14 32z"/><path d="M717.945 740.866l-24-14 1.008-1.728 24 14.001zM565.449 308.001c7.179 0 13-5.82 13-13s-5.821-13-13-13c-7.18 0-13 5.82-13 13s5.82 13 13 13zm0 2c8.284 0 15-6.716 15-15s-6.716-15-15-15c-8.285 0-15 6.716-15 15s6.715 15 15 15zM97.065 408.348l4.983 19.935 16.462-12.588 14.618 13.574-1.361 1.465-13.382-12.426-17.539 13.412-5.016-20.066-18.81 13.167-1.146-1.639zm603.323-149.822l20.767 20.767-1.414 1.414-19.234-19.233-16.297 19.174-1.524-1.295zM514.449 673.002v-23h2v25h-22.001v-2zM94.206 763.755l10.981-12.08-1.479-1.345-9.019 9.92-9.347-18.695-1.789.895zm766.791-217.001c-7.18 0-13 5.82-13 13s5.82 13 13 13 13-5.82 13-13-5.82-13-13-13zm0-2c-8.284 0-15 6.716-15 15s6.716 15 15 15 15-6.716 15-15-6.716-15-15-15zm342.063-49.382l-4.98-19.935-16.46 12.588-14.62-13.574 1.36-1.465 13.38 12.426L1199.28 472l5.02 20.066 18.8-13.167 1.15 1.639zm-77 290.857l-20.77-20.767 1.42-1.415 19.23 19.234 16.3-19.174 1.52 1.295zm507.38-179.542l20.73-20.798 1.42 1.412-19.21 19.262 19.2 16.269-1.29 1.526zM851.997 221.753v23h-2v-25h22v2zM1351.98 144L1341 156.08l1.48 1.345 9.02-9.92 9.34 18.695 1.79-.895zm-220 490L1121 646.08l1.48 1.345 9.02-9.92 9.34 18.695 1.79-.895zm266 175L1387 821.08l1.48 1.345 9.02-9.92 9.35 18.695 1.79-.895z"/><path d="M131.835 168.476l8.829 18.762-14.473 13.36-11.046-19.883zm-14.085 12.81l8.954 16.117 11.526-10.64-7.17-15.238zM1231.69 59l8.83 18.762-14.47 13.36L1215 71.24zm-14.09 12.81l8.96 16.117 11.53-10.64-7.18-15.238zm323.35 379.624l-18.45 9.473-13.85-14.003 19.49-11.727zm-13.29-13.634l-15.8 9.506 11.03 11.152 14.98-7.694zm.58-182.086l-18.21 9.525 16.1 13.045-9.76 17.397-1.74-.979 8.94-15.926-17.16-13.898 18.33-9.589-17.22-15.191 1.32-1.5zM427.836 780.478l8.83 18.762-14.474 13.36-11.046-19.883zm-14.085 12.809l8.954 16.118 11.527-10.64-7.171-15.238zm277.235-685.626l-9.534 11.308-14.945-3.242-4.605-12.427 10.518-11.123 13.08.94zm-6.906-12.64l-10.858-.78-9.013 9.53 3.793 10.233 12.697 2.755 8.001-9.49zM306.864 706.295L310.41 693l1.932.515-3.61 13.538 14.957 6.064-21.886 12.159 4.542-17.033L284 699.184l.751-1.853zm1.349 2.704l-3.264 12.24 14.113-7.841zM340.58 401h33.07l-16.535 24.803zm3.737 2l12.798 19.198L369.913 403zm399.37 28.205l-20.529-6.248.582-1.913 25.471 7.752-40.203 19.096 21.792 8.172-.702 1.873-26.208-9.828z" filter="url(#a)"/><path d="M1045.69 542.122l8.83-18.762-14.47-13.36-11.05 19.883zm-14.09-12.809l8.96-16.118 11.53 10.64-7.18 15.238zm25.67-312.028l-5.35-20.033-19.68-.879 4.38 22.319zm-19.03-.708l-3.55-18.093 15.67.7 4.35 16.271zm272.75 459.844l-9.54-11.307-14.94 3.242-4.61 12.426 10.52 11.123 13.08-.939zm-6.91 12.641l-10.86.781-9.01-9.531 3.79-10.234 12.7-2.754 8 9.49zM903.864 701.98l3.546 13.296 1.932-.516-3.61-13.537 14.957-6.064L898.803 683l4.542 17.033L881 709.091l.751 1.854zm1.349-2.705l-3.264-12.239 14.113 7.841zM895 431.803h33.07L911.535 407zm3.737-2l12.798-19.197 12.798 19.197zm464.953-76.926l-20.53 6.248.58 1.913 25.47-7.752-40.2-19.096 21.79-8.172-.7-1.873-26.21 9.828z" filter="url(#b)"/><path d="M163.524 610.821l11.999 8.726-2.163 15.139-12.064 5.484-11.93-9.761 2.175-13.052zm-10.17 7.826l-1.825 10.948 10.071 8.239 9.935-4.516 1.838-12.861-10.002-7.274zM280.165 95.314l12.662 5.387-.783 1.84-12.892-5.485-8.115 13.952-8.948-23.384 16.221 6.901 12.122-20.842 1.729 1.005zm-2.868.953L265.64 91.31l5.771 15.079zM1458.9 680.403l-8.34 10.946-1.59-1.212 8.49-11.145-11.52-11.3 24.87-2.915-10.69 14.023 17.22 16.88-1.4 1.428zm-.21-3.015l7.67-10.076-16.03 1.88zM523.055 478l.446 1.95-32.945 7.53 16.336 12.706-1.228 1.578L486 486.47zM401.448 228.309l22.62 12.441-22.62 23.751zm2 3.383v27.809l17.381-18.25zM111.448 36c7.179 0 13-5.82 13-13s-5.821-13-13-13c-7.18 0-13 5.82-13 13s5.82 13 13 13zm0 2c8.284 0 15-6.716 15-15s-6.716-15-15-15c-8.285 0-15 6.716-15 15s6.715 15 15 15z" filter="url(#c)"/><path d="M1278.6 227.349l-12-8.727 2.17-15.138 12.06-5.484 11.93 9.761-2.17 13.051zm10.17-7.826l1.83-10.948-10.07-8.24-9.94 4.516-1.83 12.862 10 7.274zm329.83 597.826l-12-8.727 2.17-15.138 12.06-5.484 11.93 9.761-2.17 13.051zm10.17-7.826l1.83-10.948-10.07-8.24-9.94 4.516-1.83 12.862 10 7.274zm-641.38-490.99l-12.662-5.386.783-1.841 12.892 5.485 8.114-13.952 8.953 23.384-16.225-6.901-12.122 20.843-1.729-1.006zm2.868-.953l11.652 4.959-5.766-15.079zm145.192 17.184l-.45-1.949 32.95-7.531-16.34-12.705 1.23-1.579 19.66 15.294zm-38.83-225.573L1074 96.751 1096.62 73zm-2-3.382V78l-17.38 18.25zm529.81 50.876l24.66-7.657 1.4 32.768zm3.83.906l20.02 19.295-1.08-25.178zM1360.68 532.17c-7.18 0-13 5.82-13 13 0 7.179 5.82 13 13 13s13-5.821 13-13c0-7.18-5.82-13-13-13zm0-2c-8.28 0-15 6.715-15 15 0 8.284 6.72 15 15 15s15-6.716 15-15c0-8.285-6.72-15-15-15z" filter="url(#d)"/><path d="M926.713 81.022l-3.971 21.088 1.966.37 4.926-26.164-35.545 26.787 2.85-23.099-1.985-.245-3.427 27.78z"/></g></svg>