<svg fill="none" height="120" width="120" xmlns="http://www.w3.org/2000/svg"><path clip-rule="evenodd" d="m41.558 27.153-2.387 27.08 27.44-16.908-24.924-10.12zm-21.994 31.794.186.267-.18.327.224.407-.226.466 16.787 29.703 2.571 4.683.427.779h40.507l.409-.746h.019l15.03-27.423 3.923-7.148.396-.721-.396-.722-18.954-34.538-.427-.778h-.892l-.001-.003h-38.725v.003h-.889l-.42.766h-.001zm59.576 31.708 13.546-24.684.6-1.095-4.679 3.489-14.357 10.725 4.888 11.565zm13.835-37.015-14.201-25.877-6.733 9.013 20.936 16.864zm-24.403-14-28.295 17.435 30.433 18.729-2.137-36.164zm26.89 19.857-8.652 6.464-13.1 9.768-2.095-35.443 23.848 19.21zm-48.612 32.953 24.754-11.826 4.972 11.852zm22.396-14.024-30.111-18.531 2.436 31.752zm-31.02 8.866-14.564-26.534 12.381-1.947 2.185 28.481zm-2.204-31.517 2.098-23.791-14.096 25.678zm39.949-29.272h-28.038l21.515 8.731z" fill="#fff" fill-rule="evenodd"/></svg>