<svg width="120" height="120" fill="none" xmlns="http://www.w3.org/2000/svg"><path fill-rule="evenodd" clip-rule="evenodd" d="M41.558 27.153l-2.387 27.08 27.44-16.908-24.924-10.12-.129-.052zM19.564 58.947l.186.267-.18.327.224.407-.226.466 16.787 29.703 2.571 4.683.427.779H79.86l.409-.746h.019l15.03-27.423 3.923-7.148.396-.721-.396-.722-18.954-34.538-.427-.778h-.892l-.001-.003H40.242v.003h-.889l-.42.766h-.001L19.564 58.947zM79.14 90.655l13.546-24.684.6-1.095-4.679 3.489L74.25 79.09l4.888 11.565zM92.975 53.64L78.774 27.763l-6.733 9.013L92.977 53.64zm-24.403-14L40.277 57.075 70.71 75.804 68.573 39.64zm26.89 19.857l-8.652 6.464-13.1 9.768-2.095-35.443 23.848 19.21zM46.85 92.45l24.754-11.826 4.972 11.852-29.726-.026zm22.396-14.024L39.135 59.895l2.436 31.752 27.675-13.221zm-31.02 8.866L23.662 60.758l12.381-1.947 2.185 28.481zm-2.204-31.517l2.098-23.791-14.096 25.678 11.998-1.887zm39.949-29.272H47.933l21.515 8.731 6.523-8.731z" fill="#fff"/></svg>