<svg fill="none" height="160" width="160" xmlns="http://www.w3.org/2000/svg"><filter id="a" color-interpolation-filters="sRGB" filterUnits="userSpaceOnUse" height="160" width="160" x="0" y="0"><feFlood flood-opacity="0" result="BackgroundImageFix"/><feColorMatrix in="SourceAlpha" values="0 0 0 0 0 0 0 0 0 0 0 0 0 0 0 0 0 0 127 0"/><feOffset dy="2"/><feGaussianBlur stdDeviation="10"/><feColorMatrix values="0 0 0 0 0 0 0 0 0 0 0 0 0 0 0 0 0 0 0.05 0"/><feBlend in2="BackgroundImageFix" result="effect1_dropShadow"/><feBlend in="SourceGraphic" in2="effect1_dropShadow" result="shape"/></filter><circle cx="80" cy="78" fill="#e4416f" filter="url(#a)" r="60"/><path clip-rule="evenodd" d="M72.619 101.384l19.055.016-3.188-7.597zM99.415 82.33l-8.822 6.578-1.415-23.939 16.107 12.975zm3.69.99L94.2 99.548l-3.077-7.279 10.084-7.533zm-.315-11.238L89.589 61.447l4.245-5.684zm-16.656-7.773l1.458 24.674-20.764-12.779L86.133 64.31zm22.923 14.401l-3.204 5.838-10.507 19.173-.014-.001-.414.755H65.123l-.427-.778-1.87-3.406-12.132-21.466.163-.338-.273-.498.24-.44-.134-.192 14.012-25.088.421-.767h.888V51.5h28.015l.002.002h.89l.427.778 13.712 24.987.396.722zM67.34 100.581l18.788-8.976-20.442-12.58zm-3.347-4.398L62.594 77.94l-7.93 1.248 9.33 16.995zM55.05 76.088l8.841-16.105-1.316 14.922zm35.983-21.586h-17.33L87 59.9l4.031-5.397zm-25.31 18.86l1.606-18.209 16.846 6.84z" fill="#fff" fill-rule="evenodd"/></svg>