<svg fill="none" height="250" width="300" xmlns="http://www.w3.org/2000/svg"><g fill="#c0cada"><path d="m149.978 62c-2.931.626-28.728 4.003-31.94 5.608-.74 1.482-2.287 6.105-2.777 6.837-2.073.446-10.475 2.044-11.003 2.35-.296.889-2.226 4.683-2.67 5.127-1.78.445-10.074 1.983-11.11 2.724-.591 3.555-2.85 39.128 11.964 62.385 14.813 23.256 40.722 38.736 47.536 40.218h.053c6.815-1.482 32.67-16.962 47.483-40.218 14.811-23.259 12.612-58.83 12.017-62.385-1.037-.742-9.333-2.28-11.109-2.724-.444-.444-2.373-4.238-2.671-5.127-.526-.306-8.926-1.906-11.002-2.35-.491-.732-2.036-5.355-2.778-6.837-3.201-1.6-29.021-4.97-31.993-5.608zm0 9.08c2.54.543 24.61 3.493 27.347 4.86.63 1.267 1.933 5.197 2.35 5.822 1.772.38 9.002 1.715 9.453 1.976.253.76 1.862 4.054 2.244 4.433 1.519.38 8.621 1.665 9.507 2.297.507 3.039 2.406 33.427-10.255 53.304-12.662 19.88-34.768 33.132-40.593 34.397h-.053c-5.825-1.265-27.931-14.519-40.592-34.397-12.66-19.877-10.761-50.265-10.255-53.304.887-.634 7.987-1.917 9.507-2.297.381-.379 1.99-3.674 2.243-4.433.451-.261 7.628-1.596 9.4-1.976.419-.625 1.772-4.555 2.404-5.822 2.743-1.372 24.787-4.327 27.293-4.86z"/><path d="m154.037 80.8c-.832.083-.956.665-.961.909-.171 28.45-.09 58.633-.321 87.861.188.925 1.663-.496 2.511-.961 10.791-5.933 44.451-38.532 25.103-50.207 14.815-9.687 12.175-18.933 5.608-23.981-13.577-10.445-29.068-13.038-30.872-13.514-.45-.118-.79-.134-1.068-.106zm9.027 11.698c.21-.115 8.913 3.112 13.673 6.356 5.457 3.719 3.61 7.293.427 9.453-1.728 1.178-12.421 8.858-14.207 9.294-.039-1.482-.047-18.191.107-25.103zm7.958 32.527c1.192.037 2.325.418 3.151 1.282.739.706 3.993 4.214-2.937 14.261-2.581 4.556-7.993 10.271-8.6 10.842-.073.021-.103-.092-.16-.053.057-3.266-.031-19.078.16-23.501.384-.2 4.809-2.941 8.386-2.831zm-53.774-33.98c-.887.38-8.443 5.191-9.204 5.95-.21 6.707 1.588 24.802 8.211 38.924.838 1.786 1.747 3.461 2.731 4.977 1.889 3.261 1.995 3.003 4.193-.119 1.523-2.06 3.719-5.114 4.269-5.743.759 2.531 5.666 18.32 12.568 27.863 3.059 4.233 7.758 8.233 7.739 6.585-.188-16.122-.65-85.91-.144-88.755-2.035-.048-8.713.822-10.034 1.508-.11 2.552.918 50.404.285 55.846-4.678-11.396-6.274-41.47-5.349-53.88-2.532.507-8.705 2.983-9.591 3.87-1.138 2.279.416 27.267 2.033 35.653-.552.87-2.144 3.232-2.397 3.612-3.203-5.762-6.264-23.574-5.31-36.29z"/></g></svg>