<svg width="300" height="250" fill="none" xmlns="http://www.w3.org/2000/svg"><path d="M148.928 130.85c.235.566.502 1.117.799 1.653a39.621 39.621 0 0 0-5.388 3.527c-.427-1.201.176-2.427.585-3.615.082-.239.176-.471.276-.698h.032c.17-.018.54-.037.71-.075.365-.075.83-.119.893-.591a1.615 1.615 0 0 0 0-.22c0-.585.421-2.892.572-3.728.377.874.805 1.861.93 2.219l.019.007c.176.509.365 1.018.572 1.521zm-16.357-19.928v-.006a48.975 48.975 0 0 1 3.992 5.972v-.05a.42.42 0 0 1 .27-.352.276.276 0 0 1 .302.157c.094.151.163.308.27.446.11.189.274.341.472.434.201.069.465.138.672.201l.547.163c.359.085.684.273.937.541.127.179.263.351.409.516.192.17.403.317.628.44a7.003 7.003 0 0 0 3.477.842 2.968 2.968 0 0 1 2.791-1.572c.861.036 1.668.43 2.225 1.088a9.18 9.18 0 0 0 4.702-2.747c.195-.195.459-.478.773-.755l-.691-.917h-1.088a2.473 2.473 0 0 1-.974-.202.901.901 0 0 1-.534-.628v-.472c0-.151-.258-.201-.333-.308a.324.324 0 0 1 0-.327s.113-.15.132-.138l-.044-.038c-.132-.1-.277-.195-.227-.389.051-.195.289-.214.164-.409a1.011 1.011 0 0 0-.176-.182.868.868 0 0 1-.384-.497c0-.32.541-.685.836-.968a.727.727 0 0 0 .264-.629 8.984 8.984 0 0 1-.151-.88v-.465a.967.967 0 0 1-.722.415c.312-.369.448-.856.37-1.333a1.59 1.59 0 0 1 .547-1.175c-.503-.258-.779.308-.798.295a1.378 1.378 0 0 1 1.565-1.339 1.439 1.439 0 0 1-.672-1.163c.162.211.379.372.628.465.285.098.581.157.88.176.303.006.605-.026.899-.094.403-.075.799-.163 1.201-.245a3.816 3.816 0 0 1 3.495.484.884.884 0 0 1-.17-.742c.088.245.271.346.472.572.472.386.965.745 1.477 1.075.363.343.626.777.761 1.258a.973.973 0 0 1 1.125.685c-.628-.396-.528.804-.522 1.081a6.325 6.325 0 0 1-.106 1.59 4.54 4.54 0 0 1-2.201 2.823c-.26.114-.479.305-.628.547a.34.34 0 0 0 0 .195c.113-.061.233-.107.358-.139.277-.075.987-.245 1.088.17.054.303.139.6.251.887.075.094.295.27.509.528.131.136.255.279.371.427.31.392.582.813.811 1.257.324.645.588 1.318.786 2.012.268.938.458 1.897.566 2.867.088.741.144 1.489.157 2.238v1.012a30.054 30.054 0 0 0 4.582-6.708 33.235 33.235 0 0 0 3.357-14.509c.145-19.217-14.597-36.385-38.032-32.242a37.098 37.098 0 0 0-12.114 4.532 31.861 31.861 0 0 0-10.152 9.279 46.265 46.265 0 0 0-3.602 6.192 74.27 74.27 0 0 1 12.076 7.16 60.665 60.665 0 0 1 12.126 11.598zm6.877 10.769v.031h-.502c.184.44.362.884.534 1.333a.488.488 0 0 1 .201-.289.922.922 0 0 1 1.018.176 3.679 3.679 0 0 0 2.653.666c.101-.365.195-.735.296-1.1a35.99 35.99 0 0 1-1.302-.402 8.576 8.576 0 0 0-1.527-.415 7.302 7.302 0 0 0-1.371 0zm10.574 36.787l-.006-.006c25.535.015 46.248-20.674 46.263-46.209.014-25.536-20.674-46.248-46.21-46.263a46.238 46.238 0 0 0-27.085 8.744s.082.063.29-.069a43.377 43.377 0 0 1 6.801-3.426 42.48 42.48 0 0 1 2.138-.823 43.254 43.254 0 0 1 21.901-1.95 40.035 40.035 0 0 1 8.349 2.421c7.839 3.231 14.779 8.945 18.859 16.451 4.444 8.21 5.909 18.287 3.501 27.352a36.724 36.724 0 0 1-7.757 14.459 40.862 40.862 0 0 1-13.472 10.209 40.194 40.194 0 0 1-16.872 3.847 14.55 14.55 0 0 0-.472 1.54c-.044.145-.056.296-.107.44-.144.39-.584.333-.93.327-.163 0-.44-.031-.629-.05a7.514 7.514 0 0 0-1.056 1.578v.056c-.44.956-.71 1.528-.39 2.333.107.284.144.59.107.892a1.138 1.138 0 0 1-.339.792 1.31 1.31 0 0 1-.861.189 4.417 4.417 0 0 0-1.779.314 20.54 20.54 0 0 1-2.094.993 2.621 2.621 0 0 1-2.175-.031c-.113-.069-.214-.163-.333-.22a1.156 1.156 0 0 0-.339-.069.957.957 0 0 1-.824-.528.68.68 0 0 1 .069-.566c.107-.189.296-.195.497-.17.141.027.284.044.427.051.258-.004.512-.06.748-.164a4.474 4.474 0 0 0 1.258-.874 36.52 36.52 0 0 1 1.181-1.031c.396-.333.629-.534.818-.71a7.976 7.976 0 0 0 1.534-1.961c.271-.57.496-1.161.672-1.767l-.226-.151c-.277-.207-.629-.433-.528-.836.082-.245.195-.484.302-.723-9.48-1.257-15.088-5.45-15.044-5.444a36.674 36.674 0 0 0 9.581.937.762.762 0 0 1-.164-.226.79.79 0 0 1-.069-.371.476.476 0 0 1 .157-.358.252.252 0 0 1 .076-.044.374.374 0 0 1 .188 0c.298.046.599.06.899.044a4.59 4.59 0 0 0 .629-.095l.327-.081.522-.164c.167-.066.328-.151.477-.251a6.19 6.19 0 0 0 1.088-.824 7.972 7.972 0 0 0 1.496-1.704c0-.037.057-.113.082-.175.327-.899.584-1.822.767-2.76l.107-.56-.057-.031c-.358-.226-.767-.541-.629-1.05.107-.327.164-.346.283-.666.12-.321.277-.95.403-1.44l.44-1.722a2.068 2.068 0 0 0-.629.157c-.503.22-.943.534-1.44.773.12.428.239.861.346 1.295a.628.628 0 0 1-.075.503.682.682 0 0 1-.421.308h-.158a.68.68 0 0 1-.628-.509 37.795 37.795 0 0 0-.44-1.603 1.047 1.047 0 0 1-.195-.22.724.724 0 0 1-.78-.572.837.837 0 0 1-.534-.862c-.189-.031-.302-.22-.377-.408-.201-.503.251-.88.628-1.031a.88.88 0 0 1 .189-.044 42.755 42.755 0 0 0-.792-1.949c-.522-.138-.572-.44-.566-.427-.465 0-.628-.541-.597-.566-.629-.05-.629-.836-.629-.836a.554.554 0 0 1-.415-.591c0-.157.176-.289.39-.396.132-.064.269-.119.409-.164a47.487 47.487 0 0 0-4.539-7.009 62.426 62.426 0 0 0-11.755-11.523 62.896 62.896 0 0 0-11.882-7.11 45.897 45.897 0 0 0-4.136 18.639v.503c0 25.536 20.701 46.236 46.236 46.236zm5.073-35.473c-.837.316-1.694.578-2.565.785a168.26 168.26 0 0 0 2.829 3.734l.629.692c.082-.573.133-1.15.151-1.729a5.991 5.991 0 0 0-1.013-3.451v-.031h-.031zM250 179.374c0 2.464-3.112 4.269-7.984 4.269h-.917a22.536 22.536 0 0 1-3.144-.283h-7.638c-1.175-1.283-4.4-4.218-6.663-6.4h-.063v3.206c-.069 2.188.245 2.395 2.445 2.515v.704H215.35a17.095 17.095 0 0 1-1.999-.076 5.907 5.907 0 0 1-3.439-1.659 19.634 19.634 0 0 1-2.515-3.294 1.53 1.53 0 0 0-1.307-.723h-.402v2.552c0 2.188.251 2.395 2.401 2.515v.716h-10.058v-.716c2.213-.145 2.464-.352 2.464-2.515v-3.709c-.107 4.206-4.702 7.116-10.737 7.116-6.425 0-10.586-3.231-10.586-6.915.001-.191.013-.382.037-.572-1.049 2.188-2.307 4.564-3.564 7.292h-3.35l-6.4-10.976h-.088l-5.834 10.976h-3.35l-6.463-12.491c-1.584.17-1.666.591-1.584 2.433l.321 6.802c.094 2.251.157 2.458 2.439 2.603v.628h-9.926v-.704c2.376-.119 2.47-.258 2.439-2.514l-.094-7.148h-.126l-6.255 10.391h-1.446l-5.941-9.681h-.062l-.22 4.508a14.494 14.494 0 0 0 .062 3.35c.126.748.824 1.019 2.886 1.119v.704h-13.459v-.704h.911c1.126-.1 1.188-.452.792-1.181l-1.1-2.031h-5.029l-.918 1.886c-.427.874-.396 1.226 1.006 1.326h.88v.704H95.513a8.593 8.593 0 0 1-3.885-.628c-1.804-.887-2.954-2.728-4.042-4.338a1.495 1.495 0 0 0-1.257-.729h-.396v2.439c0 2.163.245 2.389 2.357 2.515v.704h-9.687v-.704c2.175-.095 2.42-.321 2.42-2.515v-6.701c0-1.176-.075-1.804-.459-2.15a1.325 1.325 0 0 0-.547-.252 5.615 5.615 0 0 0-.83-.05h-.276c.527.818.815 1.768.83 2.741 0 6.758-8.292 9.631-18.432 9.631H50v-.874c3.2-.164 3.552-.497 3.552-3.432v-8.965c0-2.935-.352-3.124-3.206-3.287v-1.057h12.811c5.4 0 9.876.648 12.818 2.414a9.575 9.575 0 0 1 2.345 2.018h9.97c2.389 0 3.948.183 5.174.692 1.226.509 2.143 1.42 2.143 2.621 0 1.786-1.678 2.842-3.947 3.433.433.572 1.565 1.973 2.451 2.904 1.044 1.081 1.716 1.766 2.207 2.175.207.179.445.318.704.409.322.081.659.081.98 0 .912-.214 1.038-.742 1.038-2.289v-6.701c0-2.188-.245-2.452-2.32-2.571v-.673h14.647c.032.346.183 1.83.34 3.351l-1.364.063a3.554 3.554 0 0 0-1.113-1.962c-.484-.345-1.503-.465-3.143-.465h-.528c-1.195 0-1.258.101-1.258.811v3.873h1.553c2.659 0 2.754-.082 3.062-1.622h1.364v4.79h-1.421c-.308-1.804-.396-1.886-3.061-1.886h-1.547v3.269c0 1.056.069 1.609.629 1.791a7.64 7.64 0 0 0 2.169.183c1.238 0 3.004-.139 3.683-.629.273-.219.513-.478.711-.767l.201-.333 6.098-10.492 2.106-.283 2.074 3.835a478.218 478.218 0 0 0 3.772 6.883c.415.742.924 1.509 1.113 1.471.188-.037.22-.301.276-.515.261-1.169.431-2.357.509-3.552l.352-4.099c.246-2.558 0-2.904-2.514-3.042v-.673h7.462l5.551 8.04 4.853-8.046h6.468l-.534-1.044c-1.176-2.281-1.961-2.281-3.96-2.445v-.924h13.578v.924l-1.396.113c-1.609.164-1.741.296-1.219 1.421l4.124 9.096.088-.151 5.701-11.491h3.049l6.614 11.491.088.151c1.552-3.212 3.199-7.128 3.771-8.675.573-1.546.453-1.773-1.433-1.886l-1.653-.113v-.924h10.397v.924c-2.42.226-2.828.195-4.306 2.615-.094.157-.792 1.465-1.842 3.521 1.717-1.786 4.344-3.144 8.914-3.144 5.752 0 10.624 2.628 10.731 6.526v-2.848c0-2.188-.05-2.395-2.137-2.515l-.201-.679h9.888c2.433 0 4.023.126 5.268.629s2.181 1.477 2.181 2.659c0 1.76-1.716 2.804-4.023 3.389.459.559 1.616 2.087 2.515 3.011.49.503.968 1.012 1.446 1.521.408.52.975.891 1.615 1.056.484.088 1.157-.019 1.358-.541a5.791 5.791 0 0 0 .17-1.735v-6.833c0-2.187-.245-2.395-2.414-2.514v-.679h9.624v.679c-2.043.144-2.288.352-2.288 2.514v3.143a98.476 98.476 0 0 0 5.947-4.645c.434-.34.773-.906-.063-.968h-1.176v-.679h8.298v.817c-1.766.119-2.665.132-4.337 1.169-1.672 1.037-3.219 2.062-4.52 3.043 1.924 1.886 3.967 3.973 5.915 5.657a6.548 6.548 0 0 0 2.578 1.559l.421.095-.119-.39c-.239-.754-.535-1.603-.818-2.603l1.383-.264a6.54 6.54 0 0 0 5.576 3.32c1.654 0 2.911-.585 2.911-1.886 0-1.182-1.195-1.88-3.143-2.402l-.472-.138c-2.609-.742-5.5-1.804-5.5-3.948 0-2.263 2.608-4.105 7.543-4.105.969-.002 1.937.077 2.892.239.723.12 1.226.195 1.634.277.126.798.346 1.779.692 3.143l-1.383.138a4.44 4.44 0 0 0-4.275-2.678c-1.603 0-2.734.679-2.734 1.679 0 .999 1.194 1.603 3.237 2.162l.692.201-.032-.037c2.86.817 5.375 1.86 5.375 4.205zm-178.331-4.796c0-5.84-4.784-7.468-8.512-7.468a6.274 6.274 0 0 0-1.886.188c-.22.057-.264.679-.264 1.358v10.435c0 2.395.968 3.024 3.074 3.024l-.006.006c3.778 0 7.594-2.734 7.594-7.543zm18.708-.78c0-1.949-1.779-2.747-3.061-2.747-1.283 0-1.377.208-1.377 1.018v4.671h.428a5.255 5.255 0 0 0 2.294-.346 2.822 2.822 0 0 0 1.716-2.596zm28.829 4.338l-1.917-3.835h-.094l-1.886 3.835h3.897zm75.374-1.465c0-4.023-2.069-5.953-4.803-5.953-2.452 0-4.702 2.345-4.702 5.852 0 2.647 1.546 5.828 4.689 5.828l.007.006c2.734 0 4.809-2.892 4.809-5.733zm15.596-2.892c0-1.923-1.836-2.785-3.143-2.785-1.308 0-1.402.208-1.402 1.006v4.684h.44a5.532 5.532 0 0 0 2.339-.34h.018a2.783 2.783 0 0 0 1.748-2.565z" fill="#C0CADA"/></svg>