<svg width="300" height="250" fill="none" xmlns="http://www.w3.org/2000/svg"><path fill-rule="evenodd" clip-rule="evenodd" d="M119.347 158.178h2.102V91h-2.102v67.178zm-57.1-26.066l47.527-.059s-1.323-21.926-23.583-21.926c-19.458.001-23.943 16.037-23.943 21.985zm50.017 2.39l-50.045-.058c0 10.876 6.628 22.84 24.438 22.84 20.704 0 22.65-16.25 22.65-16.25h2.29S110.59 159.5 86.541 159.5C68.048 159.5 60 147.487 60 134.152v-2.084c0-8.101 5.332-23.924 26.424-23.924 25.14.001 25.84 23.638 25.84 26.358zm27.738-2.39l47.526-.059s-1.322-21.926-23.583-21.926c-19.458.001-23.943 16.037-23.943 21.985zm50.016 2.39l-50.046-.058c0 10.876 6.63 22.84 24.44 22.84 20.704 0 22.649-16.25 22.649-16.25h2.291s-1.007 18.466-25.057 18.466c-18.492 0-26.541-12.013-26.541-25.348v-2.084c0-8.101 5.332-23.924 26.424-23.924 25.139.001 25.84 23.638 25.84 26.358zm50.689 23.676v-32.5c0-6.804-4.144-17.533-21.423-17.533-18.038 0-22.026 12.499-22.026 12.499v-10.867h-2.062v48.557h2.062s-.091-28.012 0-31.587c.077-3.033 4.552-16.659 22.221-16.659 20.859 0 19.185 17.766 19.185 17.766v30.324h2.043zm-107.584 0h-2.101V91h2.101v67.178z" fill="#C0CADA"/><path d="M121.449 158.178v.5h.5v-.5h-.5zm-2.102 0h-.5v.5h.5v-.5zM121.449 91h.5v-.5h-.5v.5zm-2.102 0v-.5h-.5v.5h.5zm-9.573 41.053v.5h.531l-.032-.53-.499.03zm-47.526.059h-.5v.501l.5-.001v-.5zm23.943-21.985v-.5.5zm-23.973 24.317l.001-.5h-.5v.5h.5zm50.046.058l-.001.5.501.001v-.501h-.5zm-2.957 6.532v-.5h-.444l-.053.441.497.059zm2.29 0l.5.027.029-.527h-.529v.5zm-25.173-32.89v-.5.5zm101.104 23.909l.001.5h.53l-.032-.53-.499.03zm-47.526.059h-.5v.501l.5-.001v-.5zm23.943-21.985v-.5.5zm-23.973 24.317l.001-.5h-.501v.5h.5zm50.046.058l-.001.5.501.001v-.501h-.5zm-2.957 6.532v-.5h-.443l-.053.441.496.059zm2.291 0l.499.027.029-.527h-.528v.5zm-25.174-32.89v-.5.5zm76.529 50.034v.5h.5v-.5h-.5zm-43.449-37.534h-.5l.976.152-.476-.152zm0-10.867h.5v-.5h-.5v.5zm-2.062 0v-.5h-.5v.5h.5zm0 48.557h-.5v.5h.5v-.5zm2.062 0v.5h.501l-.001-.502-.5.002zm0-31.587l.499.012-.499-.012zm41.406 1.107l-.498-.046-.002.023v.023h.5zm0 30.324h-.5v.5h.5v-.5zm-107.642 0h-.5v.5h.5v-.5zm2.101 0v.5h.5v-.5h-.5zM131.022 91v-.5h-.5v.5h.5zm2.101 0h.5v-.5h-.5v.5zm-11.674 66.678h-2.102v1h2.102v-1zm-.5-66.678v67.178h1V91h-1zm-1.602.5h2.102v-1h-2.102v1zm.5 66.678V91h-1v67.178h1zm-10.074-26.625l-47.526.059.001 1 47.526-.059-.001-1zm-23.582-20.926c10.923 0 16.665 5.36 19.704 10.71 1.526 2.687 2.372 5.379 2.837 7.402.232 1.011.368 1.852.446 2.438a16.344 16.344 0 0 1 .096.894V132.084l.5-.031.499-.031v-.001l-.001-.004-.001-.014-.003-.051-.017-.192a19.247 19.247 0 0 0-.082-.715 27.916 27.916 0 0 0-.463-2.53c-.479-2.088-1.354-4.877-2.942-7.672-3.187-5.613-9.236-11.216-20.573-11.216v1zm-23.443 21.485c0-2.881 1.094-8.269 4.575-12.923 3.46-4.629 9.3-8.562 18.868-8.562v-1c-9.89 0-16.023 4.086-19.669 8.963-3.627 4.85-4.774 10.455-4.774 13.522h1zm-.53 2.832l50.045.058.001-1-50.045-.058-.001 1zm24.44 21.84c-8.785 0-14.751-2.945-18.526-7.174-3.785-4.241-5.414-9.823-5.414-15.166h-1c0 5.533 1.686 11.37 5.668 15.831 3.992 4.473 10.246 7.509 19.272 7.509v-1zm22.649-15.75l-.497-.06v.001l-.001.006-.004.03a9.508 9.508 0 0 1-.112.618c-.09.428-.242 1.045-.488 1.787a18.997 18.997 0 0 1-2.858 5.441c-2.978 3.936-8.491 7.927-18.69 7.927v1c10.506 0 16.317-4.133 19.488-8.323a20.019 20.019 0 0 0 3.009-5.73c.259-.782.421-1.435.518-1.896.048-.23.081-.412.101-.538l.023-.147.005-.04.002-.011v-.004-.001l-.496-.06zm2.29-.5h-2.29v1h2.29v-1zM86.541 160c12.175 0 18.597-4.686 21.955-9.445a20.788 20.788 0 0 0 3.051-6.505c.241-.887.378-1.628.455-2.15a13.36 13.36 0 0 0 .09-.775l.004-.045v-.013l.001-.004v-.001l-.5-.028-.499-.028V141.015a17.734 17.734 0 0 1-.516 2.773 19.786 19.786 0 0 1-2.903 6.191c-3.157 4.474-9.264 9.021-21.138 9.021v1zM59.5 134.152c0 6.765 2.042 13.233 6.469 18.014C70.403 156.956 77.18 160 86.54 160v-1c-9.132 0-15.625-2.962-19.838-7.513-4.22-4.558-6.203-10.764-6.203-17.335h-1zm0-2.084v2.084h1v-2.084h-1zm26.924-24.424c-10.688 0-17.442 4.017-21.512 9.112-4.054 5.073-5.412 11.171-5.412 15.312h1c0-3.96 1.307-9.824 5.193-14.688 3.868-4.842 10.327-8.736 20.73-8.736v-1zm26.34 26.858c0-1.387-.176-8.075-3.551-14.433-1.692-3.187-4.191-6.299-7.88-8.612-3.69-2.315-8.543-3.813-14.91-3.813v1c6.204 0 10.867 1.457 14.379 3.66 3.513 2.203 5.902 5.171 7.528 8.234 3.26 6.141 3.434 12.631 3.434 13.964h1zm74.763-2.949l-47.526.059.001 1 47.527-.059-.002-1zm-23.582-20.926c10.923 0 16.666 5.36 19.704 10.71 1.527 2.687 2.373 5.379 2.837 7.402.232 1.011.368 1.852.446 2.438a18.783 18.783 0 0 1 .093.851l.003.043.001.01v.003l.499-.031.499-.031v-.001-.004l-.001-.014-.004-.051-.016-.192a19.696 19.696 0 0 0-.083-.715 27.502 27.502 0 0 0-.462-2.53c-.479-2.088-1.355-4.877-2.942-7.672-3.188-5.613-9.237-11.216-20.574-11.216v1zm-23.443 21.485c0-2.881 1.095-8.269 4.575-12.923 3.461-4.629 9.3-8.562 18.868-8.562v-1c-9.889 0-16.023 4.086-19.669 8.963-3.627 4.85-4.774 10.455-4.774 13.522h1zm-.53 2.832l50.045.058.001-1-50.045-.058-.001 1zm24.44 21.84c-8.785 0-14.751-2.945-18.526-7.174-3.785-4.241-5.414-9.823-5.414-15.166h-1c0 5.533 1.686 11.37 5.668 15.831 3.993 4.473 10.246 7.509 19.272 7.509v-1zm22.649-15.75l-.496-.06v.001l-.001.006-.004.03-.019.125c-.018.112-.048.279-.093.493-.09.428-.243 1.045-.489 1.787a18.99 18.99 0 0 1-2.857 5.441c-2.978 3.936-8.492 7.927-18.69 7.927v1c10.505 0 16.316-4.133 19.487-8.323a19.993 19.993 0 0 0 3.009-5.73c.26-.782.421-1.435.518-1.896.049-.23.081-.412.102-.538l.022-.147.006-.04.001-.011v-.004l.001-.001-.497-.06zm2.291-.5h-2.291v1h2.291v-1zM164.295 160c12.176 0 18.597-4.686 21.956-9.445a20.782 20.782 0 0 0 3.05-6.505c.241-.887.378-1.628.455-2.15a12.062 12.062 0 0 0 .094-.82l.001-.013v-.004-.001l-.499-.028-.499-.028v.002l-.001.007-.002.034-.013.144c-.012.127-.034.318-.07.561-.072.488-.201 1.19-.431 2.034a19.757 19.757 0 0 1-2.902 6.191c-3.157 4.474-9.264 9.021-21.139 9.021v1zm-27.041-25.848c0 6.765 2.042 13.233 6.469 18.014 4.434 4.79 11.212 7.834 20.572 7.834v-1c-9.132 0-15.625-2.962-19.838-7.513-4.22-4.558-6.203-10.764-6.203-17.335h-1zm0-2.084v2.084h1v-2.084h-1zm26.924-24.424c-10.688 0-17.441 4.017-21.512 9.112-4.053 5.073-5.412 11.171-5.412 15.312h1c0-3.96 1.308-9.824 5.193-14.688 3.869-4.842 10.327-8.736 20.731-8.736v-1zm26.34 26.858c0-1.387-.176-8.075-3.551-14.433-1.692-3.187-4.191-6.299-7.88-8.612-3.691-2.315-8.543-3.813-14.909-3.813v1c6.204 0 10.866 1.457 14.378 3.66 3.512 2.203 5.902 5.171 7.528 8.234 3.26 6.141 3.434 12.632 3.434 13.964h1zm49.689-8.824v32.5h1v-32.5h-1zm-20.923-17.033c8.53 0 13.739 2.644 16.82 6.05 3.093 3.419 4.103 7.672 4.103 10.983h1c0-3.493-1.062-8.007-4.361-11.653-3.31-3.66-8.813-6.38-17.562-6.38v1zm-22.026 11.999l.476.152.001-.005.008-.021a5.427 5.427 0 0 1 .182-.469c.138-.327.356-.798.674-1.366a18.096 18.096 0 0 1 3.254-4.18c3.159-3.036 8.541-6.11 17.431-6.11v-1c-9.148 0-14.779 3.174-18.124 6.389a19.147 19.147 0 0 0-3.434 4.412 14.898 14.898 0 0 0-.722 1.466c-.076.179-.13.32-.167.419l-.04.115a.31.31 0 0 0-.011.032l-.003.009-.001.003v.001c-.001 0-.001.001.476.153zm-.5-10.867v10.867h1v-10.867h-1zm-1.562.5h2.062v-1h-2.062v1zm.5 48.057v-48.557h-1v48.557h1zm1.562-.5h-2.062v1h2.062v-1zm-.5-31.1c-.046 1.797-.046 9.703-.035 17.148.006 3.725.015 7.338.022 10.021l.009 3.222.003.895v.235l.001.06v.02l.5-.001.5-.002v-.001-.004-.015l-.001-.06v-.235a432.48 432.48 0 0 1-.003-.895l-.009-3.222c-.007-2.682-.016-6.295-.022-10.02-.011-7.455-.011-15.342.034-17.121l-.999-.025zm22.721-17.146c-8.981 0-14.652 3.471-18.083 7.362a20.744 20.744 0 0 0-3.58 5.723c-.721 1.738-1.037 3.221-1.058 4.061l.999.025c.018-.676.29-2.033.983-3.703a19.713 19.713 0 0 1 3.407-5.445c3.244-3.68 8.644-7.023 17.332-7.023v-1zm19.185 18.266l.498.047v-.002l.001-.003.001-.012.003-.043.01-.159c.008-.137.016-.335.018-.586a18.454 18.454 0 0 0-.098-2.068c-.173-1.705-.627-3.988-1.755-6.278-1.131-2.294-2.938-4.593-5.809-6.315-2.868-1.721-6.768-2.847-12.054-2.847v1c5.143 0 8.856 1.095 11.54 2.705 2.682 1.609 4.368 3.752 5.426 5.899 1.061 2.153 1.492 4.311 1.657 5.937.083.812.098 1.487.093 1.957-.002.235-.01.418-.016.541l-.009.139a.489.489 0 0 1-.003.033v.008l-.001.001.498.046zm.5 30.324v-30.324h-1v30.324h1zm1.543-.5h-2.043v1h2.043v-1zm-109.685 1h2.101v-1h-2.101v1zm-.5-67.678v67.178h1V91h-1zm2.601-.5h-2.101v1h2.101v-1zm.5 67.678V91h-1v67.178h1z" fill="#C0CADA"/></svg>