<svg width="300" height="250" fill="none" xmlns="http://www.w3.org/2000/svg"><path clip-rule="evenodd" d="M187.271 81l-8.842 36.066 82.763-10.304-12.542 13.889-9.845 34.265-118.736 14.768c-22.178 2.652-17.461-14.768-17.461-14.768l1.395-7.031 3.143-.703c-2.093-5.627.35-10.2.35-10.2l-15.366 1.76c-9.78 1.054-12.923-1.408-12.923-1.408-3.84 3.867-13.967 4.572-13.967 4.572l-23.747 2.812 8.03-32.704L38 99.357 187.271 81z" stroke="#C0CADA" stroke-width="3"/><path fill-rule="evenodd" clip-rule="evenodd" d="M75.813 103.485c2.306-.282 4.218.133 5.618 1.352 1.425 1.216 1.855 2.824 1.37 4.707l-.414 1.606c-.509 1.977-1.616 3.632-3.312 4.946-.92.702-2.014 1.305-3.264 1.793.974.23 1.773.655 2.355 1.313 1.124 1.279 1.41 2.856.947 4.664l-.413 1.599c-.481 1.873-1.738 3.557-3.702 5.066-1.964 1.511-4.099 2.424-6.39 2.702l-16.876 2.08 6.34-25.568-3.55-3.603 21.29-2.657zm-4.55 12.076c.872-.664 1.371-1.369 1.56-2.093l.82-3.187c.184-.714.011-1.203-.43-1.565-.44-.375-1.078-.559-2.03-.442l-3.532.438-2.157 8.372 3.072-.374c.947-.12 1.844-.493 2.697-1.149zm-3.274 12.72c.879-.674 1.371-1.371 1.556-2.079l.821-3.191c.431-1.673-.157-2.306-2.45-2.022l-3.535.435-2.157 8.374 3.07-.374c.947-.12 1.844-.486 2.695-1.143zm42.145-26.919c1.423 1.225 1.851 2.827 1.365 4.708l-4.107 15.926c-.483 1.87-1.739 3.561-3.703 5.066-1.958 1.51-4.089 2.418-6.395 2.698l-7.943.979c-2.305.284-4.223-.128-5.642-1.325-1.41-1.227-1.83-2.84-1.34-4.734l4.107-15.92c.49-1.886 1.734-3.569 3.684-5.064 1.97-1.507 4.109-2.42 6.416-2.706l7.944-.977c2.306-.282 4.21.132 5.614 1.349zm-18.195 24.155c.435.374 1.071.554 2.041.432.963-.118 1.865-.486 2.716-1.147.864-.668 1.353-1.359 1.536-2.077l4.11-15.918c.184-.713.009-1.2-.432-1.564-.437-.376-1.078-.556-2.026-.444-.948.12-1.85.488-2.725 1.149-.853.656-1.344 1.349-1.53 2.077l-4.108 15.923c-.179.7-.016 1.189.418 1.569zm34.905-28.154l-7.692 29.805-9.257 1.141 6.61-25.614-3.513-3.627 13.852-1.705zm17.308 4.447c.173-1.785-.523-2.33-2.207-2.123-1.307.166-2.307.526-3.045 1.062-.71.531-1.201 1.258-1.449 2.228-.161.623-.014 1.135.447 1.599l6.455 6.536c1.327 1.339 1.759 2.924 1.304 4.697l-.416 1.608c-.481 1.871-1.731 3.554-3.683 5.058-1.955 1.513-4.093 2.421-6.415 2.708l-3.976.49c-2.675.329-4.781.074-6.061-1.004-1.278-1.115-1.477-2.885-.916-5.055l.097-.384 5.369-.661-.268.826c-.07.211-.119.378-.151.493-.181.705.024 1.019.412 1.211.58.281 1.292.383 2.182.273 1.326-.164 2.27-.529 2.908-1.047.646-.536 1.106-1.259 1.354-2.216.165-.636.014-1.149-.441-1.597l-6.461-6.519c-1.334-1.331-1.767-2.916-1.306-4.702l.414-1.603c.483-1.867 1.731-3.555 3.681-5.062 1.954-1.508 4.097-2.42 6.419-2.702l3.97-.489c5.337-.66 7.828 1.42 6.987 6.021l-.075.418-5.197.635.068-.699zM176.85 91.2l-1.121 4.358-11.893 1.462-2.163 8.377 7.943-.976-1.12 4.339-7.944.978-2.157 8.375 11.89-1.463-1.125 4.356-21.15 2.602 6.58-25.505-3.483-3.734 25.743-3.17zm11.976 37.159l8.152-1.005-6.759 25.472 9.555-1.176 6.759-25.48 8.15-1.003 1.155-4.364-25.858 3.191-1.154 4.365zm-23.963.631c-2.005 1.507-3.288 3.198-3.787 5.078l-6.122 23.096 9.528-1.175 3.379-12.752 6.795-.837-3.378 12.745 9.53-1.173 6.019-22.688c.497-1.884.057-3.489-1.407-4.706-1.443-1.209-3.409-1.618-5.778-1.327l-8.175 1.013c-2.373.292-4.578 1.213-6.604 2.726zm12.54 3.066l-1.592 6.001-6.799.839 1.486-5.597c.192-.729.699-1.423 1.573-2.082.897-.66 1.829-1.036 2.804-1.157.977-.117 1.633.061 2.081.431.457.366.634.851.447 1.565zm-34.205 1.916l-6.759 25.477 9.556-1.182 6.754-25.474 7.075-1.017 1.153-4.224-34.992 4.324c-2.39.296-4.592 1.219-6.604 2.732-2.006 1.515-3.286 3.205-3.783 5.08l-.431 1.603c-.471 1.788-.028 3.375 1.346 4.696l6.651 6.491c.467.451.622.967.453 1.601-.252.953-.725 1.682-1.393 2.214-.652.524-1.63.889-2.996 1.061-.915.114-1.642.016-2.242-.264-.4-.186-.608-.505-.421-1.207.031-.116.081-.282.154-.493l.275-.828-5.524.684-.102.382c-.576 2.176-.373 3.942.946 5.049 1.314 1.073 3.483 1.323 6.238.982l4.091-.508c2.388-.296 4.588-1.211 6.6-2.732 2.008-1.509 3.292-3.202 3.787-5.078l.425-1.601c.473-1.774.026-3.359-1.34-4.696l-6.643-6.511c-.473-.461-.624-.971-.457-1.596.257-.968.761-1.699 1.493-2.233.759-.543 1.789-.909 3.134-1.075l13.556-1.657zm97.198-16.191l-21.769 2.688-7.913 29.842 21.769-2.69 1.157-4.364-12.239 1.513 2.222-8.388 12.241-1.512 1.147-4.341-12.235 1.513 2.226-8.391 12.237-1.511 1.157-4.359zm6.926 39.505h-1.849v4.968h-1.168v-4.968h-1.853v-.867h4.868v.867h.002zm4.517 3.304l1.52-4.171h1.611v5.835h-1.056v-4.812l-1.785 4.812h-.594l-1.875-4.812v4.812h-1.058v-5.835h1.613l1.624 4.171z" fill="#C0CADA"/></svg>