<svg fill="none" height="30" width="30" xmlns="http://www.w3.org/2000/svg"><path clip-rule="evenodd" d="M15 30c8.284 0 15-6.716 15-15 0-8.284-6.716-15-15-15C6.716 0 0 6.716 0 15c0 8.284 6.716 15 15 15zM11.29 6.054C12.25 6.01 12.555 6 15 6s2.75.01 3.71.054c.959.044 1.613.196 2.185.419.592.23 1.094.537 1.594 1.038.5.5.808 1.002 1.038 1.594.223.572.375 1.226.419 2.184.044.96.054 1.267.054 3.711s-.01 2.75-.054 3.71c-.044.959-.196 1.613-.419 2.185a4.412 4.412 0 0 1-1.038 1.594c-.5.5-1.002.808-1.594 1.038-.572.223-1.226.375-2.184.419-.96.044-1.267.054-3.711.054s-2.75-.01-3.71-.054c-.959-.044-1.613-.196-2.185-.419A4.412 4.412 0 0 1 7.51 22.49c-.5-.5-.809-1.002-1.039-1.594-.222-.572-.374-1.226-.418-2.184C6.01 17.75 6 17.444 6 15s.01-2.75.054-3.71c.044-.959.196-1.613.418-2.185A4.412 4.412 0 0 1 7.511 7.51c.5-.5 1.002-.808 1.594-1.038.572-.223 1.226-.375 2.184-.419zm7.347 1.62c-.95-.043-1.234-.052-3.637-.052s-2.688.009-3.637.052c-.877.04-1.354.187-1.67.31-.421.163-.72.358-1.036.673-.315.315-.51.615-.673 1.035-.123.317-.27.794-.31 1.671-.043.95-.052 1.234-.052 3.637s.009 2.688.052 3.637c.04.877.187 1.354.31 1.67.163.421.358.72.673 1.036.315.315.615.51 1.035.673.317.123.794.27 1.671.31.95.043 1.234.052 3.637.052s2.688-.009 3.637-.052c.877-.04 1.354-.187 1.67-.31.421-.163.72-.358 1.036-.673.315-.315.51-.615.673-1.035.123-.317.27-.794.31-1.671.043-.95.052-1.234.052-3.637s-.009-2.688-.052-3.637c-.04-.877-.187-1.354-.31-1.67-.163-.421-.358-.72-.673-1.036s-.615-.51-1.035-.673c-.317-.123-.794-.27-1.671-.31zM12 15.001a3 3 0 1 0 6 0 3 3 0 0 0-6 0zm-1.622 0a4.622 4.622 0 1 1 9.244 0 4.622 4.622 0 0 1-9.244 0zm10.506-4.791a1.08 1.08 0 1 1-2.16 0 1.08 1.08 0 0 1 2.16 0z" fill="#e4416f" fill-rule="evenodd"/></svg>