<svg width="300" height="250" fill="none" xmlns="http://www.w3.org/2000/svg"><path fill-rule="evenodd" clip-rule="evenodd" d="M210.634 83l2.019 1.208h.001a727.022 727.022 0 0 1 5.741 3.456c-.013 4.067-.01 8.137-.008 12.208v.001l.002 4.946a110.301 110.301 0 0 0-7.743 9.542c-.019-6.699-.016-13.402-.013-20.105.002-3.752.004-7.504.001-11.256zm-81.986.048c-15.546-.018-31.085-.012-46.63-.006 0 28.059 0 56.113-.018 84.173h.042c15.944.006 31.9.012 47.85 0-.006-7.847-.012-15.705 0-23.551 2.101 1.76 4.2 3.525 6.299 5.291 2.8 2.354 5.602 4.71 8.409 7.057 2.169-1.821 4.338-3.645 6.508-5.47l.012-.01.003-.003c2.727-2.294 5.455-4.588 8.185-6.877.012 7.846.018 15.699-.006 23.545 1.644.03 3.285.027 4.927.023h.001c.94-.002 1.88-.003 2.821.001-.147-3.122-.129-6.238-.112-9.358v-.001l.004-.614c.089-2.59.233-5.178.377-7.766v-.001l.001-.001c.25-4.492.499-8.983.465-13.484-.009-.458-.003-.923.003-1.389.022-1.698.044-3.424-.655-4.988-.377-.907-1.508-1.296-2.405-.962-1.181.368-2.209 1.079-3.217 1.776l-.362.249-.305.218h-.001c-1.98 1.414-3.958 2.826-5.892 4.302-.221.164-.44.331-.661.498-1.416 1.074-2.86 2.169-4.563 2.727-1.508.531-3.309.292-4.488-.83-1.37-1.171-2.34-3.189-1.52-4.944.85-1.791 2.901-2.392 4.663-2.909l.04-.012c2.349-.678 4.438-1.939 6.516-3.194.5-.302 1-.603 1.502-.896 1.428-.853 2.865-1.69 4.302-2.528 1.099-.64 2.197-1.28 3.291-1.927.599-.334 1.149-.836 1.287-1.54.089-.47.073-.954.057-1.437-.022-.69-.045-1.38.236-2.033.407-1.009 1.347-1.701 2.364-2.03 1.867-.585 3.943-.287 5.673.615a191.283 191.283 0 0 0 6.755-4.007c.78-.496 1.44-1.148 2.101-1.801.849-.839 1.698-1.677 2.799-2.181 2.388-1.004 5.35.232 6.474 2.514.533 1.229-.155 2.543-1.041 3.403-1.224 1.177-2.686 2.036-4.143 2.893-.451.265-.901.53-1.344.804-1.284.783-2.59 1.529-3.896 2.275-1.529.873-3.058 1.746-4.552 2.68.17 1.899.148 3.805.127 5.71-.021 1.845-.041 3.69.112 5.529.09 1.574.217 3.146.345 4.717.263 3.236.525 6.469.456 9.721.024 2.145-.025 4.282-.074 6.421v.002a350.124 350.124 0 0 0-.069 3.555c-.18 3.41.108 6.832.503 10.224 4.867-.003 9.734-.003 14.601-.003h.037c4.879 0 9.757 0 14.633-.004-.004-3.661-.002-7.323.001-10.986v-.001c.004-5.464.009-10.929-.013-16.391-1.51 3.657-2.68 7.445-3.847 11.223l-.001.003-.001.002-.001.003-.464 1.499c-.166.526-.318 1.057-.471 1.59-.455 1.592-.912 3.189-1.755 4.621-.605 1.045-1.651 1.851-2.866 2.036-1.4.203-2.896.209-4.218-.346-1.539-.675-2.418-2.221-2.975-3.72-.947-2.488-1.9-4.978-2.852-7.467l-.002-.006-.002-.005-.002-.005-.002-.006a4013.829 4013.829 0 0 1-3.853-10.097c-1.125-3.111-2.226-6.246-2.842-9.5-.353-1.858-.365-3.894.616-5.572.755-1.355 2.161-2.245 3.656-2.573 1.628-.395 3.543-.275 4.793.943 1.335 1.343 1.73 3.272 2.077 5.057.493 2.973.835 5.972 1.176 8.964l.182 1.588c.031.222.052.447.074.672v.001c.068.699.136 1.404.47 2.032.335.657 1.251.77 1.873.507.652-.41.961-1.145 1.249-1.834l.031-.073.042-.1.03-.071c2.526-6.974 5.889-13.626 9.766-19.95.177-.337.161-.719.146-1.096-.007-.171-.014-.34-.003-.504-.006-6.596-.005-13.188-.005-19.78.001-4.944.002-9.886-.001-14.83-15.623-.006-31.257-.006-46.887 0a1992.58 1992.58 0 0 1-7.142 7.51c-2.949 3.09-5.898 6.18-8.822 9.293a4134.197 4134.197 0 0 1-15.982-16.797zm12.05 3.355h-.001c-2.551-1.121-5.103-2.241-7.663-3.35a764.062 764.062 0 0 0 7.125 7.531l.001.001c1.489 1.56 2.977 3.12 4.457 4.686.716-.786 1.451-1.553 2.185-2.319.711-.74 1.421-1.48 2.112-2.237a12.86 12.86 0 0 1-.388-.402c-.392-.42-.788-.842-1.329-1.067-2.169-.942-4.333-1.893-6.497-2.843h-.002zm77.679 34.038c-2.669 3.6-5.038 7.428-7.156 11.375l-.09.171c-.276.52-.562 1.059-.509 1.656.007 6.426.006 12.851.005 19.276v.001c-.001 4.764-.001 9.527.001 14.288 2.585.006 5.17.006 7.755 0-.003-6.565-.002-13.131-.001-19.698v-.095c.001-8.991.002-17.982-.005-26.974zm-85.32 30.006c.839.694 1.672 1.397 2.505 2.101h.001a214.88 214.88 0 0 0 3.909 3.249c.028 2.531.024 5.062.02 7.595v.003c-.002 1.273-.004 2.546-.002 3.819h-6.433l-.001-5.557v-.033c-.001-3.728-.002-7.455.001-11.177zm23.061.041a3157.632 3157.632 0 0 0-6.851 5.757c1.482.029 2.955.022 4.437.016l.978-.004c.461-.388.928-.765 1.406-1.141.034-.946.03-1.896.027-2.848-.002-.593-.004-1.186.003-1.78z" fill="#C0CADA"/></svg>