<svg fill="none" height="250" width="300" xmlns="http://www.w3.org/2000/svg"><path clip-rule="evenodd" d="m151.233 116.461c0-.287-.12-.401-.501-.478-.276-.055-.648-.287-.827-.515-.305-.388-.325-.687-.325-4.704 0-3.497.047-4.403.255-4.903.517-1.238 1.473-1.899 2.749-1.899 1.542 0 2.029.681 2.306 3.218.216 1.979.11 7.45-.157 8.117-.13.323-.365.497-.848.628-.525.141-.668.259-.668.546v.367h7.439v-.373c0-.244-.1-.373-.289-.374-.159 0-.557-.075-.883-.166-.984-.273-1.026-.497-1.131-5.961-.09-4.689-.11-4.919-.481-5.674-.463-.943-1.441-1.822-2.317-2.085-.353-.106-1.116-.193-1.696-.193-1.243.001-2.652.597-3.659 1.55l-.62.587v-8.769l-.372.082c-1.06.232-2.359.408-3.805.514-1.004.074-1.609.188-1.607.303.005.367.258.55.907.65.803.126 1.188.56 1.322 1.487.056.384.078 4.279.051 8.656-.058 9.068-.006 8.723-1.349 8.925-.672.101-1.056.425-.867.731.037.061 1.711.11 3.72.11h3.653zm-11.904-.079c0-.415-.054-.456-.619-.458-.855-.003-1.395-.313-1.736-.994-.264-.527-.289-1.312-.289-8.998l-.001-8.42 1.86.118c1.023.065 2.133.226 2.467.358.719.285 1.129 1.018 1.129 2.02 0 .666.011.679.578.679h.579v-4.615l-8.679-.001-8.68-.001-.001 1.19c0 .655-.049 1.7-.107 2.32l-.107 1.13.645-.053c.643-.052.646-.055.734-.88.049-.456.177-.988.285-1.182.309-.558 1.294-.84 3.387-.968l1.943-.12v8.556c0 9.591.024 9.376-1.117 9.689-.34.094-.805.19-1.032.214-.303.032-.427.154-.462.458l-.048.414h9.271zm26.7-9.498c.269-1.599.615-2.462 1.235-3.084.573-.574.705-.628 1.531-.628.661 0 1.056.1 1.466.372.636.423 1.39 1.819 1.553 2.876l.104.68-.63.108c-.347.059-1.696.156-2.999.215l-2.368.108zm5.125 10.006c.869-.213 1.956-.855 2.852-1.682.946-.874 1.082-1.145.843-1.672l-.192-.423-.804.753c-1.957 1.835-4.421 2.083-5.98.602-.946-.899-1.751-3.171-1.759-4.961l-.003-.704h9.127l-.12-1.196c-.151-1.503-.426-2.3-1.175-3.396-1.123-1.642-2.709-2.308-5.158-2.166-3.075.178-5.347 2.308-6.06 5.685-.311 1.471-.311 2.864-.001 4.185.33 1.401.784 2.244 1.776 3.294 1.638 1.736 4 2.332 6.654 1.681zm29.195 8.553c1.654-.857 1.457-3.428-.311-4.045-2.427-.847-4.006 2.632-1.805 3.977a2.166 2.166 0 0 0 2.116.068zm3.556 19.541a1.512 1.512 0 0 1 -.1-.393c0-.072-.343-.17-.763-.216-1.165-.132-1.414-.486-1.566-2.224-.07-.804-.133-4.152-.139-7.441l-.012-5.981-1.198.209c-.66.114-2.052.294-3.095.398s-1.923.218-1.957.252c-.194.195.201.749.533.749.69 0 1.426.362 1.661.817.308.598.493 6.864.297 10.08-.167 2.716-.293 2.974-1.548 3.138-.719.094-.968.264-.973.667-.002.16 1.003.207 4.479.207 4.019 0 4.471-.028 4.381-.262zm-31.707-.098c-.037-.257-.253-.427-.757-.594-.387-.129-.796-.396-.909-.593-.145-.255-.22-1.703-.258-5.022-.05-4.492-.039-4.695.31-5.506.674-1.57 1.926-2.332 3.49-2.122.883.119 1.41.648 1.756 1.766.241.779.283 1.647.283 5.722 0 3.516-.055 4.9-.204 5.162-.113.197-.522.464-.91.593-.503.167-.719.337-.757.594l-.053.36h7.628v-.407c0-.332-.104-.426-.568-.513-1.165-.219-1.162-.205-1.216-5.666l-.049-4.894.437-.895c.555-1.138 1.407-1.734 2.619-1.835 1.194-.099 1.841.255 2.304 1.259.343.743.358.994.358 6.017 0 4.905-.02 5.264-.312 5.588-.172.19-.562.392-.868.45-.446.084-.556.182-.556.5v.396h8.221l-.076-.395c-.06-.316-.205-.412-.727-.482-.914-.123-1.422-.509-1.622-1.234-.102-.365-.174-2.578-.174-5.355-.001-5.166-.076-5.719-.958-7.111-.316-.499-.769-.91-1.369-1.242-.81-.449-1.042-.498-2.385-.498-1.299 0-1.61.06-2.441.47-.525.257-1.388.891-1.919 1.407l-.967.94-.586-.937c-.4-.638-.842-1.086-1.387-1.408-.729-.429-.943-.472-2.372-.472-1.896 0-2.651.309-4.146 1.696l-.979.908-.002-1.054c-.001-.578-.045-1.21-.096-1.402-.091-.34-.124-.344-1.148-.128-.827.173-4.097.559-4.747.56-.068 0-.123.187-.123.414 0 .345.078.415.47.415.88 0 1.534.341 1.779.928.343.822.335 11.421-.01 12.247-.262.63-.77.904-1.672.904-.495 0-.567.053-.567.414v.415h8.288zm-40.806.153c-.004-.355-.222-.547-.907-.802-.995-.37-1.055-.689-1.065-5.763-.01-4.854.054-5.279.958-6.337.691-.809 1.39-1.137 2.424-1.137 2.31 0 2.831 1.651 2.684 8.503-.091 4.264-.162 4.52-1.339 4.819-.478.122-.603.234-.603.539v.385h8.288l-.053-.369c-.041-.294-.2-.394-.776-.492-1.003-.171-1.473-.522-1.599-1.195-.058-.313-.121-2.755-.139-5.427-.027-4.036-.08-4.998-.31-5.688-.394-1.186-1.129-2.099-2.138-2.659-.797-.442-1.019-.487-2.447-.486-1.939 0-2.714.314-4.137 1.674l-.988.943-.002-.811a10.852 10.852 0 0 0 -.1-1.41l-.099-.597-1.049.22c-.824.173-4.094.559-4.743.56-.068 0-.124.187-.124.414 0 .351.077.414.502.414.943 0 1.607.408 1.801 1.105.253.915.22 11.222-.039 11.977-.228.667-.766.992-1.644.996-.55.002-.62.049-.62.416v.415h4.133c3.198 0 4.133-.047 4.131-.207zm-48.754.27.591-.098.29-2.26c.16-1.244.33-2.466.38-2.716.087-.444.07-.456-.675-.456-.729 0-.765.023-.765.468 0 .829-.502 1.988-1.084 2.5-.769.677-1.493.84-3.733.841-2.898.002-2.693.378-2.756-5.058l-.052-4.427 2.201.077c2.998.105 3.38.33 3.684 2.162.093.567.148.621.632.621h.53l.036-7.288h-.538c-.53 0-.54.016-.719 1.029-.1.577-.315 1.163-.488 1.337-.554.555-2.353.76-4.45.508l-.867-.104v-8.402l2.025.013c1.114.007 2.321.102 2.683.211.822.249 1.337.976 1.493 2.106l.115.835 1.206-.1v-4.804h-14.797v.418c0 .379.091.435 1 .608 2.06.392 1.975-.061 1.975 10.486 0 9.595-.007 9.682-.937 10.155-.257.13-.821.289-1.253.352-.69.101-.786.164-.786.516v.402l5.167.046c2.841.025 6.096.063 7.233.084 1.136.02 2.332-.008 2.658-.062zm147.385-.255c.898-.357.981-.433 1.031-.949.045-.483.011-.545-.247-.446-.164.064-.746.153-1.293.199-1.273.108-2.016-.246-2.482-1.18-.306-.614-.334-1.055-.384-6.005l-.054-5.341h3.621l.095-.478c.053-.263.144-.673.204-.911l.108-.434h-4.003v-4.307h-1.624l-.109.646c-.165.976-.967 2.544-1.555 3.041-.53.446-1.443.783-2.127.785-.335.001-.372.081-.372.829v.829h1.954l.07 5.341c.077 5.774.156 6.355 1.016 7.486.233.305.816.756 1.296 1.001.807.412.985.439 2.375.363 1.03-.056 1.811-.204 2.48-.469zm-15.643.143c1.193-.441 2.49-1.724 2.869-2.84.313-.921.364-2.491.103-3.188-.465-1.24-1.594-2.297-4.825-4.514-.704-.483-1.43-1.121-1.612-1.417-.397-.643-.433-1.69-.074-2.202.529-.757 1.825-1.149 2.869-.868.767.207 1.092.614 1.505 1.88.191.587.364.853.551.843l.851-.041.579-.028v-1.479c0-1.044-.068-1.547-.231-1.71-.127-.127-.945-.366-1.819-.53-4.678-.883-7.377.808-7.372 4.618.003 2.12.739 3.141 3.747 5.204 2.54 1.741 3.39 2.968 2.839 4.096-.41.838-1.03 1.148-2.298 1.148-1.003 0-1.192-.051-1.564-.424-.232-.232-.601-.866-.82-1.408-.422-1.042-.739-1.23-1.678-.994-.379.095-.393.155-.393 1.649 0 1.044.067 1.602.206 1.71.114.089.691.294 1.282.457 2.293.631 3.653.641 5.285.038zm-63.112-1.122c-1.772-.902-2.737-3.693-2.746-7.94-.006-3.049.478-4.573 1.753-5.52.672-.498 2.054-.566 2.887-.14 1.957 1.001 3.051 3.659 3.08 7.482.023 3.053-.618 5.071-1.899 5.986-.765.545-2.147.605-3.075.132zm3.189 1.308c1.753-.377 3.699-1.793 4.613-3.355.986-1.687 1.43-4.228 1.097-6.284-.656-4.046-3.397-6.626-7.281-6.852-2.676-.156-4.729.561-6.265 2.188-1.434 1.52-2.16 3.633-2.161 6.297-.002 5.81 4.28 9.239 9.997 8.006zm-44.141-1.366c-1.736-1.045-2.622-3.67-2.633-7.799-.007-2.68.28-3.966 1.108-4.973 1.633-1.984 4.428-1.142 5.689 1.714.652 1.478.915 2.926.921 5.081.011 3.173-.704 5.199-2.115 6-.904.513-2.094.503-2.97-.023zm3.549 1.285c1.249-.349 2.057-.789 2.941-1.6 2.078-1.91 3.01-4.962 2.47-8.093-.723-4.193-3.72-6.762-7.886-6.762-4.774 0-7.776 3.259-7.767 8.433.006 3.902 1.715 6.695 4.816 7.872 1.608.61 3.585.665 5.426.15zm-16.782-.003c.862-.301 2.024-1.058 2.705-1.762l.549-.567-.527-1.263-.616.593c-1.195 1.147-2.796 1.66-4.09 1.31-2.086-.565-3.221-3.149-3.221-7.332 0-4.194 1.163-6.165 3.648-6.178 1.492-.009 2.156.671 2.631 2.695.184.781.248.873.56.789.194-.052.52-.096.724-.097.365-.002.372-.04.372-1.977v-1.974l-1.199-.28c-1.843-.431-3.97-.502-5.244-.175-3.48.893-5.451 3.866-5.458 8.229-.005 3.655 1.39 6.387 3.891 7.621 1.62.799 3.636.939 5.275.368zm-40.083-20.759v-47.54h185.986v95.08h-185.986z" fill="#c0cada" fill-rule="evenodd"/></svg>