<svg width="300" height="250" fill="none" xmlns="http://www.w3.org/2000/svg"><path d="M67.288 109.442a.364.364 0 0 0-.282-.121c-.12 0-.241.081-.322.161l-25.002 35.51c-.08.081-.08.202-.04.322.04.121.12.202.201.242a22.352 22.352 0 0 0 9.703 2.174c12.4 0 22.506-10.025 22.506-22.385-.04-5.999-2.416-11.676-6.764-15.903zm-17.03 12.763l.322-.484 11.112-15.782c.12-.201.08-.443-.08-.564l-.04-.04A22.629 22.629 0 0 0 51.545 103c-4.187 0-8.334 1.168-11.877 3.382-.201.121-.241.362-.12.564v.04l2.496 3.543 8.213 11.676zm-7.65 10.789l3.865-5.475-5.556-7.891-6.039-8.536a.368.368 0 0 0-.322-.161.368.368 0 0 0-.322.161A22.287 22.287 0 0 0 29 125.425c0 6.08 2.536 11.998 7.005 16.226a.39.39 0 0 0 .564 0l.04-.041 6-8.616zm38.047 10.589c-.081-.121-.04-.282.04-.363l11.031-15.701-13.93-19.809a.39.39 0 0 1-.04-.362c.08-.121.201-.201.322-.201H84.6c.12 0 .242.04.282.161l10.548 14.936 10.549-14.936c.08-.081.161-.161.282-.161h6.482c.12 0 .241.08.322.201.08.121.04.282-.041.362l-25.243 35.913c-.08.081-.161.161-.282.161h-6.522c-.121 0-.242-.08-.323-.201zm37.805-22.023c-4.187.081-6.523 3.02-7.288 5.717l-.04.161h14.373l-.04-.161c-.805-3.543-3.301-5.677-6.724-5.717h-.281zm.201 22.345c-.564 0-1.168-.04-1.852-.121-7.005-.886-11.877-6.562-11.877-13.769 0-7.891 5.918-13.85 13.769-13.85 7.449 0 12.924 5.757 12.964 13.729 0 .564 0 1.127-.08 1.651l-.081.724c0 .161-.161.323-.362.323h-20.01l.04.161c.967 3.543 3.906 5.717 7.61 5.717 2.697 0 4.912-1.047 5.878-2.859.08-.121.201-.201.322-.201h5.636c.121 0 .242.04.282.161.081.08.081.201.041.322l-.161.443c-1.369 4.026-5.154 6.804-10.066 7.448-.684.04-1.369.121-2.053.121zm27.096.08c-1.007 0-1.973-.08-2.939-.241-4.791-.765-7.892-3.503-8.898-7.891-.04-.121 0-.202.08-.282a.365.365 0 0 1 .282-.121h5.274c.121 0 .282.081.323.201.885 2.054 2.858 3.06 5.998 3.06 3.262 0 5.436-1.248 5.436-3.1 0-1.973-2.215-2.496-3.181-2.657l-5.516-.926c-6.764-1.047-8.173-4.711-8.173-7.609 0-4.953 4.348-8.335 10.871-8.335 4.388 0 9.743 1.772 11.273 6.684.121.362.282.966.362 1.369 0 .12 0 .201-.08.282a.367.367 0 0 1-.282.12h-5.113c-.161 0-.282-.08-.322-.241-.121-.282-.322-.765-.484-.967-1.127-1.65-3.462-2.053-5.314-2.053-2.979 0-4.992 1.127-4.992 2.818 0 .524 0 2.013 3.784 2.577l4.832.846c5.435.885 8.213 3.502 8.213 7.81 0 4.389-3.141 7.529-8.415 8.415a19.472 19.472 0 0 1-3.019.241zm21.7-.724c-.161 0-.281-.081-.322-.242l-9.743-25.767c-.04-.121-.04-.242.04-.322.081-.081.161-.161.282-.161h5.677c.161 0 .282.08.322.241l5.838 15.944 5.395-15.944c.04-.161.201-.241.322-.241h4.388c.161 0 .282.08.323.241l5.394 15.904 5.919-15.904c.04-.12.201-.241.322-.241h5.636c.121 0 .242.04.282.161.081.08.081.201.041.322l-9.744 25.767c-.04.121-.201.242-.322.242h-4.428c-.161 0-.282-.081-.322-.242l-5.275-15.621-5.314 15.621c-.04.161-.201.242-.362.242h-4.349zm43.845-21.661c-4.51 0-8.214 3.745-8.214 8.375 0 2.294.846 4.428 2.376 5.998 1.53 1.571 3.583 2.416 5.838 2.416 2.898 0 5.354-1.248 7.086-3.583v-9.623c-1.772-2.335-4.228-3.583-7.086-3.583zm-.484 22.265a14.75 14.75 0 0 1-1.811-.121c-6.804-.886-11.918-6.845-11.918-13.769 0-7.65 6.16-13.85 13.689-13.85 2.698 0 5.234.684 7.368 1.973l.201.12v-1.248a.36.36 0 0 1 .363-.362h5.193a.36.36 0 0 1 .363.362v26.009a.36.36 0 0 1-.363.362h-5.193a.36.36 0 0 1-.363-.362v-1.208l-.201.121a13.627 13.627 0 0 1-5.435 1.852c-.604.08-1.248.121-1.893.121zm18.078-.484a.36.36 0 0 1-.363-.362V117.01a.36.36 0 0 1 .363-.362h5.193a.36.36 0 0 1 .363.362v2.175l.201-.161c2.295-1.852 5.073-2.819 8.092-2.819h.806a.36.36 0 0 1 .362.363v4.992a.36.36 0 0 1-.362.362l-.806.041c-3.462.08-6.401 1.771-8.334 4.75V143.1c0 .08-.04.201-.12.241-.081.081-.161.121-.242.121h-5.153v-.081zm28.625-21.821c-4.227 0-6.603 2.939-7.408 5.717l-.04.161h14.373l-.04-.161c-.846-3.583-3.382-5.717-6.885-5.717zm.081 22.305c-.564 0-1.128-.041-1.812-.121-7.005-.846-11.917-6.522-11.917-13.769 0-7.892 5.918-13.85 13.769-13.85 7.448 0 12.924 5.757 12.964 13.729 0 .563 0 1.127-.04 1.65l-.081.725c-.04.201-.161.322-.362.322h-20.05l.04.161c.966 3.543 3.906 5.717 7.61 5.717 2.697 0 4.911-1.046 5.878-2.858.08-.121.201-.201.322-.201h5.636c.121 0 .242.04.282.161.081.08.081.201.04.322l-.161.402c-1.369 3.986-5.274 6.845-10.145 7.449a10.66 10.66 0 0 1-1.973.161z" fill="#C0CADA"/></svg>