<svg fill="none" height="250" width="300" xmlns="http://www.w3.org/2000/svg"><path clip-rule="evenodd" d="m99.816 95c.269.16.405.32.126.563h-.313a3.42 3.42 0 0 0 -.038-.153.327.327 0 0 1 -.02-.116c.004-.03.022-.06.057-.121l.063-.111c.044-.018.085-.04.125-.062zm56.559 22.196c-1.556 2.102-3.972 3.305-6.618 3.305-4.433 0-8.172-3.776-8.172-8.252s3.739-8.254 8.172-8.254c2.671 0 4.984 1.228 6.521 3.453l.393.573 5.058-3.793-.425-.538c-2.855-3.585-6.956-5.56-11.547-5.56-8.148 0-14.529 6.202-14.529 14.119s6.381 14.114 14.529 14.114c4.591 0 8.692-1.975 11.547-5.557l.43-.548-4.968-3.596zm-114.374-18.535-.001 27.166h6.113v-10.979h10.487v-5.863h-10.487v-4.462h15.05v-5.862h-21.163zm161.914 14.939v-14.939h6.109v15.965c0 6.691-5.222 11.737-12.145 11.737-6.922 0-12.139-5.046-12.139-11.737v-15.965h6.109v14.939c0 4.062 2.484 6.898 6.03 6.898 3.612 0 6.036-2.773 6.036-6.898zm43.545-4.673c-3.626-.457-5.847-.824-5.847-2.602 0-1.406 1.47-2.82 4.76-2.82 2.507 0 4.455.864 6.519 2.888l.448.443 4.525-4.054-.49-.501c-2.71-2.752-6.328-4.15-10.757-4.15-6.478 0-11.363 3.629-11.363 8.443 0 6.635 5.966 7.436 10.759 8.079l.008.001c3.65.492 5.889.88 5.889 2.653 0 2.309-2.844 3.165-5.506 3.195-2.583 0-5.19-1.193-7.154-3.281l-.447-.478-4.618 4.142.473.507c3.011 3.157 7.221 4.976 11.546 4.976 5.844 0 12.061-3.265 12.061-9.307 0-6.776-6.247-7.562-10.806-8.134zm-205.3 44.815v-12.95h10.018v2.559h-7.342v2.475h5.116v2.56h-5.116v5.356h-2.677zm27.962-12.95v12.95h10.02v-2.559h-7.34v-2.797h5.112v-2.56h-5.113v-2.475h7.341v-2.559zm58.579 2.559v-2.559h10.061v2.559h-3.691v10.391h-2.676v-10.392h-3.694zm37.946-2.559v7.137c0 2.1-1.246 3.516-3.098 3.516-1.823 0-3.092-1.45-3.092-3.516v-7.137h-2.679v7.636c0 3.176 2.482 5.573 5.771 5.573s5.772-2.397 5.772-5.573v-7.636zm27.526 2.557h-3.313v3.861h3.313c1.634 0 2.212-.996 2.212-1.933 0-.93-.578-1.928-2.212-1.928zm.18-2.557c2.817 0 4.707 1.805 4.707 4.485 0 1.754-1.113 3.243-2.851 3.876l3.214 4.589h-3.357s-2.53-3.823-2.627-3.972h-2.579v3.972h-2.678v-12.95zm24.339 0v12.95h10.017v-2.559h-7.345v-2.797h5.116v-2.56h-5.116v-2.477h7.345v-2.557zm34.612 4.996.013.002c2.293.287 5.14.647 5.14 3.814 0 2.853-2.955 4.39-5.731 4.39a7.668 7.668 0 0 1 -5.522-2.381l-.125-.13 2.027-1.823.117.126c.984 1.05 2.3 1.653 3.602 1.653 1.75-.024 2.835-.677 2.835-1.711 0-1.036-1.371-1.223-2.976-1.442l-.033-.005c-2.275-.301-5.113-.683-5.113-3.788 0-2.26 2.314-3.966 5.386-3.966 2.117 0 3.852.667 5.143 1.98l.128.132-1.986 1.77-.116-.114c-1.035-1.02-2.017-1.453-3.287-1.453-1.706 0-2.474.771-2.474 1.531 0 1.041 1.381 1.215 2.972 1.415zm-147.866-.157c.243.568 1.315 3.043 1.487 3.43h-2.994c.098-.219.489-1.11.855-1.944v-.002zm-.062-5.424-6.389 13.577h2.895s.854-1.959.933-2.152h5.201l.936 2.152h2.911l-6.33-13.92zm-8.275-44.69a.307.307 0 0 1 .006-.06 1.93 1.93 0 0 0 .054-.135l-.03-.033c-.118-.126-.12-.128-.408-.155a7.188 7.188 0 0 0 -.124.187c.019.084.04.166.061.25h.437zm5.984-.248a4.56 4.56 0 0 0 -.059.24l-.03.006c-.095.02-.19.039-.284.055-.012-.064-.022-.129-.033-.193l-.031-.181.057-.028c.023-.012.046-.024.069-.034l.053.021.261.104zm-9.1 4.196c.288-.144.434-.299.627-.502l.06-.063c.082-.462-.007-.623-.17-.92h-.002l-.078-.144c-.228-.111-.55-.14-.94-.126-.125.179-.207.403-.275.592-.058.158-.106.29-.164.348.078.141.174.26.256.362.106.133.19.237.184.326l.266.067.235.06zm12.303-.382c-.432.076-.604.102-1.002 0l-.079-.21-.001-.002v-.002h-.001v-.002h-.001l-.105-.283c-.054-.365.127-.53.342-.727.051-.048.104-.096.157-.15.132.018.265.034.397.05h.001l.105.013c.048.036.082.066.112.093.066.06.112.1.262.156v.815l-.076.057a.203.203 0 0 0 -.04.032.29.29 0 0 0 -.04.082zm-15.405-.199c.35-.136.368-.148.502-.5l-.059-.178c-.022-.066-.045-.132-.066-.2l-.306-.037-.194-.023-.01.008c-.177.153-.203.174-.306.43.13.313.152.35.439.5zm18.281-.668.072.097c-.152.268-.206.361-.625.377a1.161 1.161 0 0 1 -.01-.076c-.01-.08-.013-.106-.116-.238.039-.123.08-.243.123-.368l.001-.002.002-.007c.402.009.43.048.553.217zm-21.107 3.789c.296-.146.358-.202.501-.501-.028-.078-.054-.158-.08-.237v-.002l-.045-.135c-.16-.295-.342-.335-.815-.314l-.073.074c-.059.059-.117.119-.178.175.002.429.06.565.187.815l.252.063zm24.044-.428c-.121.164-.293.265-.372.128-.311-.099-.318-.152-.336-.295a1.117 1.117 0 0 0 -.043-.206c.023-.04.044-.086.063-.128.106-.06.211-.122.316-.185.145.063.29.125.436.185l.02.118c.033.196.041.245-.084.383zm-26.67 2.686h-.123c-.079-.274-.12-.285-.3-.333a5.116 5.116 0 0 1 -.141-.041c-.057.021-.114.044-.171.067l-.141.055v.69l.35.031h.001l.338.03.187-.497zm29.667.008c-.02.066-.041.129-.06.188-.045.032-.09.061-.134.09l-.056.038h-.001a13.728 13.728 0 0 1 -.313-.128v-.311a.551.551 0 0 1 .096-.009h.016l.015-.003c.02-.005.037-.023.093-.082l.032-.033c.104.085.208.169.312.25zm-29.872 3.951.133-.093c.165-.115.33-.23.492-.346.09-.561-.171-1.264-.75-1.126a17.357 17.357 0 0 0 -.312-.062c-1.062.622-.413 1.437.437 1.627zm29.992-1.254v.751c-.345.146-.578.11-.765.081a.904.904 0 0 0 -.237-.018v-.752c.124-.028.159-.069.272-.203l.039-.047.039.011h.001c.217.06.433.12.651.177zm-11.832 3.826c.034-.068.06-.125.082-.174.074-.163.103-.226.232-.202-.076-.462-.247-.635-.689-.878l-.193.086h-.001l-.368.165-.033.376-.033.375c.361.275.6.275 1.003.252zm11.774.187c-.477.107-.83.132-1.064 0-.054-.225-.083-.24-.131-.265-.029-.016-.066-.035-.121-.111.023-.231.044-.459.062-.689.11.01.372-.172.626-.376l.692.187c.082.189.165.38.249.565l-.188.413v.001l-.083.182zm-17.947-.576c-.023-.467-.134-.57-.566-.627l-.036.029v.001c-.093.074-.183.147-.277.219v.378c.16.153.275.213.563.249l.144-.114.002-.002zm-15.076.078h-.439l-.062-.124.035-.036.028-.028a5.51 5.51 0 0 0 .063-.064l.059-.179v-.001l.002-.008c.049.022.089.037.122.05a.335.335 0 0 1 .124.064c.041.044.049.12.068.319zm17.8 0 .02-.04c.014-.029.027-.058.043-.087l.048-.145.001-.001.012-.039c-.052-.028-.104-.054-.156-.08l-.094-.048c-.02.013-.043.024-.065.036l-.06.031-.062.121a.8.8 0 0 1 .084.112c.04.061.05.077.23.14zm15.598 2.94c-.351.545-1.285 1.14-1.501.313-.089.017-.098.035-.1.04l-.002.002c-.001.001-.002 0-.007-.003-.009-.005-.03-.017-.081-.039v-.877l.133-.087c.145-.096.288-.19.431-.287.728.042.964.353 1.127.938zm-12.679-.567-.251.314a4.323 4.323 0 0 0 -.033.164l-.03.149.031.062c.01.021.02.041.032.062.167.064.333.126.501.187.086-.069.173-.142.26-.214l.074-.062.042-.035v-.252c-.03-.018-.059-.038-.088-.057a2.185 2.185 0 0 0 -.101-.066c-.136-.169-.177-.179-.285-.207-.039-.01-.087-.022-.152-.045zm-21.326.5v-.062c.062-.085.124-.169.188-.252.236.034.267.058.365.133l.072.054-.062.313-.157.031-.072.015-.085.016a14.562 14.562 0 0 1 -.249-.248zm15.07.125c.102.021.207.042.31.061.035-.015.068-.032.103-.048v-.001l.025-.012c.011-.042.025-.082.038-.123l.021-.064-.136-.093-.238-.159-.011.038c-.039.134-.077.268-.113.401zm17.931 2.057c.189.062.372.122.557.185.43.302.281.734.063 1.125-.084.012-.167.022-.251.032l-.252.032c-.192.036-.337-.052-.523-.165l-.038-.022-.072-.327v-.001l-.001-.001-.052-.236c-.021.105-.042.21-.065.313v-.438c.05-.009.224-.158.389-.3.088-.076.174-.15.238-.2zm-11.559.077-.233.088-.263.098c-.156.247-.17.44-.183.625a1.224 1.224 0 0 1 -.069.377c.23.355.546.623 1.128.44.395-.179.454-.455.527-.79l.033-.151-.065-.086c-.276-.366-.364-.483-.875-.601zm-6.956.938c.151-.461.246-.523.624-.752.59.072.659.251.813.752-.508.717-.946.827-1.437 0zm3.395-.253v.251l.076.063.086.071v.001l.213.177.123.031.129.033c.195-.199.224-.332.293-.655l.021-.097-.044-.013c-.194-.058-.39-.116-.583-.176-.103.106-.208.21-.313.314zm-17.669.167v-.374c.166.032.209.067.231.086.026.021.027.022.145-.023l-.007.035c-.02.092-.04.185-.055.276l-.036-.027c-.03-.023-.04-.031-.05-.031l-.01.002-.012.006a.563.563 0 0 1 -.206.05zm3.11 2.066c-.056.045-.107.08-.154.113-.142.099-.246.171-.345.388l-.029.229v.004l-.035.268c.053.042.097.081.138.117.182.16.29.256.738.261.098-.064.193-.128.288-.192l.09-.06c.072-.153.088-.351.105-.547.005-.069.01-.137.019-.203l-.166-.125-.084-.063c-.164-.174-.2-.175-.43-.184a4.266 4.266 0 0 1 -.135-.006zm29.588.631.065-.312c.165.019.33.04.498.062.044.02.087.042.131.064l.121.059-.032.279v.003l-.032.284-.279.068c-.075.019-.149.038-.224.055-.08-.066-.163-.131-.246-.197h-.001l-.066-.053zm-2.348 2.323-.38-.031-.371-.031a3.011 3.011 0 0 1 -.171.278c-.163.243-.255.381-.14.912l.251.124.499.249.064-.031c.364-.176.649-.313.564-.782.02-.039.042-.083.064-.123l-.14-.209-.001-.001v-.001c-.079-.118-.158-.236-.239-.354zm-27.537.933v-.25c.084-.061.168-.124.252-.188.105.042.206.083.311.127-.011.265-.042.33-.112.475l-.012.025h-.064c-.082-.044-.165-.085-.249-.127l-.032-.015zm30.252-.252a4.778 4.778 0 0 0 -.061.25h.186c-.02-.071-.026-.11-.03-.134a.122.122 0 0 0 -.009-.035c-.005-.009-.013-.016-.031-.032a1.796 1.796 0 0 1 -.055-.049zm-29.551.268h-.065v-.188c.023.062.044.125.065.188zm25.324-3.708a90.106 90.106 0 0 1 -.624-.248l-.066-.132-.043-.084v-.001l-.143-.285c.029-.082.06-.163.09-.244l.095-.257c.106-.124.212-.249.315-.375.187.015.373.033.56.051l.127.012c.08.101.159.203.237.305h.001v.001l.2.258c-.035.602-.224.746-.749.999zm-.439-4.445c.429.002.564.063.816.188v.626c-.254.515-.957.338-1.068-.187-.07-.229.045-.37.175-.53.025-.031.052-.063.077-.097zm.376-3.068c.146.085.293.168.44.251.119.518-.099.829-.501.815h-.315l-.068-.092c-.119-.157-.174-.229-.184-.596.143-.179.252-.223.423-.291.059-.023.127-.05.205-.087zm-.628-2.754c.106-.123.212-.249.315-.375l.376.063.377.063.104.104.145.145c-.038.538-.195.661-.461.87-.051.04-.106.083-.165.132-.23-.083-.458-.165-.691-.252zm-2.251-4.945c-.246.113-.409.033-.624-.073-.076-.037-.158-.077-.253-.114a40.994 40.994 0 0 0 -.089-.333l-.16-.606c.255-.372.503-.559.874-.816h.313c.098.127.2.232.299.334.197.205.384.399.515.733l-.101.17c-.21.359-.383.653-.774.705zm.374 17.717c-.145.106-.293.212-.438.312-.361-.057-.508-.142-.689-.373l-.03-.089a3.792 3.792 0 0 1 -.032-.099c.034-.336.101-.42.217-.567.029-.036.06-.076.095-.124h.503c.273.266.328.356.437.691l-.005.011c-.036.081-.046.103-.05.126l-.001.011-.001.019a.663.663 0 0 1 -.006.082zm-1.378-3.568c.054-.077.106-.157.159-.237l.05-.076.042-.063c.145-.042.294-.084.439-.124l.074.05.001.002h.001c.193.131.296.201.425.448l-.126.438-.031.047a3.788 3.788 0 0 1 -.094.14l-.073.008c-.212.023-.288.031-.491-.068-.235-.143-.272-.253-.362-.524zm-.286-2.928h-.001l-.025-.204c.183-.241.317-.34.475-.457.065-.048.135-.1.213-.165.107.06.21.102.309.142.267.11.501.206.693.608-.033.448-.181.603-.438.813h-.751l-.155-.155-.064-.063-.001-.001-.017-.018-.202-.201c-.011-.1-.024-.199-.036-.299zm.475-8.841.07-.245.056-.196.076-.055.175-.132c.267.016.297.018.438.127.048.031.078.046.097.057.018.009.027.013.034.021s.01.02.017.045c.007.026.017.065.039.127.194.525-.344.641-.815.563-.032-.056-.066-.111-.1-.167a6.175 6.175 0 0 1 -.087-.145zm.187 2.316.064.032.025.012.036.018c.401-.086.593.108.753.436l-.05.183-.139.508a3.43 3.43 0 0 1 -.828.013l-.172-.013v-.004c-.074-.345-.117-.549-.065-.936.106-.069.21-.138.314-.208zm-.75 3.381c.144-.238.305-.352.497-.487.061-.043.125-.088.192-.14.398.068.558.174.795.33.078.052.163.108.268.17.031.75-.183.989-.688 1.191-.645.016-.894-.219-1.064-.627zm-.627 2.94c-.129.386-.342.656-.545.913-.24.304-.465.59-.518 1.029.046.058.096.117.148.178h.001c.331.39.722.85.414 1.513l-.257.359-.057.079c-.886.196-1.204-.064-1.692-.465l-.122-.099c-.448.055-.746.298-1.046.544-.263.215-.528.431-.896.522-.657-.94-2.088-.942-2.565.186-.364-.102-.576-.295-.791-.492-.263-.24-.531-.485-1.09-.57-.155.079-.284.156-.399.224-.433.257-.682.405-1.478.213-.336-.454-.545-.783-.44-1.252l.356-.394.003-.004.002-.001v-.001l.204-.227c.032-1.112-.484-1.446-1.315-1.691-.197.274-.375.46-.75.564-.22.168-.475.058-.765-.067a3.745 3.745 0 0 0 -.301-.12l-.134-.305-.114-.259c.072-.904.586-1.056 1.25-1.189l.18.167c.234.216.466.431.695.645.11-.195.47-.434.736-.611v-.001c.08-.053.15-.1.205-.139v-.876l-.313-.312-.314-.313a.851.851 0 0 0 -.179.018.087.087 0 0 1 -.032.004c-.012-.003-.022-.012-.045-.033a1.943 1.943 0 0 0 -.058-.053c-.25.12-.42.246-.572.36-.19.142-.355.264-.616.329-.575-.211-.907-.495-1.002-1.19.305-.658.616-.847 1.315-.937l.275.25c.138.125.275.249.413.377.204-.023.415-.118.662-.229.106-.048.22-.099.342-.149.294-.515.275-.906.124-1.503-.998-.699-.082-1.748 1.002-2.066.463.627.906.675 1.814.563l.501-.683v-.001l.002-.002c-.111-.365-.246-.62-.355-.827-.278-.524-.388-.732.479-1.615h.688c.141.126.271.282.4.438.155.185.308.369.477.499-.058.284-.204.459-.334.616-.105.126-.2.24-.23.388-.267.439.149.97.564 1.125.484.198.736-.05.979-.29.107-.106.213-.21.336-.273-.07-.418-.226-.64-.396-.884a3.023 3.023 0 0 1 -.355-.617c.053-.072.101-.142.147-.21.208-.303.386-.563.855-.792.948.039 1.114.647 1.251 1.314l-.02.039v.001l-.105.209c-.594.425-.512.639-.33 1.107.045.115.095.245.143.396l.94.378c.441-.152.634-.293.874-.629 1.802-.068 1.596 1.477.878 2.317.212.662.468.99.826 1.446v.001c.075.095.154.196.238.307-.12.278-.279.448-.432.612-.267.284-.515.549-.507 1.329l.257.279h.001l.002.003.002.002c.163.177.325.353.489.528zm-1.813 5.95.073-.074.001-.001.3-.301.02.006c.356.114.511.163.605.557v.439l-.12.06-.129.064a.501.501 0 0 1 -.563-.061c-.278-.162-.332-.391-.187-.689zm1.186 4.195c-.734.175-1.142.108-1.376-.565.012-.57.189-.675.504-.863l.123-.075c.227.063.459.126.688.187.295.486.259.616.128 1.076l-.001.001zm-3.003-3.756c-.085.265-.185.355-.377.501l-.099.033c-.029.009-.059.018-.089.029-1.397.019-.818-1.325-.437-1.691h.563c.146.147.293.294.439.438zm-.249 3.504-.074.018c-.258.065-.377.094-.617-.018-.207-.154-.238-.291-.277-.47a1.99 1.99 0 0 0 -.037-.154l.085-.098c.118-.134.236-.268.352-.403l.041.006.337.055c.267.138.324.321.412.603l.027.085-.082.124-.002.003-.093.141zm-3.133-3.003c-.207.104-.489.086-.626-.064-.826-.407-.407-1.211.126-1.626l.423.041.202.02c.22.17.477.463.375.876.111.342-.191.635-.5.753zm.125 2.942c-.185.095-.437.176-.69.061-.213-.151-.259-.284-.248-.5-.076-.255.1-.399.28-.548l.092-.077.318.061c.309.141.356.314.373.564-.029.108-.06.218-.093.327zm-3.88-3.193c-.109-.382-.144-.759.186-1.003l.029-.028c.032-.031.065-.064.095-.099h.378c.167.15.333.295.501.441-.218.753-.427 1.013-1.19.689zm-.252 2.941c-.192-.301.209-.666.501-.875h.251c.107.071.206.143.303.213.109.078.214.154.324.225-.032.425-.135.597-.317.902l-.06.1c-.784.028-.884-.092-1.002-.565zm-2.191-5.633c-.314-.145-.501-.234-.69-.502l.05-.483.014-.142c.189-.125.376-.251.563-.377.631.109.713.338.815.94-.166.235-.331.327-.548.447-.064.035-.131.073-.204.117zm.314 2.692-.025.014c-.288.166-.311.179-.727.173-.275-.471-.163-.751.188-1.066l.25.065c.358.162.404.379.314.814zm-.751-19.346c.349.071.559.131.876.314.15.296.142.48.125.859v.016l-.439.376-.278.031-.284.032c-.289-.265-.38-.508-.46-.722a1.34 1.34 0 0 0 -.167-.342c.19-.266.355-.379.627-.564zm-.189 4.005c.104-.164.21-.332.312-.498l.33.064v.001h.002l.295.057.001.008.125.496c-.331.6-.79.318-1.065-.128zm1.002 3.82c-.297.239-.824-.046-1.065-.375-.081-.36-.067-.449-.02-.747l.014-.096.006-.034.108-.064v-.001c.174-.103.347-.207.518-.312.362.076.499.185.689.336.085.068.182.145.314.232.03.628-.114.915-.564 1.061zm2.377-4.569c.255.04.501.08.753.126l.074.073.085.083v.001l.157.154.026.298.034.391c-.163.307-.286.493-.628.627h-.246c-.577-.014-.857-.44-.88-1.004.219-.353.316-.498.625-.749zm-.124-2.882c.063.022.124.042.189.062.287-.087.421.082.563.314-.022.147-.043.293-.062.439-.02.062-.042.125-.065.187h-.562c-.261-.144-.312-.282-.313-.688.084-.102.167-.208.25-.314zm2.884.251c.08-.061.165-.125.244-.189.129.022.252.044.38.064l.057.079c.13.182.193.269.193.672l-.095.079-.002.001c-.093.078-.185.156-.28.234-.339-.079-.47-.169-.562-.5.014-.116.033-.234.051-.351v-.001zm3.237-.176.017-.013h.312c.037.05.071.09.102.127.128.154.199.239.211.626-.274.351-.806.441-.94-.124.02-.146.042-.294.064-.44.078-.057.156-.116.234-.176zm2.706 2.933h.753c.351.464.369.615.25 1.187l-.125.064-.125.063c-.208.169-.376.157-.669.135l-.069-.005-.074-.005a12.23 12.23 0 0 1 -.186-.278h-.001l-.065-.099-.062-.187a6.848 6.848 0 0 1 -.063-.187l.235-.371zm.212-2.968.024-.024.079-.076c.286.004.358.01.501.122.639.329.16 1.078-.627 1.004-.216-.315-.41-.706 0-1.004zm-14.235 3.906c-.367.279-.474.339-1.065.311-.295-.323-.385-.571-.438-1.002.168-.205.335-.415.501-.623.32.079.566.163.88.27l.122.042.018.092c.077.385.094.468-.018.91zm-.125 2.944-.143.084v.001c-.057.033-.114.066-.171.101-.304-.023-.384-.063-.543-.145l-.083-.041v-.567c.085-.081.169-.166.25-.249h.441c.071.087.143.173.216.259l.001.001.097.116-.01.058c-.019.126-.038.253-.055.382zm.065 3.004-.059.036c-.163.101-.232.144-.57.151l-.187-.188a41.898 41.898 0 0 0 -.189-.189v-.247l.158-.16.154-.155h.441l.06.087c.114.163.174.249.192.601zm-.38 3.191h-.25l-.206-.206-.106-.106c-.113-.297.025-.422.195-.575l.054-.05h.441l.101.151.151.224c-.059.351-.14.404-.367.554l-.012.008zm0 3.132h-.562v-.001c-.063-.063-.125-.126-.188-.186v-.687c.086-.061.173-.119.26-.176l.027-.019.088-.059c.353.015.444.061.638.161l.052.027c.015.166.033.328.05.493l.015.135c-.119.095-.234.191-.351.289l-.028.023zm23.918-8.204c-.525-.227-1.11-.896-1.002-1.563-.105-.365.292-.693.562-.877.005-.926-.319-1.187-.711-1.503-.153-.124-.317-.256-.475-.439-.141.448-.602.7-1.128.878-.753-.226-1.051-.407-1.003-1.441a2.89 2.89 0 0 1 .345-.262h.001c.246-.17.52-.359.594-.553.334.335.667.669 1.002 1.002l.301-.065.141-.031.119-.026.1-.138c.191-.264.335-.463.466-.864-.238-.5-.398-.674-.938-.877a5.81 5.81 0 0 1 -.187.064c-.35.116-.738.244-.88.686-.586.002-1.427-.824-1.565-1.501-.033-.132.08-.292.215-.481.235-.331.534-.751.224-1.271a24.29 24.29 0 0 1 -.16-.162l-.001-.001-.002-.001v-.001l-.214-.215c-.227-.014-.455-.033-.682-.051l-.13-.01c-.317.215-.806.608-.815.94l-.036-.036a.254.254 0 0 1 -.056-.063.284.284 0 0 1 -.017-.088 2.897 2.897 0 0 0 -.016-.125c-.38-.08-.581-.288-.788-.502-.23-.238-.467-.483-.965-.562l-.371.271-.001.001-.566.415c-.947.004-1.128-.367-1.391-.906a8.215 8.215 0 0 0 -.176-.346c.21-.229.42-.458.627-.69.072-.557-.16-.984-.816-1.314l-.322.075-.492.113c-.045.102-.088.188-.126.266-.117.238-.193.394-.184.674l.266.373h.001v.001c.119.168.238.335.36.502-.035.061-.055.14-.077.227-.04.159-.086.339-.24.462-.3.391-.699.379-1.311.312-.282-.4-.338-.489-.501-1 .063-.14.139-.278.214-.415.341-.624.659-1.205-.338-1.59h-.691c-.353.128-.493.338-.659.588a4.812 4.812 0 0 1 -.156.225c.066.318.235.496.39.659.147.155.281.296.3.532.055.733-.835 1.266-1.502.941l-.002-.003c-.19-.188-.376-.374-.562-.562-.031-.627.192-.889.629-1.19l-.016-.147c-.018-.16-.035-.32-.049-.48-.07-.058-.133-.115-.193-.17-.243-.22-.445-.405-.934-.456-1.11.614-.896 1.002-.48 1.756.053.097.11.2.168.311-.087.213-.172.427-.257.641v.001l-.12.299c-1.024.407-1.409.068-2.004-.565-.438.054-.675.285-.923.526-.263.257-.538.525-1.082.602l-.069-.056c-.521-.419-.768-.618-1.683-.447-.039.06-.076.115-.112.167-.198.288-.336.491-.326 1.086l.249.277v.001l.314.349c-.026.982-.52 1.479-1.501 1.503-.189-.19-.376-.377-.565-.564-.511-.027-.819.005-1.002.314-1.004.323-.1 1.542.187 1.876-.04.739-.53 1.395-1.125 1.568.03.47.203.675.369.874.233.278.454.542.257 1.502a4.274 4.274 0 0 1 -.453.233c-.205.098-.404.191-.487.268a3.474 3.474 0 0 1 -.672-.422c-.28-.218-.293-.228-1.204.109-.295 1.13.048 1.534 1 1.755.228-.324.517-.676.938-.627.159-.011.195.007.261.039.047.023.109.054.24.087.327.416.467.66.377 1.376a2.293 2.293 0 0 0 -.175.156c-.121.115-.227.216-.451.281-.337.264-.608.055-.887-.16-.417-.321-.853-.657-1.555.538.007.419.069.589.252.815.203.304.484.373.873.467h.002l.045.011.08.02c.22-.294.456-.451.762-.654l.052-.034c.208.061.418.125.625.19.398.506.493.724.377 1.5-.327.27-.64.423-1.064.626-.61-.848-.815-.763-1.657-.414l-.095.04-.01.067c-.067.408-.107.657.01 1.058.37.265.563.324 1 .44.104-.043.21-.085.313-.126.607-.877 1.759-.252 1.815.938-.095.2-.195.35-.287.488-.204.307-.365.55-.338 1.14.143.188.398.394.642.591.276.223.54.435.611.599l.156-.182c.29-.344.473-.561 1.032-.756.537.212.792.399 1.002.938-.184.667-.373.958-1.188 1.191-.323-.452-.71-.936-1.317-.94l.154.031.161.032c-.568.271-.706.395-.94.814.017.454.12.61.266.834.034.051.07.105.108.168.412.1.509.094.911.072l.082-.005.072-.003.085-.101.001-.001c.125-.145.202-.234.227-.404l.06-.023c.09-.038.204-.085.566-.1l.157.127c.448.361 1.108.893 1.222 1.439h.25c.024-.296.127-.4.248-.521.063-.063.13-.13.192-.23.385-.254.591-.237 1.101-.194l.084.008c.444.476.496.716.566 1.313l-.627.689c-.004.187.009.344.19.5.163.591.704.791 1.5.751l.217-.195c.137-.122.274-.246.408-.37.776-.068 1.427.383 1.819.879.283-.075.561-.229.833-.38.749-.417 1.453-.808 2.11.567h.06c.39-.108.847-.643 1.067-.939.656-.015.957.151 1.256.316.268.148.535.295 1.058.307.137-.107.249-.224.359-.338.27-.28.523-.542 1.083-.598l.075.06.042.034c.529.428.78.631 1.76.47.073-.185.146-.301.211-.405.12-.19.213-.338.227-.786-.585-.734-.549-1.011-.124-1.875.662-.14.814-.145 1.375 0 .727 1.032 1.679-.06 1.944-1.003-.501-.347-1.05-1.259-.376-1.817.512-.674 1.074-.342 1.6-.032.137.081.272.161.404.221.199-.108.4-.215.602-.322l.17-.09.166-.089c.119-.536.123-.699.063-1.253-.818-.605-.488-1.097-.098-1.679.181-.27.375-.559.473-.888-.071-.09-.139-.167-.201-.24h-.001c-.32-.37-.514-.593-.486-1.512.06-.066.116-.133.171-.2.21-.251.411-.492.767-.616v-.5c-.703-.116-.987-.796-.938-1.69l.703-.846zm-22.814 14.273c.1-.118.21-.25.32-.435.342.105.538.306.742.514.1.102.2.206.322.301 0 .074.002.129.003.173.005.158.005.164-.065.328l-.157.314-.046.091-.048.096c-.11.031-.22.06-.331.09l-.002.001-.356.097-.146-.08v-.001c-.18-.098-.36-.198-.543-.294-.11-.703.061-.906.307-1.195zm18.615.063a22.067 22.067 0 0 0 -.251-.046c-.146-.027-.292-.053-.436-.081l-.033.025c-.162.119-.222.163-.343.349-.143.144-.145.285-.063.505l.05.099.202.398c.397.094.427.094.874.065.073-.075.148-.149.223-.223h.001l.091-.09c.031-.499.038-.754-.315-1.001zm-21.503.485c.018-.043.04-.094.064-.161h.377l.25.312-.1.178-.15.261a15.173 15.173 0 0 1 -.377-.063c-.025-.018-.054-.033-.08-.048-.075-.038-.135-.07-.045-.139a.575.575 0 0 1 .06-.34zm24.11.025-.127.313v.062l.037.018c.16.075.185.087.401.044a13.3 13.3 0 0 0 .062-.252 1.576 1.576 0 0 1 -.046-.05.434.434 0 0 0 -.076-.072c-.041-.027-.093-.036-.234-.06zm-14.527 2.379c-.084.022-.17.044-.254.064 1.172.036.601 1.744-.624 1.19-.304-.794.083-1.099.5-1.378l.174.057zm2.317-.124c-.148.188-.293.375-.439.565l.009.092c.019.197.038.396.053.596l.053.045.056.048.042.036c.097.082.194.165.288.247.37-.011.501-.074.681-.161.057-.028.12-.059.197-.09.114-.412.118-.621.123-.953l.001-.05-.208-.209-.165-.166h-.69zm2.829.265.198-.079c.413-.002.562.065.814.187l.013.151c.025.27.038.412-.074.851l-.445.081-.1.018-.146.026c-.263-.151-.354-.227-.503-.501.038-.192.073-.385.107-.578l.02-.111zm-8.182.106h-.564l-.011.028v.001a24.34 24.34 0 0 1 -.176.411c-.077.147-.074.155-.05.225.013.04.033.099.05.213.197.096.405.132.75.124l.014-.021.018-.028c.065-.106.11-.18.222-.263l-.017-.111-.049-.328-.053-.04c-.063-.047-.089-.066-.103-.092a.251.251 0 0 1 -.021-.073 5.556 5.556 0 0 0 -.01-.046zm11.235.258.316-.125.414.156.003.001.084.031c.019.063.04.126.061.189l-.044.086-.025.05-.029.056-.03.057c-.059.062-.122.125-.184.188l-.001.001c-.198.063-.223.051-.377-.063-.206-.168-.2-.269-.191-.44.003-.054.006-.114.003-.187zm-14.81.364c.044.046.09.091.136.137l.113.114c.05-.052.101-.102.152-.152l.036-.036v-.128a5.555 5.555 0 0 1 -.185-.137l-.064-.048zm18.387.064h-.188v-.128l.112.076z" fill="#c0cada" fill-rule="evenodd"/></svg>