<svg width="30" height="30" fill="none" xmlns="http://www.w3.org/2000/svg"><path d="M15 0C6.716 0 0 6.716 0 15c0 8.284 6.716 15 15 15 7.554 0 13.8-5.584 14.844-12.848.1-.495.148-1.005.14-1.533.01-.204.016-.41.016-.619 0-8.284-6.714-15-15-15zm6.904 12.278c.006.139.008.278.008.418 0 4.283-3.259 9.221-9.219 9.221a9.152 9.152 0 0 1-4.967-1.457 6.5 6.5 0 0 0 4.798-1.342 3.244 3.244 0 0 1-3.029-2.25 3.185 3.185 0 0 0 1.465-.054 3.243 3.243 0 0 1-2.601-3.177v-.041c.437.24.937.388 1.469.405a3.24 3.24 0 0 1-1.004-4.328 9.205 9.205 0 0 0 6.68 3.387 3.241 3.241 0 0 1 5.522-2.957 6.477 6.477 0 0 0 2.06-.786 3.252 3.252 0 0 1-1.426 1.792 6.374 6.374 0 0 0 1.861-.508 6.61 6.61 0 0 1-1.617 1.677z" fill="#E4416F"/></svg>