<svg width="1680" height="198" fill="none" xmlns="http://www.w3.org/2000/svg"><g clip-path="url(#clip0)" fill-rule="evenodd" clip-rule="evenodd" fill="#fff"><path d="M45.063 140.372l-4.984-19.935-16.461 12.588L9 119.451l1.36-1.465 13.383 12.426L41.282 117l5.016 20.066 18.809-13.167 1.147 1.639-21.191 14.834z" opacity=".12" filter="url(#filter0_f)"/><path d="M1525 49h33.07l-16.53 24.803L1525 49zm3.74 2l12.8 19.197L1554.33 51h-25.59z" opacity=".12" filter="url(#filter1_f)"/><path d="M463.982 4L453 16.08l1.48 1.345 9.019-9.92 9.347 18.695 1.789-.895L463.982 4z" opacity=".12" filter="url(#filter2_f)"/><path d="M1183.93 143l12.41 15.791-8.93 18.967-12.41-14.667 8.93-20.091zm.48 3.847l-7.07 15.909 9.59 11.333 7.07-15.033-9.59-12.209z" opacity=".08" filter="url(#filter3_f)"/></g><defs><filter id="filter0_f" x="1" y="109" width="73.254" height="39.372" filterUnits="userSpaceOnUse" color-interpolation-filters="sRGB"><feFlood flood-opacity="0" result="BackgroundImageFix"/><feBlend in="SourceGraphic" in2="BackgroundImageFix" result="shape"/><feGaussianBlur stdDeviation="4" result="effect1_foregroundBlur"/></filter><filter id="filter1_f" x="1517" y="41" width="49.071" height="40.803" filterUnits="userSpaceOnUse" color-interpolation-filters="sRGB"><feFlood flood-opacity="0" result="BackgroundImageFix"/><feBlend in="SourceGraphic" in2="BackgroundImageFix" result="shape"/><feGaussianBlur stdDeviation="4" result="effect1_foregroundBlur"/></filter><filter id="filter2_f" x="445" y="-4" width="37.634" height="38.2" filterUnits="userSpaceOnUse" color-interpolation-filters="sRGB"><feFlood flood-opacity="0" result="BackgroundImageFix"/><feBlend in="SourceGraphic" in2="BackgroundImageFix" result="shape"/><feGaussianBlur stdDeviation="4" result="effect1_foregroundBlur"/></filter><filter id="filter3_f" x="1173" y="141" width="25.336" height="38.758" filterUnits="userSpaceOnUse" color-interpolation-filters="sRGB"><feFlood flood-opacity="0" result="BackgroundImageFix"/><feBlend in="SourceGraphic" in2="BackgroundImageFix" result="shape"/><feGaussianBlur stdDeviation="1" result="effect1_foregroundBlur"/></filter><clipPath id="clip0"><path fill="#fff" d="M0 0H1680V198H0z"/></clipPath></defs></svg>