<svg fill="none" height="69" width="74" xmlns="http://www.w3.org/2000/svg"><g fill="#fff"><path clip-rule="evenodd" d="m37 59.401c19.332 0 35-12.847 35-28.699 0-15.851-15.668-28.702-35-28.702s-35 12.85-35 28.702c0 8.03 4.02 15.286 10.5 20.495l-7.877 15.803 20.115-9.406c3.816 1.168 7.95 1.806 12.262 1.806zm20-33.468c0 10.667-20 25.067-20 25.067s-20-14.4-20-25.067c0-12.308 16.364-16.2 20-1.23 3.636-14.97 20-11.078 20 1.23z" fill-rule="evenodd"/><path d="m12.5 51.197 1.79.893a2 2 0 0 0 -.537-2.451zm-7.877 15.803-1.79-.892a2 2 0 0 0 2.638 2.704zm20.115-9.406.585-1.913a2 2 0 0 0 -1.432.101zm12.262-6.594-1.169 1.623a2 2 0 0 0 2.338 0zm0-26.298-1.944.472a2 2 0 0 0 3.888 0zm33 6c0 14.394-14.383 26.7-33 26.7v4c20.047 0 37-13.39 37-30.7zm-33-26.702c18.617 0 33 12.308 33 26.702h4c0-17.309-16.953-30.702-37-30.702zm-33 26.702c0-14.394 14.383-26.702 33-26.702v-4c-20.047 0-37 13.393-37 30.702zm9.753 18.937c-6.091-4.899-9.753-11.613-9.753-18.937h-4c0 8.736 4.38 16.533 11.247 22.054zm-7.34 18.253 7.877-15.802-3.58-1.785-7.877 15.803zm17.478-12.11-20.115 9.406 1.695 3.624 20.114-9.407zm13.109 1.62c-4.115 0-8.05-.61-11.677-1.72l-1.17 3.824c4.007 1.227 8.337 1.895 12.847 1.895v-4zm0-6.402a388.946 388.946 0 0 0 1.17 1.623v-.001l.005-.003.013-.01.047-.034.177-.13c.153-.113.375-.278.656-.49a94.105 94.105 0 0 0 2.315-1.817c1.908-1.544 4.461-3.721 7.022-6.248 2.552-2.518 5.159-5.428 7.14-8.44 1.957-2.973 3.455-6.27 3.455-9.518h-4c0 2.088-1 4.59-2.796 7.318-1.768 2.688-4.16 5.377-6.609 7.792-2.44 2.407-4.886 4.496-6.728 5.985a90.122 90.122 0 0 1 -2.83 2.198l-.157.116-.039.028-.008.006-.002.001zm-22-25.067c0 3.246 1.5 6.545 3.454 9.516 1.982 3.013 4.59 5.923 7.141 8.441 2.56 2.527 5.114 4.704 7.022 6.248a94.105 94.105 0 0 0 2.971 2.307l.177.13.047.034.014.01.003.003h.002l1.169-1.622 1.169-1.623-.002-.001-.008-.006-.039-.028a57.248 57.248 0 0 1 -.771-.575 90.122 90.122 0 0 1 -2.216-1.739c-1.842-1.489-4.289-3.578-6.728-5.985-2.448-2.415-4.841-5.104-6.61-7.792-1.793-2.728-2.795-5.231-2.795-7.317h-4zm23.944-1.703c-.996-4.097-2.914-7.097-5.396-8.976-2.486-1.88-5.411-2.537-8.19-2.145-5.563.783-10.358 5.703-10.358 12.824h4c0-5.186 3.386-8.366 6.915-8.863 1.766-.25 3.614.16 5.22 1.374 1.607 1.217 3.099 3.344 3.921 6.73zm20.056 1.703c0-7.12-4.796-12.04-10.357-12.824-2.78-.392-5.705.264-8.19 2.145-2.483 1.879-4.401 4.879-5.397 8.976l3.888.944c.822-3.386 2.314-5.513 3.922-6.73 1.605-1.215 3.453-1.623 5.219-1.374 3.53.497 6.915 3.677 6.915 8.863z"/></g></svg>