<svg fill="none" height="78" width="80" xmlns="http://www.w3.org/2000/svg"><path d="m28 41.626s32.275-32.337 34.36-34.42c3.127-3.123 15.64-5.206 15.64-5.206s-2.085 12.498-5.213 15.625l-34.404 34.375z" style="fill-rule:evenodd;clip-rule:evenodd;fill:#fff;stroke:#fff;stroke-width:4;stroke-linecap:round;stroke-linejoin:round"/><path clip-rule="evenodd" d="m28.358 40.405 11.257 11.27z" fill="#fff" fill-rule="evenodd"/><path d="m28.358 40.405 11.257 11.27" stroke="#fff" stroke-linecap="round" stroke-linejoin="round" stroke-width="4"/><path clip-rule="evenodd" d="m58.033 43.26c0 2.258 0 11.286-1.13 14.674-.716 2.147-2.967 5.225-4.516 6.777-4.449 4.445-11.292 11.289-11.292 11.289l2.095-17.903" fill="#fff" fill-rule="evenodd"/><path d="m58.033 43.26c0 2.258 0 11.286-1.13 14.674-.716 2.147-2.967 5.225-4.516 6.777-4.449 4.445-11.292 11.289-11.292 11.289l2.095-17.903z" stroke="#fff" stroke-linecap="round" stroke-linejoin="round" stroke-width="4"/><path clip-rule="evenodd" d="m34.742 23.968c-2.257 0-11.384-.096-14.772 1.031-2.143.719-5.132 3.066-6.681 4.615l-11.289 11.289 18.014-2.204" fill="#fff" fill-rule="evenodd"/><path d="m34.742 23.968c-2.257 0-11.384-.096-14.772 1.031-2.143.719-5.132 3.066-6.681 4.615l-11.289 11.289 18.014-2.204 14.729-14.731z" stroke="#fff" stroke-linecap="round" stroke-linejoin="round" stroke-width="4"/><path clip-rule="evenodd" d="m28.322 56.191c2.258 2.258 1.316 5.458-1.13 7.907-3.117 3.114-18.066 6.819-18.066 6.819s3.66-14.994 6.777-18.11c2.481-2.482 5.646-3.389 7.904-1.131" fill="#fff" fill-rule="evenodd"/><path d="m28.322 56.191c2.258 2.258 1.316 5.458-1.13 7.907-3.117 3.114-18.066 6.819-18.066 6.819s3.66-14.994 6.777-18.11c2.481-2.482 5.646-3.389 7.904-1.131l-2.307 6.824z" stroke="#fff" stroke-linecap="round" stroke-linejoin="round" stroke-width="4"/></svg>