<svg width="1680" height="198" fill="none" xmlns="http://www.w3.org/2000/svg"><path fill-rule="evenodd" clip-rule="evenodd" d="M57.056 125l.445 1.95-32.945 7.53 16.336 12.706-1.228 1.578L20 133.47 57.056 125z" fill="#fff" opacity=".11" filter="url(#filter0_f)"/><path fill-rule="evenodd" clip-rule="evenodd" d="M397.797 61.732l-20.529 6.248.582 1.913 25.471-7.752-40.203-19.096 21.792-8.172-.702-1.873L358 42.828l39.797 18.904z" fill="#fff" opacity=".12" filter="url(#filter1_f)"/><path fill-rule="evenodd" clip-rule="evenodd" d="M990.619 125.191L968 112.751 990.619 89v36.191zm-2-3.382V94l-17.38 18.25 17.38 9.559z" fill="#fff" opacity=".11" filter="url(#filter2_f)"/><path fill-rule="evenodd" clip-rule="evenodd" d="M1444.7 22l20.77 20.767-1.42 1.414-19.23-19.233-16.3 19.174-1.52-1.296L1444.7 22z" fill="#fff" opacity=".11" filter="url(#filter3_f)"/><path fill-rule="evenodd" clip-rule="evenodd" d="M1631 177c7.18 0 13-5.82 13-13s-5.82-13-13-13-13 5.82-13 13 5.82 13 13 13zm0 2c8.28 0 15-6.716 15-15 0-8.284-6.72-15-15-15-8.28 0-15 6.716-15 15 0 8.284 6.72 15 15 15z" fill="#fff" opacity=".12" filter="url(#filter4_f)"/><defs><filter id="filter0_f" x="12" y="117" width="53.501" height="39.764" filterUnits="userSpaceOnUse" color-interpolation-filters="sRGB"><feFlood flood-opacity="0" result="BackgroundImageFix"/><feBlend in="SourceGraphic" in2="BackgroundImageFix" result="shape"/><feGaussianBlur stdDeviation="4" result="effect1_foregroundBlur"/></filter><filter id="filter1_f" x="355" y="30" width="51.321" height="42.893" filterUnits="userSpaceOnUse" color-interpolation-filters="sRGB"><feFlood flood-opacity="0" result="BackgroundImageFix"/><feBlend in="SourceGraphic" in2="BackgroundImageFix" result="shape"/><feGaussianBlur stdDeviation="1.5" result="effect1_foregroundBlur"/></filter><filter id="filter2_f" x="960" y="81" width="38.62" height="52.191" filterUnits="userSpaceOnUse" color-interpolation-filters="sRGB"><feFlood flood-opacity="0" result="BackgroundImageFix"/><feBlend in="SourceGraphic" in2="BackgroundImageFix" result="shape"/><feGaussianBlur stdDeviation="4" result="effect1_foregroundBlur"/></filter><filter id="filter3_f" x="1419" y="14" width="54.469" height="38.181" filterUnits="userSpaceOnUse" color-interpolation-filters="sRGB"><feFlood flood-opacity="0" result="BackgroundImageFix"/><feBlend in="SourceGraphic" in2="BackgroundImageFix" result="shape"/><feGaussianBlur stdDeviation="4" result="effect1_foregroundBlur"/></filter><filter id="filter4_f" x="1613" y="146" width="36" height="36" filterUnits="userSpaceOnUse" color-interpolation-filters="sRGB"><feFlood flood-opacity="0" result="BackgroundImageFix"/><feBlend in="SourceGraphic" in2="BackgroundImageFix" result="shape"/><feGaussianBlur stdDeviation="1.5" result="effect1_foregroundBlur"/></filter></defs></svg>