<svg fill="none" height="198" width="1680" xmlns="http://www.w3.org/2000/svg" xmlns:xlink="http://www.w3.org/1999/xlink"><filter id="a" color-interpolation-filters="sRGB" filterUnits="userSpaceOnUse" height="39.372" width="73.254" x="1" y="109"><feFlood flood-opacity="0" result="BackgroundImageFix"/><feBlend in="SourceGraphic" in2="BackgroundImageFix" result="shape"/><feGaussianBlur result="effect1_foregroundBlur" stdDeviation="4"/></filter><filter id="b" color-interpolation-filters="sRGB" filterUnits="userSpaceOnUse" height="40.803" width="49.071" x="1517" y="41"><feFlood flood-opacity="0" result="BackgroundImageFix"/><feBlend in="SourceGraphic" in2="BackgroundImageFix" result="shape"/><feGaussianBlur result="effect1_foregroundBlur" stdDeviation="4"/></filter><filter id="c" color-interpolation-filters="sRGB" filterUnits="userSpaceOnUse" height="38.2" width="37.634" x="445" y="-4"><feFlood flood-opacity="0" result="BackgroundImageFix"/><feBlend in="SourceGraphic" in2="BackgroundImageFix" result="shape"/><feGaussianBlur result="effect1_foregroundBlur" stdDeviation="4"/></filter><filter id="d" color-interpolation-filters="sRGB" filterUnits="userSpaceOnUse" height="38.758" width="25.336" x="1173" y="141"><feFlood flood-opacity="0" result="BackgroundImageFix"/><feBlend in="SourceGraphic" in2="BackgroundImageFix" result="shape"/><feGaussianBlur result="effect1_foregroundBlur" stdDeviation="1"/></filter><clipPath id="e"><path d="m0 0h1680v198h-1680z"/></clipPath><g clip-path="url(#e)" clip-rule="evenodd" fill="#fff" fill-rule="evenodd"><path d="m45.063 140.372-4.984-19.935-16.461 12.588-14.618-13.574 1.36-1.465 13.383 12.426 17.539-13.412 5.016 20.066 18.809-13.167 1.147 1.639z" filter="url(#a)" opacity=".12"/><path d="m1525 49h33.07l-16.53 24.803zm3.74 2 12.8 19.197 12.79-19.197z" filter="url(#b)" opacity=".12"/><path d="m463.982 4-10.982 12.08 1.48 1.345 9.019-9.92 9.347 18.695 1.789-.895z" filter="url(#c)" opacity=".12"/><path d="m1183.93 143 12.41 15.791-8.93 18.967-12.41-14.667zm.48 3.847-7.07 15.909 9.59 11.333 7.07-15.033z" filter="url(#d)" opacity=".08"/></g></svg>