<svg fill="none" height="198" width="1680" xmlns="http://www.w3.org/2000/svg" xmlns:xlink="http://www.w3.org/1999/xlink"><filter id="a" color-interpolation-filters="sRGB" filterUnits="userSpaceOnUse" height="39.435" width="41.15" x="1030" y="-5.982"><feFlood flood-opacity="0" result="BackgroundImageFix"/><feBlend in="SourceGraphic" in2="BackgroundImageFix" result="shape"/><feGaussianBlur result="effect1_foregroundBlur" stdDeviation="3"/></filter><filter id="b" color-interpolation-filters="sRGB" filterUnits="userSpaceOnUse" height="26.521" width="28.501" x="91" y="84"><feFlood flood-opacity="0" result="BackgroundImageFix"/><feBlend in="SourceGraphic" in2="BackgroundImageFix" result="shape"/><feGaussianBlur result="effect1_foregroundBlur" stdDeviation="2"/></filter><filter id="c" color-interpolation-filters="sRGB" filterUnits="userSpaceOnUse" height="51.778" width="46.069" x="548" y="138"><feFlood flood-opacity="0" result="BackgroundImageFix"/><feBlend in="SourceGraphic" in2="BackgroundImageFix" result="shape"/><feGaussianBlur result="effect1_foregroundBlur" stdDeviation="3"/></filter><filter id="d" color-interpolation-filters="sRGB" filterUnits="userSpaceOnUse" height="38.429" width="33.02" x="1620" y="151.824"><feFlood flood-opacity="0" result="BackgroundImageFix"/><feBlend in="SourceGraphic" in2="BackgroundImageFix" result="shape"/><feGaussianBlur result="effect1_foregroundBlur" stdDeviation="3"/></filter><clipPath id="e"><path d="m0 0h1680v198h-1680z"/></clipPath><g clip-path="url(#e)" clip-rule="evenodd" fill="#fff" fill-rule="evenodd"><path d="m1065.15 14-7.46 10.405-21.69-10.934 6.15-8.577zm-2.2.647-20.3-8.034-4.54 6.34 19.14 9.648z" filter="url(#a)" opacity=".12"/><path d="m114.835 98.66-6.282 7.45-9.847-2.136-3.035-8.187 6.93-7.33 8.619.62zm-4.551-8.33-7.154-.513-5.938 6.28 2.499 6.743 8.366 1.814 5.272-6.252-3.045-8.071z" filter="url(#b)" opacity=".1"/><path d="m573.2 166.965 11.487 4.886-.71 1.67-11.696-4.976-7.361 12.657-8.118-21.213 14.715 6.26 10.997-18.908 1.569.912zm-2.602.864-10.574-4.498 5.234 13.68z" filter="url(#c)" opacity=".12"/><path d="m1626 164 19.88-6.176 1.14 26.429zm3.08.731 16.16 15.563-.88-20.308z" filter="url(#d)" opacity=".15"/></g></svg>