<svg width="1680" height="198" fill="none" xmlns="http://www.w3.org/2000/svg"><g clip-path="url(#clip0)" fill-rule="evenodd" clip-rule="evenodd" fill="#fff"><path d="M1065.15 14l-7.46 10.405L1036 13.471l6.15-8.577 23 9.106zm-2.2.647l-20.3-8.034-4.54 6.34 19.14 9.648 5.7-7.954z" opacity=".12" filter="url(#filter0_f)"/><path d="M114.835 98.66l-6.282 7.45-9.847-2.136-3.035-8.187 6.93-7.33 8.619.62 3.615 9.583zm-4.551-8.33l-7.154-.513-5.938 6.28 2.499 6.743 8.366 1.814 5.272-6.252-3.045-8.071z" opacity=".1" filter="url(#filter1_f)"/><path d="M573.2 166.965l11.487 4.886-.71 1.67-11.696-4.976-7.361 12.657-8.118-21.213 14.715 6.26 10.997-18.908 1.569.912-10.883 18.712zm-2.602.864l-10.574-4.498 5.234 13.68 5.34-9.182z" opacity=".12" filter="url(#filter2_f)"/><path d="M1626 164l19.88-6.176 1.14 26.429L1626 164zm3.08.731l16.16 15.563-.88-20.308-15.28 4.745z" opacity=".15" filter="url(#filter3_f)"/></g><defs><filter id="filter0_f" x="1030" y="-5.982" width="41.15" height="39.435" filterUnits="userSpaceOnUse" color-interpolation-filters="sRGB"><feFlood flood-opacity="0" result="BackgroundImageFix"/><feBlend in="SourceGraphic" in2="BackgroundImageFix" result="shape"/><feGaussianBlur stdDeviation="3" result="effect1_foregroundBlur"/></filter><filter id="filter1_f" x="91" y="84" width="28.501" height="26.521" filterUnits="userSpaceOnUse" color-interpolation-filters="sRGB"><feFlood flood-opacity="0" result="BackgroundImageFix"/><feBlend in="SourceGraphic" in2="BackgroundImageFix" result="shape"/><feGaussianBlur stdDeviation="2" result="effect1_foregroundBlur"/></filter><filter id="filter2_f" x="548" y="138" width="46.069" height="51.778" filterUnits="userSpaceOnUse" color-interpolation-filters="sRGB"><feFlood flood-opacity="0" result="BackgroundImageFix"/><feBlend in="SourceGraphic" in2="BackgroundImageFix" result="shape"/><feGaussianBlur stdDeviation="3" result="effect1_foregroundBlur"/></filter><filter id="filter3_f" x="1620" y="151.824" width="33.02" height="38.429" filterUnits="userSpaceOnUse" color-interpolation-filters="sRGB"><feFlood flood-opacity="0" result="BackgroundImageFix"/><feBlend in="SourceGraphic" in2="BackgroundImageFix" result="shape"/><feGaussianBlur stdDeviation="3" result="effect1_foregroundBlur"/></filter><clipPath id="clip0"><path fill="#fff" d="M0 0H1680V198H0z"/></clipPath></defs></svg>