<svg fill="none" height="198" width="1680" xmlns="http://www.w3.org/2000/svg"><filter id="b" color-interpolation-filters="sRGB" filterUnits="userSpaceOnUse" height="39.372" width="73.254" x="1" y="109"><feFlood flood-opacity="0" result="BackgroundImageFix"/><feBlend in="SourceGraphic" in2="BackgroundImageFix" result="shape"/><feGaussianBlur result="effect1_foregroundBlur" stdDeviation="4"/></filter><filter id="c" color-interpolation-filters="sRGB" filterUnits="userSpaceOnUse" height="40.803" width="49.071" x="1517" y="41"><feFlood flood-opacity="0" result="BackgroundImageFix"/><feBlend in="SourceGraphic" in2="BackgroundImageFix" result="shape"/><feGaussianBlur result="effect1_foregroundBlur" stdDeviation="4"/></filter><filter id="d" color-interpolation-filters="sRGB" filterUnits="userSpaceOnUse" height="38.2" width="37.634" x="445" y="-4"><feFlood flood-opacity="0" result="BackgroundImageFix"/><feBlend in="SourceGraphic" in2="BackgroundImageFix" result="shape"/><feGaussianBlur result="effect1_foregroundBlur" stdDeviation="4"/></filter><filter id="e" color-interpolation-filters="sRGB" filterUnits="userSpaceOnUse" height="38.758" width="25.336" x="1173" y="141"><feFlood flood-opacity="0" result="BackgroundImageFix"/><feBlend in="SourceGraphic" in2="BackgroundImageFix" result="shape"/><feGaussianBlur result="effect1_foregroundBlur" stdDeviation="1"/></filter><clipPath id="a"><path d="M0 0h1680v198H0z"/></clipPath><g clip-path="url(#a)" clip-rule="evenodd" fill="#fff" fill-rule="evenodd"><path d="M45.063 140.372l-4.984-19.935-16.461 12.588L9 119.451l1.36-1.465 13.383 12.426L41.282 117l5.016 20.066 18.809-13.167 1.147 1.639z" filter="url(#b)" opacity=".12"/><path d="M1525 49h33.07l-16.53 24.803zm3.74 2l12.8 19.197L1554.33 51z" filter="url(#c)" opacity=".12"/><path d="M463.982 4L453 16.08l1.48 1.345 9.019-9.92 9.347 18.695 1.789-.895z" filter="url(#d)" opacity=".12"/><path d="M1183.93 143l12.41 15.791-8.93 18.967-12.41-14.667zm.48 3.847l-7.07 15.909 9.59 11.333 7.07-15.033z" filter="url(#e)" opacity=".08"/></g></svg>