<svg fill="none" height="250" width="300" xmlns="http://www.w3.org/2000/svg"><path d="m191.467 97.25-14.838 14.839-24.111-24.11 2.149-2.15c1.486 1.053 3.926 2.515 6.989 3.37 4.773 1.331 11.961 1.418 19.109-5.73a2.098 2.098 0 1 0 -2.966-2.968c-10.838 10.838-21.437 1.394-21.879.991a2.095 2.095 0 0 0 -2.906.057l-18.24 18.24c-1.06 1.058-2.88.961-4.059-.218s-1.276-3-.221-4.056l29.672-29.566c8.726-8.725 22.844-8.802 31.475-.172 8.627 8.628 8.55 22.748-.174 31.473zm-16.26 19.353c1.061 1.059.964 2.879-.217 4.058-1.178 1.179-2.999 1.276-4.058.217l-25.657-25.657 4.277-4.276zm-7.46 11.301c-1.179 1.179-2.999 1.277-4.059.218l-25.657-25.657 4.277-4.276 25.658 25.657c1.058 1.059.961 2.88-.219 4.058zm-7.243 7.244c-1.18 1.18-2.999 1.277-4.059.218l-30.457-30.458a2.099 2.099 0 0 0 -2.967 2.968l30.459 30.459c1.057 1.057.959 2.877-.22 4.057-1.178 1.179-2.999 1.276-4.056.219l-45.415-45.52c-8.725-8.726-8.802-22.844-.174-31.474 8.631-8.631 22.75-8.553 31.475.172l9.628 9.63-17.188 17.126c-2.695 2.694-2.597 7.178.217 9.993 1.784 1.783 4.238 2.474 6.48 2.057l26.494 26.495c1.059 1.058.962 2.878-.217 4.058zm-20.044 7.446c-.979-.98-1.21-2.399-.653-3.459l4.108 4.118c-1.059.552-2.477.32-3.455-.659zm-22.366-25.223 4.124 4.132c-1.063.575-2.5.349-3.488-.639-.99-.99-1.215-2.429-.636-3.493zm18.589 18.632c-1.061.56-2.485.33-3.466-.651-.983-.985-1.211-2.411-.648-3.473zm-7.233-7.25c-1.063.567-2.492.34-3.477-.645-.986-.987-1.212-2.421-.642-3.483zm27.752-65.773-9.511 9.476-9.634-9.634c-10.361-10.361-27.143-10.44-37.408-.173-10.266 10.266-10.188 27.048.172 37.407l14.262 14.295c-2.21 2.725-1.964 6.837.68 9.481a7.356 7.356 0 0 0 5.068 2.175 7.362 7.362 0 0 0 2.175 5.069 7.373 7.373 0 0 0 5.069 2.175 7.348 7.348 0 0 0 2.176 5.068 7.368 7.368 0 0 0 5.067 2.176 7.361 7.361 0 0 0 2.175 5.068c2.649 2.65 6.776 2.891 9.498.665 2.721 2.005 6.671 1.698 9.236-.869a7.365 7.365 0 0 0 2.176-5.069 7.349 7.349 0 0 0 5.068-2.175 7.371 7.371 0 0 0 2.176-5.07 7.353 7.353 0 0 0 5.067-2.173 7.374 7.374 0 0 0 2.177-5.069 7.352 7.352 0 0 0 5.067-2.174c2.301-2.3 2.783-5.712 1.419-8.354l15.059-15.058c10.36-10.361 10.437-27.142.17-37.407-10.263-10.267-27.047-10.189-37.404.17zm-44.148 100.07c-1.612 0-2.919-1.375-2.919-3.078 0-1.698 1.307-3.077 2.919-3.077 1.613 0 2.92 1.379 2.92 3.077 0 1.703-1.307 3.078-2.92 3.078zm0-9.412c-3.64 0-6.592 2.838-6.592 6.334 0 3.5 2.952 6.337 6.592 6.337 3.642 0 6.593-2.837 6.593-6.337 0-3.496-2.951-6.334-6.593-6.334zm23.887 34.966c-3.619 0-6.554-3.064-6.554-6.844 0-3.777 2.935-6.839 6.554-6.839 3.62 0 6.556 3.062 6.556 6.839 0 3.78-2.936 6.844-6.556 6.844zm0-20.08c-7.682 0-13.909 5.926-13.909 13.236 0 7.312 6.227 13.239 13.909 13.239 7.684 0 13.911-5.927 13.911-13.239 0-7.31-6.227-13.236-13.911-13.236zm16.76-5.474c-1.613 0-2.92-1.375-2.92-3.078 0-1.698 1.307-3.077 2.92-3.077s2.918 1.379 2.918 3.077c0 1.703-1.305 3.078-2.918 3.078zm0-9.412c-3.641 0-6.593 2.838-6.593 6.334 0 3.5 2.952 6.337 6.593 6.337s6.591-2.837 6.591-6.337c0-3.496-2.95-6.334-6.591-6.334zm30.548 9.412c-1.613 0-2.918-1.375-2.918-3.078 0-1.698 1.305-3.077 2.918-3.077s2.918 1.379 2.918 3.077c0 1.703-1.305 3.078-2.918 3.078zm0-9.412c-3.641 0-6.591 2.838-6.591 6.334 0 3.5 2.95 6.337 6.591 6.337s6.591-2.837 6.591-6.337c0-3.496-2.95-6.334-6.591-6.334zm-84.139 9.285c-1.564 0-2.833-1.347-2.833-3.006 0-1.661 1.269-3.008 2.833-3.008 1.129 0 2.101.703 2.556 1.718l3.206-1.465a6.496 6.496 0 0 0 -5.861-3.653c-3.586 0-6.493 2.87-6.493 6.408 0 3.536 2.907 6.406 6.493 6.406a6.5 6.5 0 0 0 5.841-3.608l-3.206-1.465c-.463.991-1.423 1.673-2.536 1.673zm101.087-5.888v-3.235h-9.3v12.47h3.728v-4.195h5.572v-3.235h-5.572v-1.805zm-72.158-3.235v5.973l-4.231-5.973h-3.847v12.47h3.731v-6.428l4.55 6.428h3.527v-12.47zm14.119-.033-2.677 8.257-2.678-8.257h-4.157l4.499 12.501h4.67l4.5-12.501zm29.151 0h-4.158l-2.23 4.094-2.229-4.094h-4.156l4.521 7.371v5.102h3.729v-5.102zm-61.019 14.823v9.463h-10.202v-9.463h-7.57v26.166h7.57v-10.163h10.202v10.163h7.571v-26.166zm56.255 11.305h-5.357v-4.9h5.357c1.591 0 2.886 1.098 2.886 2.452 0 1.353-1.295 2.448-2.886 2.448zm1.743-11.305h-14.67v26.166h7.57v-8.456h7.1c4.893 0 8.857-3.964 8.857-8.853a8.855 8.855 0 0 0 -8.857-8.857zm31.721 6.496v-6.496h-19.726v26.162h19.726v-6.541h-12.159v-3.375h12.159v-6.54h-12.159v-3.21zm3.102-4.716c.299 0 .762.05.762-.385 0-.328-.288-.369-.553-.369h-.61v.754zm.995 1.185h-.308l-.61-.981h-.478v.981h-.256v-2.129h.925c.179 0 .358.01.517.104.159.092.24.28.24.459 0 .419-.295.575-.672.585zm.722-1.067c0-.921-.746-1.669-1.667-1.669a1.67 1.67 0 0 0 -1.675 1.669c0 .931.746 1.681 1.675 1.681.921 0 1.667-.75 1.667-1.681zm-3.574 0a1.9 1.9 0 0 1 1.907-1.898c1.05 0 1.897.85 1.897 1.898a1.9 1.9 0 0 1 -1.897 1.91 1.905 1.905 0 0 1 -1.907-1.91z" fill="#c0cada"/></svg>