<svg width="40" height="40" fill="none" xmlns="http://www.w3.org/2000/svg"><path d="M6.667 8.333a1.667 1.667 0 0 1 1.667-1.666h23.333a1.667 1.667 0 0 1 1.667 1.666v3.334a1.666 1.666 0 0 1-1.667 1.666H8.334a1.667 1.667 0 0 1-1.667-1.666V8.333zm0 13.334A1.667 1.667 0 0 1 8.334 20h10A1.667 1.667 0 0 1 20 21.667v10a1.667 1.667 0 0 1-1.666 1.666h-10a1.667 1.667 0 0 1-1.667-1.666v-10zm20 0A1.667 1.667 0 0 1 28.334 20h3.333a1.667 1.667 0 0 1 1.667 1.667v10a1.666 1.666 0 0 1-1.667 1.666h-3.333a1.667 1.667 0 0 1-1.667-1.666v-10z" stroke="#F4FD7B" stroke-width="2" stroke-linecap="round" stroke-linejoin="round" opacity=".75"/></svg>