<svg fill="none" height="905" width="1575" xmlns="http://www.w3.org/2000/svg" xmlns:xlink="http://www.w3.org/1999/xlink"><filter id="a" color-interpolation-filters="sRGB" filterUnits="userSpaceOnUse" height="45.166" width="45.333" x="383.171" y=".357"><feFlood flood-opacity="0" result="BackgroundImageFix"/><feBlend in="SourceGraphic" in2="BackgroundImageFix" result="shape"/><feGaussianBlur result="effect1_foregroundBlur" stdDeviation="3.5"/></filter><filter id="b" color-interpolation-filters="sRGB" filterUnits="userSpaceOnUse" height="45.166" width="45.333" x="1528.67" y="323.288"><feFlood flood-opacity="0" result="BackgroundImageFix"/><feBlend in="SourceGraphic" in2="BackgroundImageFix" result="shape"/><feGaussianBlur result="effect1_foregroundBlur" stdDeviation="3.5"/></filter><filter id="c" color-interpolation-filters="sRGB" filterUnits="userSpaceOnUse" height="55.369" width="54.339" x="181.032" y="624.315"><feFlood flood-opacity="0" result="BackgroundImageFix"/><feBlend in="SourceGraphic" in2="BackgroundImageFix" result="shape"/><feGaussianBlur result="effect1_foregroundBlur" stdDeviation="3.5"/></filter><filter id="d" color-interpolation-filters="sRGB" filterUnits="userSpaceOnUse" height="45.684" width="46.485" x="1180.06" y="764.826"><feFlood flood-opacity="0" result="BackgroundImageFix"/><feBlend in="SourceGraphic" in2="BackgroundImageFix" result="shape"/><feGaussianBlur result="effect1_foregroundBlur" stdDeviation="3.5"/></filter><filter id="e" color-interpolation-filters="sRGB" filterUnits="userSpaceOnUse" height="59.94" width="58.71" x="357.535" y="317.97"><feFlood flood-opacity="0" result="BackgroundImageFix"/><feBlend in="SourceGraphic" in2="BackgroundImageFix" result="shape"/><feGaussianBlur result="effect1_foregroundBlur" stdDeviation="3.5"/></filter><path clip-rule="evenodd" d="m67.056 668.811a4.903 4.903 0 1 0 -8.492-4.903 4.903 4.903 0 0 0 8.492 4.903zm.85.491a5.884 5.884 0 1 0 -10.193-5.884 5.884 5.884 0 0 0 10.193 5.884zm285.564-84.622 9.748-1.397 5.865 8.44-9.271 1.674zm1.751.74 5.023 6.903 7.163-1.294-4.649-6.689zm347.549-298.091-3.748-13.904.947-.255 3.471 12.877 11.615-4.163.331.923zm-338.329-13.964 10.131.851 2.125 9.421-11.151-.184zm1.986 9.122 9.039.149-1.692-7.503-8.229-.691zm-113.884 232.412 2.465 6.82-5.041 5.551-6.406-1.091-2.144-7.193 3.605-5.324zm-7.06-.167-2.994 4.419 1.838 6.164 5.275.898 4.283-4.716-2.068-5.724zm73.157-129.492-5.392 4.057-.59-.784 5.49-4.13-3.935-6.866 12.123 1.933-6.907 5.196 5.879 10.257-.851.488zm.298-1.451 4.963-3.734-7.818-1.247zm-98.87-60.738 7.982 6.856.639-.744-9.903-8.506 2.661 21.661-9.11-6.873-.591.782 10.956 8.266z" fill="#fff" fill-opacity=".15" fill-rule="evenodd"/><g stroke="#fff"><circle cx="24.459" cy="217.344" r="15.152" stroke-opacity=".05" stroke-width="5" transform="matrix(.5 -.8660254 .8660254 .5 -175.995425 129.854981)"/><path d="m402.937 35.737-10.007-9.14 2.954-13.08 11.523-3.477 6.235 3.177 5.017 9.974-5.691 9.69z" filter="url(#a)" stroke-opacity=".1" stroke-width="5"/><path d="m1548.44 358.668-10.01-9.139 2.96-13.081 11.52-3.476 6.23 3.177 5.02 9.974-5.69 9.691z" filter="url(#b)" stroke-opacity=".1" stroke-width="5"/><path d="m203.309 636.947 19.151 8.158-24.533 12.467z" filter="url(#c)" stroke-opacity=".1" stroke-width="5"/></g><path clip-rule="evenodd" d="m47.677 781.812 7.822-1.702.208.958-6.423 1.398 5.646 8.552-.818.541zm975.973-684.6a5.241 5.241 0 0 0 7.16 1.916 5.253 5.253 0 0 0 1.92-7.158 5.244 5.244 0 0 0 -7.16-1.916 5.235 5.235 0 0 0 -1.92 7.158zm-.91.524c1.74 3.007 5.59 4.037 8.59 2.299a6.282 6.282 0 0 0 2.3-8.59c-1.73-3.006-5.58-4.036-8.59-2.299a6.3 6.3 0 0 0 -2.3 8.59zm-74.196 309.514-3.912 9.768-10.946.922 3.403-9.476zm-1.619 1.226-9.072.961-2.629 7.322 8.675-.731zm90.285 480.902 14.87 3.958-.27 1.013-13.78-3.666-2.35 12.975-1.03-.187zm80.24-287.225-8.36-1.816-.22 1.024 6.87 1.492-6.04 9.14.88.578zm-477.501-196.58-6.199 8.923-9.855-3.065 6.126-10.223zm-9.504-3.034-4.966 8.287 7.849 2.441 5.034-7.247zm436.595-51.435-7.63-1.362-2.44-7.631 4.43-5.346 7.8 1.857 3 6.181zm3.93-6.447-2.5-5.131-6.68-1.591-3.65 4.403 2.08 6.483 6.4 1.143zm-562.256 206.095-.874-7.157 1.04-.127.891 7.287 8.456.025-8.264 10.189-1.121-9.168-12.633-.038.003-1.048zm1.185 1.052.805 6.588 5.329-6.57zm752.061-128.29-10.61 3.726.35.989 13.16-4.623-21.47-9.106 11.23-4.761-.41-.965-13.51 5.726z" fill="#fff" fill-opacity=".15" fill-rule="evenodd"/><path d="m1192.44 779.03 13.81-4.382 10.53 9.722-2.94 12.521-6.27 4.075-11.91-.684-5.93-10.443z" filter="url(#d)" stroke="#fff" stroke-opacity=".1" stroke-width="5"/><path d="m741.106 507.972-10.159-14.552 23.37 2.073z" stroke="#fff" stroke-opacity=".03" stroke-width="3"/><path d="m380.864 330.85 22.476 9.014-28.226 15.108z" filter="url(#e)" stroke="#fff" stroke-opacity=".1" stroke-width="5"/><path clip-rule="evenodd" d="m929.409 18.919-2.602 8.149-.999-.32 2.138-6.691-10.932.659-.063-1.046z" fill="#fff" fill-opacity=".15" fill-rule="evenodd"/></svg>