<svg fill="none" height="30" width="30" xmlns="http://www.w3.org/2000/svg"><g fill="#e4416f"><path d="M14.732 15.412c.4-.168.832-.275 1.246-.46-.192-.361-.375-.776-.544-1.111-.06-.123-.102-.273-.214-.353-2.67.773-5.626 1.257-9.077 1.247-.069 2.786.942 4.729 2.277 6.203 1.538-2.381 3.586-4.381 6.312-5.526zm1.814 1.056c-3.073 1.108-5.486 2.876-6.988 5.554a9.047 9.047 0 0 0 3.983 1.76c1.764.311 3.612-.017 4.93-.595a34.757 34.757 0 0 0-1.762-6.34c-.047-.122-.04-.291-.163-.38zm-5.334-9.482c-2.47 1.233-4.204 3.205-4.905 6.205 3.072-.035 5.797-.416 8.209-1.11-1.044-1.757-2.093-3.507-3.304-5.095z"/><path d="M15 0C6.714 0 0 6.716 0 15s6.714 15 15 15c7.552 0 13.798-5.583 14.843-12.847.103-.496.15-1.006.141-1.533.009-.206.017-.412.017-.62C29.999 6.717 23.284 0 15 0zm7.668 22.048c-.827.906-1.81 1.634-2.98 2.222-1.161.585-2.488 1.035-4.061 1.111-3.317.161-5.913-1.114-7.64-2.708-1.78-1.643-3.124-3.843-3.36-7.017-.124-1.688.206-3.18.705-4.443.517-1.314 1.13-2.299 1.977-3.223 1.185-1.293 2.795-2.42 4.821-2.98.727-.202 1.486-.33 2.25-.38 3.391-.218 5.899 1.148 7.664 2.736 1.762 1.582 3.147 3.88 3.333 7.044.199 3.328-1.08 5.863-2.709 7.638z"/><path d="M18.255 16.035c.684 1.99 1.314 4.031 1.706 6.313.49-.274.926-.655 1.329-1.058 1.226-1.226 2.13-2.816 2.49-4.875-1.527-.446-3.666-.674-5.525-.38zm-1.979-4.47c1.855-.753 3.507-1.713 4.604-3.224-1.458-1.227-3.557-2.334-6.23-2.194-.648.033-1.126.081-1.707.216.997 1.464 2.06 2.982 2.926 4.525.128.223.214.488.407.677zm.65 1.354c.208.406.419.86.596 1.273.064.15.09.328.217.434 2.06-.23 4.348-.058 6.148.299-.069-2.433-.876-4.127-2.004-5.5-1.287 1.528-2.993 2.64-4.957 3.494z"/></g></svg>