<svg fill="none" height="30" width="30" xmlns="http://www.w3.org/2000/svg"><g fill="#e4416f"><path d="M12.224 13.373H10.09v6.413h2.133zm-1.052-3.09c-.73 0-1.206.48-1.206 1.108 0 .616.463 1.109 1.177 1.109h.015c.744 0 1.205-.493 1.205-1.11-.015-.627-.462-1.107-1.191-1.107zm6.282 2.94c-1.134 0-1.64.625-1.921 1.063v.018h-.013c.002-.005.009-.013.013-.018v-.912h-2.13c.026.601 0 6.411 0 6.411h2.13v-3.58c0-.192.012-.382.071-.52.154-.384.504-.78 1.093-.78.77 0 1.078.588 1.078 1.45v3.43h2.133v-3.674c0-1.97-1.051-2.887-2.454-2.887z"/><path d="M15.002 0C6.715 0 0 6.715 0 15c0 8.284 6.715 15 15.002 15C23.286 30 30 23.285 30 15c.001-8.286-6.715-15-15-15zm7.054 21.081a1.03 1.03 0 0 1-1.042 1.018H8.99a1.03 1.03 0 0 1-1.044-1.018V8.918A1.03 1.03 0 0 1 8.99 7.9h12.024a1.03 1.03 0 0 1 1.042 1.018z"/></g></svg>