<svg fill="none" height="198" width="1680" xmlns="http://www.w3.org/2000/svg"><filter id="a" color-interpolation-filters="sRGB" filterUnits="userSpaceOnUse" height="39.764" width="53.501" x="12" y="117"><feFlood flood-opacity="0" result="BackgroundImageFix"/><feBlend in="SourceGraphic" in2="BackgroundImageFix" result="shape"/><feGaussianBlur result="effect1_foregroundBlur" stdDeviation="4"/></filter><filter id="b" color-interpolation-filters="sRGB" filterUnits="userSpaceOnUse" height="42.893" width="51.321" x="355" y="30"><feFlood flood-opacity="0" result="BackgroundImageFix"/><feBlend in="SourceGraphic" in2="BackgroundImageFix" result="shape"/><feGaussianBlur result="effect1_foregroundBlur" stdDeviation="1.5"/></filter><filter id="c" color-interpolation-filters="sRGB" filterUnits="userSpaceOnUse" height="52.191" width="38.62" x="960" y="81"><feFlood flood-opacity="0" result="BackgroundImageFix"/><feBlend in="SourceGraphic" in2="BackgroundImageFix" result="shape"/><feGaussianBlur result="effect1_foregroundBlur" stdDeviation="4"/></filter><filter id="d" color-interpolation-filters="sRGB" filterUnits="userSpaceOnUse" height="38.181" width="54.469" x="1419" y="14"><feFlood flood-opacity="0" result="BackgroundImageFix"/><feBlend in="SourceGraphic" in2="BackgroundImageFix" result="shape"/><feGaussianBlur result="effect1_foregroundBlur" stdDeviation="4"/></filter><filter id="e" color-interpolation-filters="sRGB" filterUnits="userSpaceOnUse" height="36" width="36" x="1613" y="146"><feFlood flood-opacity="0" result="BackgroundImageFix"/><feBlend in="SourceGraphic" in2="BackgroundImageFix" result="shape"/><feGaussianBlur result="effect1_foregroundBlur" stdDeviation="1.5"/></filter><g clip-rule="evenodd" fill="#fff" fill-rule="evenodd"><path d="M57.056 125l.445 1.95-32.945 7.53 16.336 12.706-1.228 1.578L20 133.47z" filter="url(#a)" opacity=".11"/><path d="M397.797 61.732l-20.529 6.248.582 1.913 25.471-7.752-40.203-19.096 21.792-8.172-.702-1.873L358 42.828z" filter="url(#b)" opacity=".12"/><path d="M990.619 125.191L968 112.751 990.619 89zm-2-3.382V94l-17.38 18.25z" filter="url(#c)" opacity=".11"/><path d="M1444.7 22l20.77 20.767-1.42 1.414-19.23-19.233-16.3 19.174-1.52-1.296z" filter="url(#d)" opacity=".11"/><path d="M1631 177c7.18 0 13-5.82 13-13s-5.82-13-13-13-13 5.82-13 13 5.82 13 13 13zm0 2c8.28 0 15-6.716 15-15s-6.72-15-15-15-15 6.716-15 15 6.72 15 15 15z" filter="url(#e)" opacity=".12"/></g></svg>